<?xml version="1.0" encoding="utf-8"?>
<svg version="1.1" xmlns:xlink="http://www.w3.org/1999/xlink" width="13px" height="13px" viewBox="40 317  13 13" xmlns="http://www.w3.org/2000/svg">
  <path d="M 46.5 317  C 50.14 317  53 319.86  53 323.5  C 53 327.14  50.14 330  46.5 330  C 42.86 330  40 327.14  40 323.5  C 40 319.86  42.86 317  46.5 317  Z " fill-rule="nonzero" fill="#ffffff" stroke="none" />
  <path d="M 46.5 317.5  C 49.86 317.5  52.5 320.14  52.5 323.5  C 52.5 326.86  49.86 329.5  46.5 329.5  C 43.14 329.5  40.5 326.86  40.5 323.5  C 40.5 320.14  43.14 317.5  46.5 317.5  Z " stroke-width="1" stroke="#797979" fill="none" />
  <path d="M 46.5 326.75  C 44.68 326.75  43.25 325.32  43.25 323.5  C 43.25 321.68  44.68 320.25  46.5 320.25  C 48.32 320.25  49.75 321.68  49.75 323.5  C 49.75 325.32  48.32 326.75  46.5 326.75  " fill-rule="nonzero" fill="#797979" stroke="none" />
</svg>