<?xml version="1.0" encoding="utf-8"?>
<svg version="1.1" xmlns:xlink="http://www.w3.org/1999/xlink" width="13px" height="13px" viewBox="40 341  13 13" xmlns="http://www.w3.org/2000/svg">
  <path d="M 46.5 341  C 50.14 341  53 343.86  53 347.5  C 53 351.14  50.14 354  46.5 354  C 42.86 354  40 351.14  40 347.5  C 40 343.86  42.86 341  46.5 341  Z " fill-rule="nonzero" fill="#f0f0f0" stroke="none" />
  <path d="M 46.5 341.5  C 49.86 341.5  52.5 344.14  52.5 347.5  C 52.5 350.86  49.86 353.5  46.5 353.5  C 43.14 353.5  40.5 350.86  40.5 347.5  C 40.5 344.14  43.14 341.5  46.5 341.5  Z " stroke-width="1" stroke="#797979" fill="none" />
  <path d="M 46.5 350.75  C 44.68 350.75  43.25 349.32  43.25 347.5  C 43.25 345.68  44.68 344.25  46.5 344.25  C 48.32 344.25  49.75 345.68  49.75 347.5  C 49.75 349.32  48.32 350.75  46.5 350.75  " fill-rule="nonzero" fill="#797979" stroke="none" />
</svg>