<?xml version="1.0" encoding="utf-8"?>
<svg version="1.1" xmlns:xlink="http://www.w3.org/1999/xlink" width="23px" height="19px" xmlns="http://www.w3.org/2000/svg">
  <g transform="matrix(1 0 0 1 -557 -274 )">
    <path d="M 17.434000000000008 10.169836363636405  C 17.434000000000008 10.688018181818173  17.85218181818182 11.100490909090922  18.372818181818186 11.100490909090922  C 18.888488638094795 11.093793286054769  19.30487998952093 10.681022728988834  19.311636363636364 10.169836363636405  C 19.311636363636364 9.653727272727325  18.894500000000008 9.239181818181827  18.372818181818186 9.239181818181827  C 17.85113636363636 9.239181818181827  17.434000000000008 9.653727272727325  17.434000000000008 10.169836363636405  Z M 12.807863636363649 10.169836363636405  C 12.807863636363649 10.688018181818173  13.225000000000005 11.100490909090922  13.746681818181827 11.100490909090922  C 14.262352274458436 11.093793286054769  14.678743625884575 10.681022728988834  14.685500000000005 10.169836363636405  C 14.685500000000005 9.653727272727325  14.267318181818178 9.239181818181827  13.746681818181827 9.239181818181827  C 13.223954545454546 9.239181818181827  12.807863636363649 9.653727272727325  12.807863636363649 10.169836363636405  Z M 20.6121818181818 16.324799999999996  L 20.612181818181828 16.32376363636365  C 20.474758608067003 16.399455230457328  20.402155483510587 16.55427827362167  20.432363636363633 16.707218181818185  C 20.432363636363633 16.75696363636363  20.432363636363633 16.807745454545422  20.45849999999999 16.859563636363617  C 20.56095454545453 17.291727272727254  20.765863636363637 17.979872727272713  20.765863636363637 18.00578181818178  C 20.765863636363637 18.081436363636357  20.791999999999994 18.132218181818146  20.791999999999994 18.184036363636345  C 20.792000000012276 18.309959641981855  20.689025492473345 18.41203871902048  20.562000000012265 18.41203871902048  C 20.561651513809934 18.41203871902048  20.5613030280568 18.41203793389046  20.56095454545453 18.412036363636354  C 20.508681818181817 18.412036363636354  20.483590909090903 18.387163636363628  20.432363636363633 18.362290909090902  L 18.917499999999993 17.495890909090882  C 18.806904082115377 17.435529945168213  18.68394455537833 17.400805379124094  18.557863636363635 17.39432727272724  C 18.48154545454545 17.39432727272724  18.404181818181826 17.39432727272724  18.352954545454537 17.419200000000025  C 17.633681818181817 17.623363636363653  16.889318181818183 17.724927272727292  16.093727272727264 17.724927272727292  C 12.267363636363621 17.724927272727292  9.186409090909086 15.17858181818177  9.186409090909086 12.01974545454548  C 9.186409090909086 8.861945454545475  12.267363636363621 6.314563636363668  16.093727272727264 6.314563636363668  C 19.91904545454545 6.314563636363668  23 8.861945454545475  23 12.01974545454548  C 23 13.726636363636336  22.075818181818168 15.280145454545474  20.6121818181818 16.324799999999996  Z M 16.385409090909093 5.283381818181791  L 16.385409090909093 5.284418181818196  C 16.28786590089059 5.28120339146059  16.19027860352404 5.279475914457531  16.092681818181806 5.2792363636363575  C 11.728954545454538 5.2792363636363575  8.140954545454541 8.243236363636349  8.140954545454541 12.020781818181824  C 8.140954545454541 12.59492727272722  8.224590909090907 13.150418181818194  8.37931818181817 13.678963636363635  L 8.286272727272712 13.678963636363635  C 7.372813053161239 13.669819608474699  6.464535981113342 13.54159225712678  5.584818181818182 13.297581818181849  C 5.507454545454542 13.271672727272723  5.430090909090901 13.271672727272723  5.352727272727261 13.271672727272723  C 5.198223815499968 13.274926425942082  5.047384320122691 13.318926247123274  4.91572727272726 13.399145454545431  L 3.088272727272732 14.440690909090863  C 3.0359999999999907 14.46659999999999  2.9847727272727207 14.492509090909058  2.9335454545454516 14.492509090909058  C 2.7783585439085967 14.490827657112833  2.652968910488285 14.366528368330945  2.6512727272727314 14.212690909090854  C 2.6512727272727314 14.135999999999996  2.6763636363636305 14.085218181818204  2.702500000000001 14.008527272727227  C 2.7275909090909156 13.983654545454563  2.9596818181818216 13.144200000000012  3.088272727272732 12.636381818181802  C 3.088272727272732 12.584563636363605  3.113363636363631 12.508909090909091  3.113363636363631 12.458127272727298  C 3.112792271044554 12.278034280594815  3.0273135668037687 12.108563458274027  2.8823181818181816 12.000054545454534  C 1.1060909090909086 10.753309090909072  0 8.898218181818219  0 6.8379272727272715  C 0 3.0520909090908694  3.7322727272727256 0  8.311363636363643 0  C 12.247500000000004 0  15.556363636363637 2.247872727272718  16.385409090909093 5.283381818181791  Z M 9.924499999999995 4.654309090909111  C 9.924499999999995 5.248145454545452  10.398090909090918 5.7176181818181755  10.997136363636367 5.7176181818181755  C 11.596181818181815 5.7176181818181755  12.069772727272722 5.223272727272729  12.069772727272722 4.654309090909111  C 12.069772727272722 4.060472727272769  11.596181818181815 3.5909999999999864  10.997136363636367 3.5909999999999864  C 10.398090909090918 3.5909999999999864  9.924499999999995 4.060472727272769  9.924499999999995 4.654309090909111  Z M 4.425409090909091 4.654309090909111  C 4.425409090909091 5.248145454545452  4.900045454545456 5.7176181818181755  5.498045454545447 5.7176181818181755  C 6.097090909090911 5.7176181818181755  6.571727272727275 5.223272727272729  6.571727272727275 4.654309090909111  C 6.571727272727275 4.060472727272769  6.097090909090911 3.5909999999999864  5.498045454545447 3.5909999999999864  C 4.900045454545456 3.5909999999999864  4.425409090909091 4.060472727272769  4.425409090909091 4.654309090909111  Z " fill-rule="nonzero" fill="#333333" stroke="none" transform="matrix(1 0 0 1 557 274 )" />
  </g>
</svg>