<?xml version="1.0" encoding="utf-8"?>
<svg version="1.1" xmlns:xlink="http://www.w3.org/1999/xlink" width="20px" height="20px" xmlns="http://www.w3.org/2000/svg">
  <g transform="matrix(1 0 0 1 -36 -294 )">
    <path d="M 46 294  C 51.6 294  56 298.4  56 304  C 56 309.6  51.6 314  46 314  C 40.4 314  36 309.6  36 304  C 36 298.4  40.4 294  46 294  Z " fill-rule="nonzero" fill="#ffffff" stroke="none" />
    <path d="M 46 294.5  C 51.32 294.5  55.5 298.68  55.5 304  C 55.5 309.32  51.32 313.5  46 313.5  C 40.68 313.5  36.5 309.32  36.5 304  C 36.5 298.68  40.68 294.5  46 294.5  Z " stroke-width="1" stroke="#797979" fill="none" />
  </g>
</svg>