<?xml version="1.0" encoding="utf-8"?>
<svg version="1.1" xmlns:xlink="http://www.w3.org/1999/xlink" width="320px" height="324px" xmlns="http://www.w3.org/2000/svg">
  <g transform="matrix(1 0 0 1 -31 -187 )">
    <path d="M 31 187  L 351 187  L 351 511  L 31 511  L 31 187  " fill-rule="nonzero" fill="#cccccc" stroke="none" />
    <path d="M 53 209  L 329 209  L 329 489  L 53 489  L 53 209  " fill-rule="nonzero" fill="#ffffff" stroke="none" />
    <path d="M 221.4 283.6  C 207.96 283.6  197.4 273.04  197.4 259.6  C 197.4 246.16  207.96 235.6  221.4 235.6  C 234.84 235.6  245.4 246.16  245.4 259.6  C 245.4 273.04  234.84 283.6  221.4 283.6  " fill-rule="nonzero" fill="#cccccc" stroke="none" />
    <path d="M 61 481  L 61 335.79999999999995  L 126 269.79999999999995  L 217 322.6  L 269 309.4  L 321 322.6  L 321 481  L 61 481  " fill-rule="nonzero" fill="#169bd5" stroke="none" />
  </g>
</svg>