<?xml version="1.0" encoding="utf-8"?>
<svg version="1.1" xmlns:xlink="http://www.w3.org/1999/xlink" width="260px" height="250px" xmlns="http://www.w3.org/2000/svg">
  <g transform="matrix(1 0 0 1 -974 -166 )">
    <path d="M 974 166  L 1234 166  L 1234 416  L 974 416  L 974 166  " fill-rule="nonzero" fill="#cccccc" stroke="none" />
    <path d="M 992 184  L 1216 184  L 1216 398  L 992 398  L 992 184  " fill-rule="nonzero" fill="#ffffff" stroke="none" />
    <path d="M 1127.95 241  C 1117.45 241  1109.2 232.75  1109.2 222.25  C 1109.2 211.75  1117.45 203.5  1127.95 203.5  C 1138.45 203.5  1146.7 211.75  1146.7 222.25  C 1146.7 232.75  1138.45 241  1127.95 241  " fill-rule="nonzero" fill="#cccccc" stroke="none" />
    <path d="M 999 392  L 999 281.45  L 1051.75 231.2  L 1125.6 276.03846153846155  L 1167.8 261.35  L 1210 276.03846153846155  L 1210 392  L 999 392  " fill-rule="nonzero" fill="#169bd5" stroke="none" />
  </g>
</svg>