<?xml version="1.0" encoding="utf-8"?>
<svg version="1.1" xmlns:xlink="http://www.w3.org/1999/xlink" width="42px" height="42px" xmlns="http://www.w3.org/2000/svg">
  <g transform="matrix(1 0 0 1 -1083 -431 )">
    <path d="M 1104 431  C 1115.76 431  1125 440.24  1125 452  C 1125 463.76  1115.76 473  1104 473  C 1092.24 473  1083 463.76  1083 452  C 1083 440.24  1092.24 431  1104 431  Z " fill-rule="nonzero" fill="#ffffff" stroke="none" />
    <path d="M 1104 431.5  C 1115.48 431.5  1124.5 440.52  1124.5 452  C 1124.5 463.48  1115.48 472.5  1104 472.5  C 1092.52 472.5  1083.5 463.48  1083.5 452  C 1083.5 440.52  1092.52 431.5  1104 431.5  Z " stroke-width="1" stroke="#797979" fill="none" />
  </g>
</svg>