<?xml version="1.0" encoding="utf-8"?>
<svg version="1.1" xmlns:xlink="http://www.w3.org/1999/xlink" width="320px" height="324px" xmlns="http://www.w3.org/2000/svg">
  <g transform="matrix(1 0 0 1 -31 -193 )">
    <path d="M 31 193  L 351 193  L 351 517  L 31 517  L 31 193  " fill-rule="nonzero" fill="#cccccc" stroke="none" />
    <path d="M 53 215  L 329 215  L 329 495  L 53 495  L 53 215  " fill-rule="nonzero" fill="#ffffff" stroke="none" />
    <path d="M 221.4 289.6  C 207.96 289.6  197.4 279.04  197.4 265.6  C 197.4 252.16  207.96 241.6  221.4 241.6  C 234.84 241.6  245.4 252.16  245.4 265.6  C 245.4 279.04  234.84 289.6  221.4 289.6  " fill-rule="nonzero" fill="#cccccc" stroke="none" />
    <path d="M 61 487  L 61 341.79999999999995  L 126 275.79999999999995  L 217 328.6  L 269 315.4  L 321 328.6  L 321 487  L 61 487  " fill-rule="nonzero" fill="#169bd5" stroke="none" />
  </g>
</svg>