<?xml version="1.0" encoding="utf-8"?>
<svg version="1.1" xmlns:xlink="http://www.w3.org/1999/xlink" width="140px" height="35px" xmlns="http://www.w3.org/2000/svg">
  <defs>
    <mask fill="white" id="clip514">
      <path d="M 0 30  L 0 5  C 0 2.2000000000000455  2.2000000000000455 0  5 0  L 135 0  C 137.79999999999995 0  140 2.2000000000000455  140 5  L 140 30  C 140 32.799999999999955  137.79999999999995 35  135 35  L 118 35  L 93 35  L 5 35  C 2.2000000000000455 35  0 32.799999999999955  0 30  Z " fill-rule="evenodd" />
    </mask>
  </defs>
  <g transform="matrix(1 0 0 1 -572 -550 )">
    <path d="M 0 30  L 0 5  C 0 2.2000000000000455  2.2000000000000455 0  5 0  L 135 0  C 137.79999999999995 0  140 2.2000000000000455  140 5  L 140 30  C 140 32.799999999999955  137.79999999999995 35  135 35  L 118 35  L 93 35  L 5 35  C 2.2000000000000455 35  0 32.799999999999955  0 30  Z " fill-rule="nonzero" fill="#ffffff" stroke="none" transform="matrix(1 0 0 1 572 550 )" />
    <path d="M 0 30  L 0 5  C 0 2.2000000000000455  2.2000000000000455 0  5 0  L 135 0  C 137.79999999999995 0  140 2.2000000000000455  140 5  L 140 30  C 140 32.799999999999955  137.79999999999995 35  135 35  L 118 35  L 93 35  L 5 35  C 2.2000000000000455 35  0 32.799999999999955  0 30  Z " stroke-width="2" stroke="#797979" fill="none" transform="matrix(1 0 0 1 572 550 )" mask="url(#clip514)" />
  </g>
</svg>