<?xml version="1.0" encoding="utf-8"?>
<svg version="1.1" xmlns:xlink="http://www.w3.org/1999/xlink" width="16px" height="16px" xmlns="http://www.w3.org/2000/svg">
  <defs>
    <mask fill="white" id="clip88">
      <path d="M 13.714285714285714 6.857142857142857  C 13.716499191215432 8.412953201485431  13.187216085781088 9.922848175190216  12.214095238095236 11.136761904761906  L 15.477333333333334 14.399238095238095  L 14.399238095238095 15.477333333333334  L 11.136761904761906 12.214095238095236  C 9.922848175190216 13.187216085781088  8.412953201485431 13.716499191215432  6.857142857142857 13.714285714285714  C 3.072 13.714285714285714  0 10.642285714285714  0 6.857142857142857  C 0 3.072  3.072 0  6.857142857142857 0  C 10.642285714285714 0  13.714285714285714 3.072  13.714285714285714 6.857142857142857  Z M 10.571428571428571 10.685714285714285  L 10.685714285714285 10.571428571428571  C 11.652657438720862 9.577055735822121  12.19266057827103 8.244136593894497  12.19047619047619 6.857142857142857  C 12.19047619047619 3.910095238095238  9.803428571428572 1.5238095238095237  6.857142857142857 1.5238095238095237  C 3.910095238095238 1.5238095238095237  1.5238095238095237 3.910095238095238  1.5238095238095237 6.857142857142857  C 1.5238095238095237 9.803428571428572  3.910095238095238 12.19047619047619  6.857142857142857 12.19047619047619  C 8.244136593894497 12.19266057827103  9.577055735822121 11.652657438720862  10.571428571428571 10.685714285714285  Z M 3.8095238095238093 6.095238095238095  L 6.095238095238095 6.095238095238095  L 6.095238095238095 3.8095238095238093  L 7.619047619047619 3.8095238095238093  L 7.619047619047619 6.095238095238095  L 9.904761904761905 6.095238095238095  L 9.904761904761905 7.619047619047619  L 7.619047619047619 7.619047619047619  L 7.619047619047619 9.904761904761905  L 6.095238095238095 9.904761904761905  L 6.095238095238095 7.619047619047619  L 3.8095238095238093 7.619047619047619  L 3.8095238095238093 6.095238095238095  Z " fill-rule="evenodd" />
    </mask>
  </defs>
  <g transform="matrix(1 0 0 1 -411 -425 )">
    <path d="M 13.714285714285714 6.857142857142857  C 13.716499191215432 8.412953201485431  13.187216085781088 9.922848175190216  12.214095238095236 11.136761904761906  L 15.477333333333334 14.399238095238095  L 14.399238095238095 15.477333333333334  L 11.136761904761906 12.214095238095236  C 9.922848175190216 13.187216085781088  8.412953201485431 13.716499191215432  6.857142857142857 13.714285714285714  C 3.072 13.714285714285714  0 10.642285714285714  0 6.857142857142857  C 0 3.072  3.072 0  6.857142857142857 0  C 10.642285714285714 0  13.714285714285714 3.072  13.714285714285714 6.857142857142857  Z M 10.571428571428571 10.685714285714285  L 10.685714285714285 10.571428571428571  C 11.652657438720862 9.577055735822121  12.19266057827103 8.244136593894497  12.19047619047619 6.857142857142857  C 12.19047619047619 3.910095238095238  9.803428571428572 1.5238095238095237  6.857142857142857 1.5238095238095237  C 3.910095238095238 1.5238095238095237  1.5238095238095237 3.910095238095238  1.5238095238095237 6.857142857142857  C 1.5238095238095237 9.803428571428572  3.910095238095238 12.19047619047619  6.857142857142857 12.19047619047619  C 8.244136593894497 12.19266057827103  9.577055735822121 11.652657438720862  10.571428571428571 10.685714285714285  Z M 3.8095238095238093 6.095238095238095  L 6.095238095238095 6.095238095238095  L 6.095238095238095 3.8095238095238093  L 7.619047619047619 3.8095238095238093  L 7.619047619047619 6.095238095238095  L 9.904761904761905 6.095238095238095  L 9.904761904761905 7.619047619047619  L 7.619047619047619 7.619047619047619  L 7.619047619047619 9.904761904761905  L 6.095238095238095 9.904761904761905  L 6.095238095238095 7.619047619047619  L 3.8095238095238093 7.619047619047619  L 3.8095238095238093 6.095238095238095  Z " fill-rule="nonzero" fill="#999999" stroke="none" fill-opacity="0.9882352941176471" transform="matrix(1 0 0 1 411 425 )" />
    <path d="M 13.714285714285714 6.857142857142857  C 13.716499191215432 8.412953201485431  13.187216085781088 9.922848175190216  12.214095238095236 11.136761904761906  L 15.477333333333334 14.399238095238095  L 14.399238095238095 15.477333333333334  L 11.136761904761906 12.214095238095236  C 9.922848175190216 13.187216085781088  8.412953201485431 13.716499191215432  6.857142857142857 13.714285714285714  C 3.072 13.714285714285714  0 10.642285714285714  0 6.857142857142857  C 0 3.072  3.072 0  6.857142857142857 0  C 10.642285714285714 0  13.714285714285714 3.072  13.714285714285714 6.857142857142857  Z " stroke-width="2" stroke="#797979" fill="none" transform="matrix(1 0 0 1 411 425 )" mask="url(#clip88)" />
    <path d="M 10.571428571428571 10.685714285714285  L 10.685714285714285 10.571428571428571  C 11.652657438720862 9.577055735822121  12.19266057827103 8.244136593894497  12.19047619047619 6.857142857142857  C 12.19047619047619 3.910095238095238  9.803428571428572 1.5238095238095237  6.857142857142857 1.5238095238095237  C 3.910095238095238 1.5238095238095237  1.5238095238095237 3.910095238095238  1.5238095238095237 6.857142857142857  C 1.5238095238095237 9.803428571428572  3.910095238095238 12.19047619047619  6.857142857142857 12.19047619047619  C 8.244136593894497 12.19266057827103  9.577055735822121 11.652657438720862  10.571428571428571 10.685714285714285  Z " stroke-width="2" stroke="#797979" fill="none" transform="matrix(1 0 0 1 411 425 )" mask="url(#clip88)" />
    <path d="M 3.8095238095238093 6.095238095238095  L 6.095238095238095 6.095238095238095  L 6.095238095238095 3.8095238095238093  L 7.619047619047619 3.8095238095238093  L 7.619047619047619 6.095238095238095  L 9.904761904761905 6.095238095238095  L 9.904761904761905 7.619047619047619  L 7.619047619047619 7.619047619047619  L 7.619047619047619 9.904761904761905  L 6.095238095238095 9.904761904761905  L 6.095238095238095 7.619047619047619  L 3.8095238095238093 7.619047619047619  L 3.8095238095238093 6.095238095238095  Z " stroke-width="2" stroke="#797979" fill="none" transform="matrix(1 0 0 1 411 425 )" mask="url(#clip88)" />
  </g>
</svg>