<?xml version="1.0" encoding="utf-8"?>
<svg version="1.1" xmlns:xlink="http://www.w3.org/1999/xlink" width="80px" height="32px" xmlns="http://www.w3.org/2000/svg">
  <g transform="matrix(1 0 0 1 -185 -736 )">
    <path d="M 186 752  A 15 15 0 0 1 201 737 L 249 737  A 15 15 0 0 1 264 752 A 15 15 0 0 1 249 767 L 201 767  A 15 15 0 0 1 186 752 Z " fill-rule="nonzero" fill="#f68c95" stroke="none" fill-opacity="0" />
    <path d="M 185.5 752  A 15.5 15.5 0 0 1 201 736.5 L 249 736.5  A 15.5 15.5 0 0 1 264.5 752 A 15.5 15.5 0 0 1 249 767.5 L 201 767.5  A 15.5 15.5 0 0 1 185.5 752 Z " stroke-width="1" stroke="#aaaaaa" fill="none" stroke-opacity="0.9882352941176471" />
  </g>
</svg>