<?xml version="1.0" encoding="utf-8"?>
<svg version="1.1" xmlns:xlink="http://www.w3.org/1999/xlink" width="19px" height="19px" xmlns="http://www.w3.org/2000/svg">
  <g transform="matrix(1 0 0 1 -713 -539 )">
    <path d="M 19 9.5  C 19 14.746849999999997  14.746850000000011 19  9.5 19  C 4.253150000000003 19  0 14.746849999999997  0 9.5  C 0 4.253150000000003  4.253150000000003 0  9.5 0  C 14.746850000000011 0  19 4.253150000000003  19 9.5  Z M 12.18659999999999 5.469150000000005  L 9.5 8.156700000000011  L 6.813399999999997 5.469150000000005  L 5.469150000000005 6.813399999999997  L 8.156699999999999 9.5  L 5.469150000000005 12.186600000000004  L 6.813399999999997 13.530849999999996  L 9.5 10.843299999999987  L 12.18659999999999 13.530849999999996  L 13.530849999999996 12.186600000000004  L 10.843300000000001 9.5  L 13.530849999999996 6.813399999999997  L 12.18659999999999 5.469150000000005  Z " fill-rule="nonzero" fill="#666ee8" stroke="none" fill-opacity="0.8980392156862745" transform="matrix(1 0 0 1 713 539 )" />
  </g>
</svg>