<?xml version="1.0" encoding="utf-8"?>
<svg version="1.1" xmlns:xlink="http://www.w3.org/1999/xlink" width="20px" height="22px" xmlns="http://www.w3.org/2000/svg">
  <g transform="matrix(1 0 0 1 -336 -70 )">
    <path d="M 2.865000000000009 18.010000000000005  C 2.2739909060624655 17.406945157048597  1.761594931981051 16.731590463341263  1.3400000000000318 16  C 0.9172706759873677 15.268984499077888  0.5886648308417648 14.48745362401803  0.3620000000000232 13.674000000000007  C 1.3682310327410505 13.16222084396449  2.0019722666908706 12.128892507303433  2.0019722666908706 10.999990919119767  C 2.0019722666908706 9.871896957009639  1.3691283055447343 8.839165087390867  0.36400000000003274 8.326999999999998  C 0.8160359013882044 6.692486549007229  1.6767296050946925 5.1999521255866625  2.865000000000009 3.990000000000002  C 3.3516827442118142 4.306410455558918  3.919711210309572 4.474826606495228  4.500207265335405 4.474826606495228  C 6.157061514827774 4.474826606495228  7.500207265335405 3.1316808559876037  7.500207265335405 1.4748266064952276  C 7.500207265335405 1.421856545313979  7.498804351687795 1.3688957748138364  7.495999999999981 1.3160000000000025  C 9.138109609255253 0.891622127432491  10.861229942356715 0.8923104119673866  12.502999999999986 1.3179999999999978  C 12.50024480984547 1.3704311307422046  12.498866502614533 1.4229255551748423  12.498866502614533 1.4754290269047488  C 12.498866502614533 3.132283276397125  13.842012253122164 4.475429026904749  15.498866502614533 4.475429026904749  C 16.07973862129876 4.475429026904749  16.648118610425456 4.306794777025502  17.13499999999999 3.990000000000002  C 17.713999999999942 4.579999999999998  18.227999999999952 5.250999999999991  18.659999999999968 6  C 19.09299999999996 6.748999999999994  19.41700000000003 7.530000000000001  19.637999999999977 8.325999999999993  C 18.63176896725895 8.83777915603551  17.99802773330913 9.871107492696567  17.99802773330913 11.000009080880234  C 17.99802773330913 12.128103042990345  18.630871694455266 13.16083491260913  19.635999999999967 13.673000000000002  C 19.183964098611796 15.307513450992772  18.323270394905308 16.800047874413337  17.13499999999999 18.010000000000005  C 16.648317255788186 17.693589544441082  16.080288789690428 17.525173393504772  15.499792734664595 17.525173393504772  C 13.842938485172226 17.525173393504772  12.499792734664595 18.868319144012403  12.499792734664595 20.525173393504787  C 12.499792734664595 20.578143454686014  12.501195648312205 20.631104225186164  12.504000000000019 20.683999999999997  C 10.861890390744747 21.1083778725675  9.138770057643285 21.107689588032613  7.497000000000014 20.682000000000002  C 7.499755190154474 20.62956886925781  7.501133497385467 20.577074444825158  7.501133497385467 20.52457097309525  C 7.501133497385467 18.867716723602882  6.157987746877836 17.52457097309525  4.501133497385467 17.52457097309525  C 3.920261378701241 17.52457097309525  3.351881389574544 17.693205222974484  2.865000000000009 18.010000000000005  Z M 3.4769999999999754 15.632000000000005  C 4.680716907274643 15.37969112601074  5.935207562425717 15.580523578325582  7 16.196000000000012  C 8.065626940648599 16.81062843673486  8.866845101211538 17.797017016627848  9.25 18.966000000000008  C 9.748999999999967 19.013000000000005  10.25 19.01400000000001  10.749000000000024 18.967000000000013  C 11.132402595293001 17.797853294048508  11.933996243552826 16.811440852609266  13 16.197000000000003  C 14.065217291890406 15.580685629192914  15.320522831570429 15.379480627797392  16.524999999999977 15.632000000000005  C 16.815000000000055 15.224000000000004  17.064999999999998 14.788999999999987  17.273000000000025 14.334000000000003  C 16.45242959908063 13.417441075477925  15.999116499824083 12.230209439247403  16 11  C 16 9.740000000000009  16.46999999999997 8.563000000000002  17.273000000000025 7.665999999999997  C 17.063528919465114 7.211148079030622  16.812460819968635 6.776632888168663  16.523000000000025 6.367999999999995  C 15.319283092725357 6.62030887398926  14.064792437574283 6.419476421674418  13 5.804000000000002  C 11.934373059351401 5.189371563265141  11.133154898788518 4.202982983372152  10.75 3.034000000000006  C 10.251000000000033 2.9869999999999948  9.75 2.985999999999997  9.250999999999976 3.0330000000000013  C 8.867597404706999 4.202146705951492  8.066003756447174 5.188559147390734  7 5.802999999999997  C 5.934782708109594 6.419314370807086  4.679477168429571 6.620519372202594  3.4750000000000227 6.367999999999995  C 3.185565542748691 6.776285593915475  2.9351316993054297 7.210861969302172  2.7269999999999754 7.665999999999997  C 3.547570400919369 8.582558924522075  4.000883500175917 9.769790560752597  4 11  C 4 12.25999999999999  3.5300000000000296 13.436999999999998  2.7269999999999754 14.334000000000003  C 2.9364710805348864 14.788851920969378  3.187539180031365 15.223367111831351  3.4769999999999754 15.632000000000005  Z M 10 14  C 8.343145750507631 14  7 12.656854249492383  7 11  C 7 9.343145750507617  8.343145750507631 8  10 8  C 11.656854249492369 8  13 9.343145750507617  13 11  C 13 12.656854249492383  11.656854249492369 14  10 14  Z M 10 12  C 10.55228474983079 12  11 11.55228474983079  11 11  C 11 10.44771525016921  10.55228474983079 10  10 10  C 9.44771525016921 10  9 10.44771525016921  9 11  C 9 11.55228474983079  9.44771525016921 12  10 12  Z " fill-rule="nonzero" fill="#333333" stroke="none" transform="matrix(1 0 0 1 336 70 )" />
  </g>
</svg>