<?xml version="1.0" encoding="utf-8"?>
<svg version="1.1" xmlns:xlink="http://www.w3.org/1999/xlink" width="19px" height="19px" xmlns="http://www.w3.org/2000/svg">
  <g transform="matrix(1 0 0 1 -40 -468 )">
    <path d="M 0 8.444444444444445  L 0 0  L 8.444444444444445 0  L 8.444444444444445 8.444444444444445  L 0 8.444444444444445  Z M 0 19  L 0 10.555555555555555  L 8.444444444444445 10.555555555555555  L 8.444444444444445 19  L 0 19  Z M 10.555555555555555 8.444444444444445  L 10.555555555555555 0  L 19 0  L 19 8.444444444444445  L 10.555555555555555 8.444444444444445  Z M 10.555555555555555 19  L 10.555555555555555 10.555555555555555  L 19 10.555555555555555  L 19 19  L 10.555555555555555 19  Z M 16.88888888888889 2.111111111111111  L 12.666666666666666 2.111111111111111  L 12.666666666666666 6.333333333333333  L 16.88888888888889 6.333333333333333  L 16.88888888888889 2.111111111111111  Z M 16.88888888888889 12.666666666666666  L 12.666666666666666 12.666666666666666  L 12.666666666666666 16.88888888888889  L 16.88888888888889 16.88888888888889  L 16.88888888888889 12.666666666666666  Z M 6.333333333333333 2.111111111111111  L 2.111111111111111 2.111111111111111  L 2.111111111111111 6.333333333333333  L 6.333333333333333 6.333333333333333  L 6.333333333333333 2.111111111111111  Z M 6.333333333333333 12.666666666666666  L 2.111111111111111 12.666666666666666  L 2.111111111111111 16.88888888888889  L 6.333333333333333 16.88888888888889  L 6.333333333333333 12.666666666666666  Z " fill-rule="nonzero" fill="#333333" stroke="none" transform="matrix(1 0 0 1 40 468 )" />
  </g>
</svg>