<?xml version="1.0" encoding="utf-8"?>
<svg version="1.1" xmlns:xlink="http://www.w3.org/1999/xlink" width="26px" height="19px" xmlns="http://www.w3.org/2000/svg">
  <g transform="matrix(1 0 0 1 -50 -298 )">
    <path d="M 15.335294117647038 15.29411764705884  L 9.370588235294122 15.29411764705884  C 9.081441367969035 17.32332836642314  7.3438254443965425 18.83089910671964  5.29411764705884 18.83089910671964  C 3.244409849721137 18.83089910671964  1.506793926148589 17.32332836642314  1.217647058823502 15.29411764705884  L 0 15.29411764705884  L 0 1.1764705882353041  C 0 0.5267238237285028  0.5267238237285028 0  1.1764705882353041 0  L 17.64705882352939 0  C 18.29680558803625 0  18.823529411764696 0.5267238237285028  18.823529411764696 1.1764705882353041  L 18.823529411764696 3.5294117647058556  L 22.35294117647061 3.5294117647058556  L 25.882352941176464 8.301176470588246  L 25.882352941176464 15.29411764705884  L 23.488235294117658 15.29411764705884  C 23.19908842679257 17.32332836642314  21.461472503220023 18.83089910671964  19.41176470588232 18.83089910671964  C 17.362056908544673 18.83089910671964  15.624440984972123 17.32332836642314  15.335294117647038 15.29411764705884  Z M 16.470588235294088 11.823529411764698  L 16.470588235294088 2.3529411764706083  L 2.3529411764706083 2.3529411764706083  L 2.3529411764706083 11.823529411764698  C 3.1274527203232196 11.032837863179395  4.1876736242317065 10.587246256337949  5.294498477840079 10.587246256337949  C 6.885348121553363 10.587246256337949  8.333883527152636 11.503650054808418  9.015294117647045 12.941176470588232  L 15.690588235294117 12.941176470588232  C 15.888235294117633 12.525882352941153  16.152941176470563 12.148235294117628  16.470588235294088 11.823529411764698  Z M 18.823529411764696 5.882352941176464  L 18.823529411764696 9.411764705882376  L 23.529411764705856 9.411764705882376  L 23.529411764705856 9.076470588235281  L 21.16705882352943 5.882352941176464  L 18.823529411764696 5.882352941176464  Z M 19.41176470588232 16.470588235294144  C 20.386709726024833 16.470588235294144  21.17705882352942 15.680239137789556  21.17705882352942 14.705294117647043  C 21.17705882352942 13.730349097504586  20.386709726024833 12.939999999999998  19.41176470588232 12.939999999999998  C 18.436819685739863 12.939999999999998  17.646470588235275 13.730349097504586  17.646470588235275 14.705294117647043  C 17.646470588235275 15.680239137789556  18.436819685739863 16.470588235294144  19.41176470588232 16.470588235294144  Z M 7.058823529411768 14.705882315752772  C 7.058823529411768 13.731262168992544  6.268737793819071 12.941176433399844  5.29411764705884 12.941176433399844  C 4.31949750029861 12.941176433399844  3.5294117647058556 13.731262168992544  3.5294117647058556 14.705882315752772  C 3.529411785244463 15.680502485178408  4.319497514821592 16.470588198105702  5.29411764705884 16.470588198105702  C 6.268737793819071 16.470588198105702  7.058823529411768 15.680502462513005  7.058823529411768 14.705882315752772  Z " fill-rule="nonzero" fill="#333333" stroke="none" transform="matrix(1 0 0 1 50 298 )" />
  </g>
</svg>