<?xml version="1.0" encoding="utf-8"?>
<svg version="1.1" xmlns:xlink="http://www.w3.org/1999/xlink" width="19px" height="16px" xmlns="http://www.w3.org/2000/svg">
  <g transform="matrix(1 0 0 1 -38 -759 )">
    <path d="M 10.555555527255658 9.263157894736842  L 10.555555527255658 14.31578947368421  L 16.88888869078959 14.31578947368421  L 16.88888869078959 6.718315789473684  L 9.500000000000002 2.1338947368421053  L 2.111111309210417 6.718315789473684  L 2.111111309210417 14.31578947368421  L 8.444444472744346 14.31578947368421  L 8.444444472744346 9.263157894736842  L 10.555555527255658 9.263157894736842  Z M 18.999999745300894 6.30736842105263  L 18.999999745300897 15.157894736842104  C 18.999999745300897 15.622976631436458  18.527411438348143 16  17.94444421804524 16  L 1.055555781954762 16  C 0.4725885616518616 16  0 15.622976631436458  0 15.157894736842104  L 0 6.307368421052632  C -0.00022589519904648239 6.047319829931339  0.1501594715814826 5.801775073948081  0.40744468821978996 5.6421052631578945  L 8.851888906265028 0.40252631578947273  C 9.233085477266467 0.16595764132194846  9.766914522733536 0.1659576413219492  10.148111093734974 0.40252631578947273  L 18.592555311780213 5.6421052631578945  C 18.849840528418518 5.801775073948081  19.000225895199044 6.047319829931339  18.999999745300894 6.30736842105263  Z " fill-rule="nonzero" fill="#ec808d" stroke="none" fill-opacity="0.9882352941176471" transform="matrix(1 0 0 1 38 759 )" />
  </g>
</svg>