<?xml version="1.0" encoding="utf-8"?>
<svg version="1.1" xmlns:xlink="http://www.w3.org/1999/xlink" width="19px" height="18px" xmlns="http://www.w3.org/2000/svg">
  <g transform="matrix(1 0 0 1 -320 -759 )">
    <path d="M 0.41588888888888903 17.031599999999997  C 2.2546666666666666 14.916600000000003  5.634555555555555 13.5  9.5 13.5  C 13.365444444444444 13.5  16.74638888888889 14.9175  18.585166666666666 17.0325  L 16.640833333333333 17.8164  C 15.144055555555557 16.304399999999998  12.505166666666668 15.299999999999999  9.5 15.299999999999999  C 6.494833333333334 15.299999999999999  3.855944444444444 16.304399999999998  2.3591666666666673 17.8164  L 0.41588888888888903 17.031599999999997  Z M 9.270944444444446 0.004500000000000104  L 9.5 0  C 12.41483617966252 0  14.777777777777779 2.0147186257614296  14.777777777777779 4.5  L 14.777777777777779 7.199999999999998  C 14.777614523366848 9.609225860211527  12.55202844755905 11.590939601513409  9.729055555555554 11.695500000000001  L 9.5 11.699999999999996  C 6.58516382033748 11.699999999999996  4.222222222222221 9.685281374238567  4.222222222222222 7.2  L 4.222222222222221 4.499999999999999  C 4.2223854766331534 2.090774139788473  6.447971552440947 0.10906039848659337  9.270944444444446 0.004500000000000104  Z M 12.666666666666666 4.499999999999999  C 12.666666666666666 3.0088311754568564  11.248901707797511 1.8  9.5 1.8  C 7.823189189055006 1.7999203578664758  6.436984009570862 2.9143606270024764  6.338611111111111 4.3416  L 6.333333333333333 4.5  L 6.333333333333333 7.2  C 6.333332352948748 7.200867361287384  6.333331862756371 7.201734722928252  6.333331862756371 7.202602084618435  C 6.333331862756371 8.693770909161577  7.751096821625525 9.902602084618433  9.499998529423037 9.902602084618433  C 11.177921086417767 9.902602084618433  12.564567838314263 8.78666600723996  12.66138888888889 7.3584  L 12.666666666666666 7.2  L 12.666666666666666 4.499999999999999  Z " fill-rule="nonzero" fill="#999999" stroke="none" fill-opacity="0.9882352941176471" transform="matrix(1 0 0 1 320 759 )" />
  </g>
</svg>