<?xml version="1.0" encoding="utf-8"?>
<svg version="1.1" xmlns:xlink="http://www.w3.org/1999/xlink" width="30px" height="30px" xmlns="http://www.w3.org/2000/svg">
  <g transform="matrix(1 0 0 1 -292 -189 )">
    <path d="M 15.789473877483553 18.06954545454545  L 15.789473877483553 18.070909090909094  L 15.78947387748355 20.92090909090909  C 14.775238778447891 20.611220935624093  13.707337792573814 20.452983014744547  12.63157901084984 20.452983014744547  C 7.399407767824542 20.452983014744547  3.157894929172209 24.116107788856237  3.157894929172209 28.634801196562726  C 3.157894929172209 28.635322009837868  3.1578949867525976 28.63584282309799  3.157895101913376 28.636363636363637  L 0 28.634999999999998  C 0 28.63407573897121  0 28.6331514779125  0 28.632227216853856  C 0 22.6073026732452  5.6553504515364414 17.723136307762946  12.631578775570178 17.723136307762946  C 13.696913199877303 17.723136307762946  14.757968265497968 17.839530034631267  15.789473877483553 18.06954545454545  Z M 22.105263265268643 8.181818181818182  C 22.105263265268643 12.702272727272726  17.8657896387179 16.363636363636363  12.631579183591008 16.363636363636363  C 7.397368728464118 16.363636363636363  3.157895101913376 12.702272727272726  3.157895101913376 8.181818181818182  C 3.157895101913376 3.661363636363637  7.397368728464118 0  12.631579183591008 0  C 17.8657896387179 0  22.105263265268643 3.6613636363636366  22.105263265268643 8.181818181818182  Z M 6.31578979580592 8.181818181818182  C 6.31578979580592 11.195454545454547  9.142105546839746 13.636363636363637  12.631579183591008 13.636363636363637  C 16.121052820342275 13.636363636363637  18.947368571376096 11.195454545454547  18.947368571376096 8.181818181818182  C 18.947368571376096 5.168181818181817  16.121052820342275 2.7272727272727275  12.631579183591008 2.7272727272727275  C 9.142105546839746 2.7272727272727275  6.31578979580592 5.168181818181818  6.31578979580592 8.181818181818182  Z M 21.77684221710382 25.79181818181818  L 21.778421164450762 25.791818181818183  L 27.360000035905834 20.971363636363638  L 29.59421053183481 22.899545454545457  L 21.778421164450762 29.649545454545457  L 16.195263345648748 24.827727272727273  L 18.42947384157772 22.899545454545454  L 21.77684221710382 25.79181818181818  Z " fill-rule="nonzero" fill="#333333" stroke="none" transform="matrix(1 0 0 1 292 189 )" />
  </g>
</svg>