<?xml version="1.0" encoding="utf-8"?>
<svg version="1.1" xmlns:xlink="http://www.w3.org/1999/xlink" width="30px" height="30px" xmlns="http://www.w3.org/2000/svg">
  <g transform="matrix(1 0 0 1 -132 -189 )">
    <path d="M 29.093749999999996 10.206000000000001  C 25.077258661797387 12.39819445016685  22.499134539091436 17.20508854905549  22.5 22.5  L 22.5 30  L 20 30  L 20 22.5  C 20 15.8235  23.305 10.072500000000002  28.05875 7.476000000000001  L 29.093749999999996 10.206000000000001  Z M 1.9412499999999997 7.476000000000001  C 6.849732560698188 10.155014788941306  10.000594007042505 16.02919408099988  10 22.5  L 10 30  L 7.5 30  L 7.499999999999999 22.5  C 7.500375293077487 17.20563175743857  4.922329189700222 12.399469599976571  0.90625 10.207500000000001  L 1.9412499999999997 7.476000000000001  Z M 15 15  C 11.548220313557543 15  8.749999999999998 11.642135623730951  8.749999999999998 7.5  C 8.749999999999998 3.3578643762690508  11.548220313557543 0  15 0  C 18.45177968644246 0  21.25 3.3578643762690508  21.25 7.5  C 21.25 11.642135623730951  18.45177968644246 15  15 15  Z M 15.000000055879354 12  C 17.07106786774483 12  18.750000055879354 9.985281374238571  18.750000055879354 7.5  C 18.750000055879354 5.01471862576143  17.07106786774483 3  15.000000055879354 3  C 12.928932244013879 3  11.250000055879354 5.01471862576143  11.250000055879354 7.5  C 11.250000055879354 9.985281374238571  12.928932244013879 12  15.000000055879354 12  Z " fill-rule="nonzero" fill="#333333" stroke="none" transform="matrix(1 0 0 1 132 189 )" />
  </g>
</svg>