<?xml version="1.0" encoding="utf-8"?>
<svg version="1.1" xmlns:xlink="http://www.w3.org/1999/xlink" width="30px" height="30px" xmlns="http://www.w3.org/2000/svg">
  <g transform="matrix(1 0 0 1 -212 -189 )">
    <path d="M 7.125 0.75  C 10.645815280171309 0.7499999999999993  13.5 3.604184719828692  13.5 7.125  L 13.5 13.5  L 7.125 13.5  C 3.604184719828692 13.5  0.7499999999999993 10.64581528017131  0.7499999999999993 7.125000000000002  C 0.7499999999999993 3.604184719828693  3.604184719828692 0.7500000000000007  7.125 0.7500000000000007  Z M 7.125 10.5  L 10.5 10.5  L 10.5 7.125  C 10.5 5.261038969321072  8.988961030678928 3.75  7.125 3.75  C 5.261038969321072 3.75  3.75 5.261038969321072  3.75 7.125  C 3.75 8.988961030678928  5.261038969321072 10.5  7.125 10.5  Z M 7.125 16.5  L 13.5 16.5  L 13.5 22.875  C 13.5 26.395815280171306  10.64581528017131 29.25  7.125000000000002 29.25  C 3.604184719828693 29.25  0.7500000000000007 26.395815280171306  0.7500000000000007 22.875  C 0.7500000000000007 19.354184719828694  3.604184719828693 16.5  7.125000000000002 16.5  Z M 10.5 19.5  L 7.125 19.499999999999996  C 5.261038969321072 19.499999999999996  3.75 21.011038969321067  3.75 22.875  C 3.75 24.738961030678926  5.261038969321072 26.25  7.125 26.25  C 8.988961030678928 26.25  10.5 24.738961030678926  10.5 22.875  L 10.5 19.5  Z M 16.5 7.125  C 16.5 3.604184719828692  19.354184719828694 0.75  22.875 0.75  C 26.395815280171306 0.7500000000000007  29.25 3.604184719828693  29.25 7.125000000000002  C 29.25 10.64581528017131  26.395815280171306 13.5  22.875 13.5  L 16.5 13.5  L 16.5 7.125  Z M 19.5 10.5  L 22.875 10.5  C 24.738961030678926 10.5  26.25 8.988961030678928  26.25 7.125  C 26.25 5.261038969321072  24.738961030678926 3.75  22.875 3.75  C 21.011038969321067 3.75  19.499999999999996 5.261038969321072  19.499999999999996 7.125  L 19.5 10.5  Z M 16.5 22.875  L 16.5 16.5  L 22.875 16.5  C 26.395815280171306 16.5  29.25 19.354184719828694  29.25 22.875  C 29.25 26.395815280171306  26.395815280171306 29.25  22.875 29.25  C 19.354184719828694 29.25  16.5 26.395815280171306  16.5 22.875  Z M 22.875 19.5  L 19.5 19.5  L 19.499999999999996 22.875  C 19.499999999999996 24.738961030678926  21.011038969321067 26.25  22.875 26.25  C 24.738961030678926 26.25  26.25 24.738961030678926  26.25 22.875  C 26.25 21.011038969321067  24.738961030678926 19.499999999999996  22.875 19.499999999999996  Z " fill-rule="nonzero" fill="#333333" stroke="none" transform="matrix(1 0 0 1 212 189 )" />
  </g>
</svg>