<?xml version="1.0" encoding="utf-8"?>
<svg version="1.1" xmlns:xlink="http://www.w3.org/1999/xlink" width="30px" height="30px" xmlns="http://www.w3.org/2000/svg">
  <g transform="matrix(1 0 0 1 -52 -189 )">
    <path d="M 7.044375000000002 16.694999999999997  L 15 22.479545454545452  L 22.955625000000005 16.694999999999997  C 25.064997117899598 15.160651307370388  26.25 13.079783870483023  26.25 10.91007089481071  C 26.25 6.391377487104217  21.213203435596423 2.7282527129925276  15 2.7282527129925276  C 8.786796564403573 2.7282527129925276  3.75 6.391377487104217  3.75 10.91007089481071  C 3.75 13.079783870483022  4.935002882100408 15.160651307370395  7.044375000000002 16.694999999999997  Z M 30 10.909488415596329  C 30 13.80266181371223  28.41975349894113 16.577346579039112  25.606875 18.623181818181816  L 15 26.337272727272726  L 4.3931249999999995 18.623181818181816  C 1.580246501058874 16.577346579039112  0 13.80266181371223  0 10.909488415596329  C 0 4.884563871987671  6.715728752538098 0.00039750650541847676  15 0.00039750650541847676  C 23.2842712474619 0.00039750650541847676  30 4.884563871987671  30 10.909488415596329  Z M 1.875 30  L 1.875 27  L 28.125 27  L 28.125 30  L 1.875 30  Z " fill-rule="nonzero" fill="#333333" stroke="none" transform="matrix(1 0 0 1 52 189 )" />
  </g>
</svg>