<?xml version="1.0" encoding="utf-8"?>
<svg version="1.1" xmlns:xlink="http://www.w3.org/1999/xlink" width="18px" height="18px" xmlns="http://www.w3.org/2000/svg">
  <g transform="matrix(1 0 0 1 -30 -412 )">
    <path d="M 3.33722448979592 2.067510204081636  C 6.864408163265322 -0.8230204081632709  12.077061224489842 -0.6218775510203718  15.369877551020409 2.6709387755101943  C 18.876408163265317 6.177469387755102  18.876408163265317 11.863346938775502  15.369877551020409 15.369877551020409  C 11.863346938775502 18.876408163265317  6.177469387755102 18.876408163265317  2.6709387755101943 15.369877551020409  C 0.4834222145138008 13.185340666284333  -0.4255324710641523 10.028597704501184  0.2653061224489658 7.0152653061224495  L 0.3344489795918083 6.734204081632687  L 2.071102040816294 7.19216326530615  C 1.9141257169150767 7.788779906815767  1.8346566634789279 8.403132310468193  1.8346566634789279 9.020054496154357  C 1.8346566634789279 12.987487801061324  5.050896827959755 16.203727965542104  9.018330132866678 16.203727965542104  C 12.9857634377736 16.203727965542104  16.202003602254475 12.987487801061324  16.202003602254475 9.020054496154357  C 16.202003602254475 5.052621191247433  12.9857634377736 1.8363810267666063  9.018330132866678 1.8363810267666063  C 7.5083319978112915 1.8363810267666063  6.036728076234582 2.3122002894394416  4.81257142857145 3.1962448979591715  L 4.6141224489795665 3.3453061224489704  L 5.527346938775524 4.258530612244835  L 1.400326530612269 5.210367346938762  L 2.3521632653061033 1.0833469387755537  L 3.3363265306122325 2.067510204081636  Z M 8.122448979591804 3.6326530612244547  L 9.918367346938798 3.6326530612244547  L 9.918367346938798 5.42857142857145  L 12.163265306122472 5.42857142857145  L 12.163265306122472 7.2244897959184  L 7.2244897959184 7.2244897959184  C 6.9756986883291665 7.224489035142276  6.774683678049138 7.425504045422351  6.774683678049138 7.673468626979049  C 6.774683678049138 7.8905792444192935  6.930036253942196 8.076585073677988  7.143673469387801 8.11526530612244  L 7.2244897959184 8.122448979591804  L 10.816326530612203 8.122448979591804  C 12.056149438395645 8.122448979591804  13.061224489795924 9.127524030992133  13.061224489795924 10.36734693877548  C 13.061224489795924 11.607169846558918  12.056149438395645 12.612244897959155  10.816326530612203 12.612244897959155  L 9.918367346938798 12.612244897959155  L 9.918367346938798 14.408163265306147  L 8.122448979591804 14.408163265306147  L 8.122448979591804 12.612244897959155  L 5.877551020408129 12.612244897959155  L 5.877551020408129 10.816326530612203  L 10.816326530612203 10.816326530612203  C 11.065117638201437 10.816327291388328  11.266132648481463 10.61531228110825  11.266132648481463 10.367347699551601  C 11.266132648481463 10.150237082111309  11.110780072588408 9.964231252852615  10.8971428571428 9.925551020408163  L 10.816326530612203 9.918367346938798  L 7.2244897959184 9.918367346938798  C 5.984666888134959 9.918367346938798  4.979591836734678 8.913292295538518  4.979591836734678 7.673469387755125  C 4.979591836734678 6.433646479971685  5.984666888134959 5.42857142857145  7.2244897959184 5.42857142857145  L 8.122448979591804 5.42857142857145  L 8.122448979591804 3.6326530612244547  Z " fill-rule="nonzero" fill="#333333" stroke="none" transform="matrix(1 0 0 1 30 412 )" />
  </g>
</svg>