<?xml version="1.0" encoding="utf-8"?>
<svg version="1.1" xmlns:xlink="http://www.w3.org/1999/xlink" width="20px" height="20px" xmlns="http://www.w3.org/2000/svg">
  <g transform="matrix(1 0 0 1 -813 -87 )">
    <path d="M 823 87  C 828.6 87  833 91.4  833 97  C 833 102.6  828.6 107  823 107  C 817.4 107  813 102.6  813 97  C 813 91.4  817.4 87  823 87  Z " fill-rule="nonzero" fill="#ffffff" stroke="none" />
    <path d="M 823 87.5  C 828.32 87.5  832.5 91.68  832.5 97  C 832.5 102.32  828.32 106.5  823 106.5  C 817.68 106.5  813.5 102.32  813.5 97  C 813.5 91.68  817.68 87.5  823 87.5  Z " stroke-width="1" stroke="#797979" fill="none" />
  </g>
</svg>