<?xml version="1.0" encoding="utf-8"?>
<svg version="1.1" xmlns:xlink="http://www.w3.org/1999/xlink" width="20px" height="20px" xmlns="http://www.w3.org/2000/svg">
  <g transform="matrix(1 0 0 1 -31 -611 )">
    <path d="M 41 611  C 46.6 611  51 615.4  51 621  C 51 626.6  46.6 631  41 631  C 35.4 631  31 626.6  31 621  C 31 615.4  35.4 611  41 611  Z " fill-rule="nonzero" fill="#ffffff" stroke="none" />
    <path d="M 41 611.5  C 46.32 611.5  50.5 615.68  50.5 621  C 50.5 626.32  46.32 630.5  41 630.5  C 35.68 630.5  31.5 626.32  31.5 621  C 31.5 615.68  35.68 611.5  41 611.5  Z " stroke-width="1" stroke="#797979" fill="none" />
  </g>
</svg>