<?xml version="1.0" encoding="utf-8"?>
<svg version="1.1" xmlns:xlink="http://www.w3.org/1999/xlink" width="320px" height="324px" xmlns="http://www.w3.org/2000/svg">
  <g transform="matrix(1 0 0 1 -31 -155 )">
    <path d="M 31 155  L 351 155  L 351 479  L 31 479  L 31 155  " fill-rule="nonzero" fill="#cccccc" stroke="none" />
    <path d="M 53 177  L 329 177  L 329 457  L 53 457  L 53 177  " fill-rule="nonzero" fill="#ffffff" stroke="none" />
    <path d="M 221.4 251.6  C 207.96 251.6  197.4 241.04  197.4 227.6  C 197.4 214.16  207.96 203.6  221.4 203.6  C 234.84 203.6  245.4 214.16  245.4 227.6  C 245.4 241.04  234.84 251.6  221.4 251.6  " fill-rule="nonzero" fill="#cccccc" stroke="none" />
    <path d="M 61 449  L 61 303.79999999999995  L 126 237.79999999999998  L 217 290.6  L 269 277.4  L 321 290.6  L 321 449  L 61 449  " fill-rule="nonzero" fill="#169bd5" stroke="none" />
  </g>
</svg>