<?xml version="1.0" encoding="utf-8"?>
<svg version="1.1" xmlns:xlink="http://www.w3.org/1999/xlink" width="20px" height="20px" xmlns="http://www.w3.org/2000/svg">
  <g transform="matrix(1 0 0 1 -31 -694 )">
    <path d="M 41 694  C 46.6 694  51 698.4  51 704  C 51 709.6  46.6 714  41 714  C 35.4 714  31 709.6  31 704  C 31 698.4  35.4 694  41 694  Z " fill-rule="nonzero" fill="#ffffff" stroke="none" />
    <path d="M 41 694.5  C 46.32 694.5  50.5 698.68  50.5 704  C 50.5 709.32  46.32 713.5  41 713.5  C 35.68 713.5  31.5 709.32  31.5 704  C 31.5 698.68  35.68 694.5  41 694.5  Z " stroke-width="1" stroke="#797979" fill="none" />
  </g>
</svg>