<?xml version="1.0" encoding="utf-8"?>
<svg version="1.1" xmlns:xlink="http://www.w3.org/1999/xlink" width="46px" height="43px" xmlns="http://www.w3.org/2000/svg">
  <g transform="matrix(1 0 0 1 -313 -648 )">
    <path d="M 336 648  C 348.88 648  359 657.46  359 669.5  C 359 681.54  348.88 691  336 691  C 323.12 691  313 681.54  313 669.5  C 313 657.46  323.12 648  336 648  Z " fill-rule="nonzero" fill="#ffffff" stroke="none" />
    <path d="M 336 648.5  C 348.6 648.5  358.5 657.74  358.5 669.5  C 358.5 681.26  348.6 690.5  336 690.5  C 323.4 690.5  313.5 681.26  313.5 669.5  C 313.5 657.74  323.4 648.5  336 648.5  Z " stroke-width="1" stroke="#797979" fill="none" />
  </g>
</svg>