<?xml version="1.0" encoding="utf-8"?>
<svg version="1.1" xmlns:xlink="http://www.w3.org/1999/xlink" width="17px" height="19px" xmlns="http://www.w3.org/2000/svg">
  <g transform="matrix(1 0 0 1 -30 -627 )">
    <path d="M 17 18.05  C 17 18.574670512339253  16.577157819284636 19  16.055555555555554 19  L 0.9444444444444444 19  C 0.42284218071536195 19  0 18.574670512339253  0 18.05  L 0 0.9500000000000001  C 0 0.42532948766074646  0.42284218071536195 0  0.9444444444444444 0  L 16.055555555555554 0  C 16.577157819284636 0  17 0.42532948766074646  17 0.9500000000000001  L 17 18.05  Z M 2 17  L 15 17  L 15 2  L 2 2  L 2 17  Z M 3.7777777777777777 3.8000000000000003  L 5.666666666666666 3.8000000000000003  L 5.666666666666666 5.7  C 5.666666666666666 7.274011537017761  6.935193208812752 8.55  8.5 8.55  C 10.064806791187246 8.55  11.333333333333332 7.274011537017761  11.333333333333332 5.7  L 11.333333333333332 3.8000000000000003  L 13.222222222222223 3.8000000000000003  L 13.222222222222223 5.699999999999998  C 13.222222222222223 8.323352561696268  11.108011318645413 10.45  8.5 10.45  C 5.891988681354587 10.45  3.7777777777777772 8.323352561696268  3.7777777777777777 5.7  L 3.7777777777777777 3.8000000000000003  Z " fill-rule="nonzero" fill="#333333" stroke="none" transform="matrix(1 0 0 1 30 627 )" />
  </g>
</svg>