<?xml version="1.0" encoding="utf-8"?>
<svg version="1.1" xmlns:xlink="http://www.w3.org/1999/xlink" width="19px" height="19px" xmlns="http://www.w3.org/2000/svg">
  <g transform="matrix(1 0 0 1 -41 -139 )">
    <path d="M 8.026444433905844 7.175666682191839  L 6.7196666578438435 8.108777792077786  C 7.710132320557762 9.848838132660337  9.151161867339658 11.28986767944223  10.89122220792221 12.280333342156155  L 11.82433331780816 10.973555566094156  C 12.134898412611527 10.538670549073874  12.721476843669013 10.404491866235379  13.190222204903657 10.661111122059946  C 14.683115816560079 11.476976044210286  16.33177464468786 11.967652597028595  18.02783330966306 12.10088889794732  C 18.576791594394116 12.14439256376051  19.000069021099186 12.60259842089944  18.999999975053285 13.153277785454437  L 18.999999975053285 17.86316666815931  C 19.00011669308827 18.404533303826863  18.590654184382416 18.85822505901876  18.05211108740896 18.91344444455809  C 17.492666643699057 18.97150000003742  16.928999977772474 19  16.36111108962922 19  C 7.32555554593721 18.999999999999996  0 11.674444454062789  0 2.6388889103707838  C 0 2.071000022227524  0.02849999996258007 1.507333356300944  0.08655555544190925 0.9478889125910412  C 0.1417749409812397 0.40934581561758393  0.5954666961731353 -0.00011669308826791318  1.136833331840688 0  L 5.846722214545563 0  C 6.397401579100561 -6.902109918451625E-05  6.855607436239489 0.42320840560588513  6.899111102052679 0.9721666903369429  C 7.032347402971404 2.668225355312139  7.523023955789709 4.316884183439916  8.338888877940052 5.809777795096341  C 8.595508133764621 6.278523156330988  8.461329450926124 6.865101587388472  8.026444433905844 7.175666682191839  Z M 4.849222215855265 9.091500013009709  C 4.546180097472931 8.552104118272412  4.281632364214344 7.991968384386233  4.057555550228045 7.415277792988344  L 6.0631111031503355 5.982888905980161  C 5.4939371787170925 4.754320926592385  5.103982484808684 3.4504432444993616  4.905166660226256 2.11111113328597  L 2.1216666638809496 2.11111113328597  C 2.1153333305559316 2.2863333552781286  2.1121666638934227 2.462611132824456  2.1121666638934227 2.6388889103707838  C 2.1111111083392538 10.509111122259519  8.49088887774048 16.88888889166074  16.36111108962922 16.88888889166074  C 16.537388867175547 16.88888889166074  16.713666644721872 16.885722224998233  16.88888886671403 16.878333336119045  L 16.88888886671403 14.09483333977374  C 15.549556755500642 13.896017515191314  14.245679073407619 13.506062821282905  13.017111094019839 12.93688889684966  L 11.584722207011655 14.94244444977195  C 11.008031615613763 14.718367635785649  10.44789588172758 14.453819902527066  9.90849998699029 14.15077778414473  L 9.847277764848448 14.115944450857132  C 7.776888602364533 12.937648340066328  6.062351659933665 11.223111397635464  4.884055549142864 9.152722235151547  L 4.849222215855265 9.091500013009709  Z " fill-rule="nonzero" fill="#333333" stroke="none" transform="matrix(1 0 0 1 41 139 )" />
  </g>
</svg>