<?xml version="1.0" encoding="utf-8"?>
<svg version="1.1" xmlns:xlink="http://www.w3.org/1999/xlink" width="16px" height="16px" xmlns="http://www.w3.org/2000/svg">
  <g transform="matrix(1 0 0 1 -211 -636 )">
    <path d="M 219 636  C 223.48 636  227 639.52  227 644  C 227 648.48  223.48 652  219 652  C 214.52 652  211 648.48  211 644  C 211 639.52  214.52 636  219 636  Z " fill-rule="nonzero" fill="#ffffff" stroke="none" />
    <path d="M 219 636.5  C 223.2 636.5  226.5 639.8  226.5 644  C 226.5 648.2  223.2 651.5  219 651.5  C 214.8 651.5  211.5 648.2  211.5 644  C 211.5 639.8  214.8 636.5  219 636.5  Z " stroke-width="1" stroke="#cccccc" fill="none" />
  </g>
</svg>