<?xml version="1.0" encoding="utf-8"?>
<svg version="1.1" xmlns:xlink="http://www.w3.org/1999/xlink" width="16px" height="16px" xmlns="http://www.w3.org/2000/svg">
  <g transform="matrix(1 0 0 1 -211 -636 )">
    <path d="M 219 640  C 221.24 640  223 641.76  223 644  C 223 646.24  221.24 648  219 648  C 216.76 648  215 646.24  215 644  C 215 641.76  216.76 640  219 640  Z " fill-rule="nonzero" fill="#ffffff" stroke="none" />
    <path d="M 219 638.5  C 222.08 638.5  224.5 640.92  224.5 644  C 224.5 647.08  222.08 649.5  219 649.5  C 215.92 649.5  213.5 647.08  213.5 644  C 213.5 640.92  215.92 638.5  219 638.5  Z " stroke-width="5" stroke="#2561ef" fill="none" />
  </g>
</svg>