<?xml version="1.0" encoding="utf-8"?>
<svg version="1.1" xmlns:xlink="http://www.w3.org/1999/xlink" width="16px" height="16px" xmlns="http://www.w3.org/2000/svg">
  <g transform="matrix(1 0 0 1 -211 -762 )">
    <path d="M 219 766  C 221.24 766  223 767.76  223 770  C 223 772.24  221.24 774  219 774  C 216.76 774  215 772.24  215 770  C 215 767.76  216.76 766  219 766  Z " fill-rule="nonzero" fill="#ffffff" stroke="none" />
    <path d="M 219 764.5  C 222.08 764.5  224.5 766.92  224.5 770  C 224.5 773.08  222.08 775.5  219 775.5  C 215.92 775.5  213.5 773.08  213.5 770  C 213.5 766.92  215.92 764.5  219 764.5  Z " stroke-width="5" stroke="#2561ef" fill="none" />
  </g>
</svg>