<?xml version="1.0" encoding="utf-8"?>
<svg version="1.1" xmlns:xlink="http://www.w3.org/1999/xlink" width="16px" height="16px" xmlns="http://www.w3.org/2000/svg">
  <g transform="matrix(1 0 0 1 -211 -762 )">
    <path d="M 219 762  C 223.48 762  227 765.52  227 770  C 227 774.48  223.48 778  219 778  C 214.52 778  211 774.48  211 770  C 211 765.52  214.52 762  219 762  Z " fill-rule="nonzero" fill="#ffffff" stroke="none" />
    <path d="M 219 762.5  C 223.2 762.5  226.5 765.8  226.5 770  C 226.5 774.2  223.2 777.5  219 777.5  C 214.8 777.5  211.5 774.2  211.5 770  C 211.5 765.8  214.8 762.5  219 762.5  Z " stroke-width="1" stroke="#cccccc" fill="none" />
  </g>
</svg>