<?xml version="1.0" encoding="utf-8"?>
<svg version="1.1" xmlns:xlink="http://www.w3.org/1999/xlink" width="23px" height="19px" xmlns="http://www.w3.org/2000/svg">
  <g transform="matrix(1 0 0 1 -39 -253 )">
    <path d="M 21.2962962962963 1.0555555555555316  L 21.2962962962963 4.222222222222234  L 22 4.222222222222234  L 22 14.777777777777766  L 21.2962962962963 14.777777777777766  L 21.2962962962963 17.944444444444468  C 21.2962962962963 18.527411680376968  20.819562465097576 19  20.231481481481456 19  L 1.0648148148147907 19  C 0.47673383119867196 19  0 18.527411680376968  0 17.944444444444468  L 0 1.0555555555555316  C 0 0.4725883196230313  0.47673383119867196 0  1.0648148148147907 0  L 20.231481481481456 0  C 20.819562465097576 0  21.2962962962963 0.4725883196230313  21.2962962962963 1.0555555555555316  Z M 19.166666666666668 16.888888888888882  L 19.166666666666668 14.777777777777766  L 12.77777777777776 14.777777777777766  C 9.837372859697167 14.777777777777766  7.453703703703697 12.414836179662501  7.453703703703697 9.5  C 7.453703703703697 6.585163820337499  9.837372859697167 4.222222222222234  12.77777777777776 4.222222222222234  L 19.166666666666668 4.222222222222234  L 19.166666666666668 2.111111111111117  L 2.1296296296296355 2.111111111111117  L 2.1296296296296355 16.888888888888882  L 19.166666666666668 16.888888888888882  Z M 12.77777777777776 12.666666666666648  L 20.231481481481456 12.666666666666648  L 20.231481481481456 6.333333333333351  L 12.77777777777776 6.333333333333351  C 11.013534826929403 6.333333333333351  9.583333333333334 7.751098292202499  9.583333333333334 9.5  C 9.583333333333334 11.2489017077975  11.013534826929403 12.666666666666648  12.77777777777776 12.666666666666648  Z M 12.77777777777776 10.55555555555553  L 12.77777777777776 8.444444444444468  L 15.972222222222186 8.444444444444468  L 15.972222222222186 10.55555555555553  L 12.77777777777776 10.55555555555553  Z " fill-rule="nonzero" fill="#333333" stroke="none" transform="matrix(1 0 0 1 39 253 )" />
  </g>
</svg>