<?xml version="1.0" encoding="utf-8"?>
<svg version="1.1" xmlns:xlink="http://www.w3.org/1999/xlink" width="355px" height="70px" xmlns="http://www.w3.org/2000/svg">
  <defs>
    <filter x="15px" y="316px" width="355px" height="70px" filterUnits="userSpaceOnUse" id="filter282">
      <feOffset dx="5" dy="0" in="SourceAlpha" result="shadowOffsetInner" />
      <feGaussianBlur stdDeviation="5" in="shadowOffsetInner" result="shadowGaussian" />
      <feComposite in2="shadowGaussian" operator="atop" in="SourceAlpha" result="shadowComposite" />
      <feColorMatrix type="matrix" values="0 0 0 0 0.9490196078431372  0 0 0 0 0.9490196078431372  0 0 0 0 0.9490196078431372  0 0 0 0.9882352941176471 0  " in="shadowComposite" />
    </filter>
    <g id="widget283">
      <path d="M 21 338  A 11 11 0 0 1 32 327 L 343 327  A 11 11 0 0 1 354 338 L 354 364  A 11 11 0 0 1 343 375 L 32 375  A 11 11 0 0 1 21 364 L 21 338  Z " fill-rule="nonzero" fill="#ffffff" stroke="none" />
      <path d="M 20.5 338  A 11.5 11.5 0 0 1 32 326.5 L 343 326.5  A 11.5 11.5 0 0 1 354.5 338 L 354.5 364  A 11.5 11.5 0 0 1 343 375.5 L 32 375.5  A 11.5 11.5 0 0 1 20.5 364 L 20.5 338  Z " stroke-width="1" stroke="#f2f2f2" fill="none" stroke-opacity="0.9882352941176471" />
    </g>
  </defs>
  <g transform="matrix(1 0 0 1 -15 -316 )">
    <use xlink:href="#widget283" filter="url(#filter282)" />
    <use xlink:href="#widget283" />
  </g>
</svg>