<?xml version="1.0" encoding="utf-8"?>
<svg version="1.1" xmlns:xlink="http://www.w3.org/1999/xlink" width="17px" height="19px" xmlns="http://www.w3.org/2000/svg">
  <g transform="matrix(1 0 0 1 -37 -344 )">
    <path d="M 0.3721111111111112 17.9778  C 2.017333333333333 15.745300000000002  5.041444444444444 14.25  8.5 14.25  C 11.958555555555556 14.25  14.983611111111113 15.74625  16.628833333333333 17.97875  L 14.889166666666666 18.8062  C 13.549944444444446 17.2102  11.188833333333333 16.15  8.5 16.15  C 5.811166666666668 16.15  3.450055555555555 17.2102  2.110833333333334 18.8062  L 0.3721111111111112 17.9778  Z M 8.295055555555557 0.004750000000000109  L 8.5 0  C 11.108011318645413 0  13.222222222222223 2.1266474383037313  13.222222222222223 4.75  L 13.222222222222223 7.599999999999998  C 13.222076152486128 10.143071741334388  11.230762295184412 12.234880690486374  8.704944444444443 12.34525  L 8.5 12.349999999999996  C 5.891988681354587 12.349999999999996  3.7777777777777772 10.223352561696267  3.7777777777777777 7.6000000000000005  L 3.7777777777777772 4.749999999999999  C 3.7779238475138737 2.2069282586656103  5.769237704815584 0.11511930951362633  8.295055555555557 0.004750000000000109  Z M 11.333333333333332 4.749999999999999  C 11.333333333333332 3.1759884629822377  10.064806791187246 1.9000000000000001  8.5 1.9000000000000001  C 6.99969559020711 1.8999159333035023  5.759406745405508 3.076269550724836  5.671388888888888 4.5828  L 5.666666666666666 4.75  L 5.666666666666666 7.6000000000000005  C 5.666665789480459 7.600915548025572  5.666665350887279 7.601831096424265  5.666665350887279 7.602746644875014  C 5.666665350887279 9.176758181892774  6.935191893033365 10.452746644875013  8.499998684220612 10.452746644875013  C 10.001297814163266 10.452746644875013  11.241981750070657 9.274814118753293  11.328611111111112 7.7672  L 11.333333333333332 7.6000000000000005  L 11.333333333333332 4.749999999999999  Z " fill-rule="nonzero" fill="#333333" stroke="none" transform="matrix(1 0 0 1 37 344 )" />
  </g>
</svg>