<?xml version="1.0" encoding="utf-8"?>
<svg version="1.1" xmlns:xlink="http://www.w3.org/1999/xlink" width="355px" height="70px" xmlns="http://www.w3.org/2000/svg">
  <defs>
    <filter x="15px" y="316px" width="355px" height="70px" filterUnits="userSpaceOnUse" id="filter409">
      <feOffset dx="5" dy="0" in="SourceAlpha" result="shadowOffsetInner" />
      <feGaussianBlur stdDeviation="5" in="shadowOffsetInner" result="shadowGaussian" />
      <feComposite in2="shadowGaussian" operator="atop" in="SourceAlpha" result="shadowComposite" />
      <feColorMatrix type="matrix" values="0 0 0 0 0.9490196078431372  0 0 0 0 0.9490196078431372  0 0 0 0 0.9490196078431372  0 0 0 0.9882352941176471 0  " in="shadowComposite" />
    </filter>
    <g id="widget410">
      <path d="M 22 338  A 10 10 0 0 1 32 328 L 343 328  A 10 10 0 0 1 353 338 L 353 364  A 10 10 0 0 1 343 374 L 32 374  A 10 10 0 0 1 22 364 L 22 338  Z " fill-rule="nonzero" fill="#ffffff" stroke="none" />
      <path d="M 21 338  A 11 11 0 0 1 32 327 L 343 327  A 11 11 0 0 1 354 338 L 354 364  A 11 11 0 0 1 343 375 L 32 375  A 11 11 0 0 1 21 364 L 21 338  Z " stroke-width="2" stroke="#f68c95" fill="none" stroke-opacity="0.996078431372549" />
    </g>
  </defs>
  <g transform="matrix(1 0 0 1 -15 -316 )">
    <use xlink:href="#widget410" filter="url(#filter409)" />
    <use xlink:href="#widget410" />
  </g>
</svg>