<?xml version="1.0" encoding="utf-8"?>
<svg version="1.1" xmlns:xlink="http://www.w3.org/1999/xlink" width="33px" height="30px" xmlns="http://www.w3.org/2000/svg">
  <g transform="matrix(1 0 0 1 -35 -380 )">
    <path d="M 51.5 380  C 60.74 380  68 386.6  68 395  C 68 403.4  60.74 410  51.5 410  C 42.26 410  35 403.4  35 395  C 35 386.6  42.26 380  51.5 380  Z " fill-rule="nonzero" fill="#ffffff" stroke="none" />
    <path d="M 51.5 380.5  C 60.46 380.5  67.5 386.88  67.5 395  C 67.5 403.12  60.46 409.5  51.5 409.5  C 42.54 409.5  35.5 403.12  35.5 395  C 35.5 386.88  42.54 380.5  51.5 380.5  Z " stroke-width="1" stroke="#797979" fill="none" />
  </g>
</svg>