<?xml version="1.0" encoding="utf-8"?>
<svg version="1.1" xmlns:xlink="http://www.w3.org/1999/xlink" width="33px" height="30px" xmlns="http://www.w3.org/2000/svg">
  <g transform="matrix(1 0 0 1 -35 -446 )">
    <path d="M 51.5 446  C 60.74 446  68 452.6  68 461  C 68 469.4  60.74 476  51.5 476  C 42.26 476  35 469.4  35 461  C 35 452.6  42.26 446  51.5 446  Z " fill-rule="nonzero" fill="#ffffff" stroke="none" />
    <path d="M 51.5 446.5  C 60.46 446.5  67.5 452.88  67.5 461  C 67.5 469.12  60.46 475.5  51.5 475.5  C 42.54 475.5  35.5 469.12  35.5 461  C 35.5 452.88  42.54 446.5  51.5 446.5  Z " stroke-width="1" stroke="#797979" fill="none" />
  </g>
</svg>