<?xml version="1.0" encoding="utf-8"?>
<svg version="1.1" xmlns:xlink="http://www.w3.org/1999/xlink" width="1190px" height="240px" xmlns="http://www.w3.org/2000/svg">
  <defs>
    <filter x="15px" y="689px" width="1190px" height="240px" filterUnits="userSpaceOnUse" id="filter68">
      <feOffset dx="0" dy="0" in="SourceAlpha" result="shadowOffsetInner" />
      <feGaussianBlur stdDeviation="2.5" in="shadowOffsetInner" result="shadowGaussian" />
      <feComposite in2="shadowGaussian" operator="atop" in="SourceAlpha" result="shadowComposite" />
      <feColorMatrix type="matrix" values="0 0 0 0 0.8941176470588235  0 0 0 0 0.8941176470588235  0 0 0 0 0.8941176470588235  0 0 0 1 0  " in="shadowComposite" />
    </filter>
    <g id="widget69">
      <path d="M 21 706  A 11 11 0 0 1 32 695 L 1188 695  A 11 11 0 0 1 1199 706 L 1199 912  A 11 11 0 0 1 1188 923 L 32 923  A 11 11 0 0 1 21 912 L 21 706  Z " fill-rule="nonzero" fill="#ffffff" stroke="none" />
      <path d="M 20.5 706  A 11.5 11.5 0 0 1 32 694.5 L 1188 694.5  A 11.5 11.5 0 0 1 1199.5 706 L 1199.5 912  A 11.5 11.5 0 0 1 1188 923.5 L 32 923.5  A 11.5 11.5 0 0 1 20.5 912 L 20.5 706  Z " stroke-width="1" stroke="#f2f2f2" fill="none" stroke-opacity="0.9882352941176471" />
    </g>
  </defs>
  <g transform="matrix(1 0 0 1 -15 -689 )">
    <use xlink:href="#widget69" filter="url(#filter68)" />
    <use xlink:href="#widget69" />
  </g>
</svg>