<?xml version="1.0" encoding="utf-8"?>
<svg version="1.1" xmlns:xlink="http://www.w3.org/1999/xlink" width="148px" height="141px" xmlns="http://www.w3.org/2000/svg">
  <g transform="matrix(1 0 0 1 -562 -772 )">
    <path d="M 636 772  C 677.44 772  710 803.02  710 842.5  C 710 881.98  677.44 913  636 913  C 594.56 913  562 881.98  562 842.5  C 562 803.02  594.56 772  636 772  Z " fill-rule="nonzero" fill="#ffffff" stroke="none" />
    <path d="M 636 772.5  C 677.16 772.5  709.5 803.3  709.5 842.5  C 709.5 881.7  677.16 912.5  636 912.5  C 594.84 912.5  562.5 881.7  562.5 842.5  C 562.5 803.3  594.84 772.5  636 772.5  Z " stroke-width="1" stroke="#797979" fill="none" />
  </g>
</svg>