<?xml version="1.0" encoding="utf-8"?>
<svg version="1.1" xmlns:xlink="http://www.w3.org/1999/xlink" width="80px" height="32px" xmlns="http://www.w3.org/2000/svg">
  <g transform="matrix(1 0 0 1 -255 -692 )">
    <path d="M 256 708  A 15 15 0 0 1 271 693 L 319 693  A 15 15 0 0 1 334 708 A 15 15 0 0 1 319 723 L 271 723  A 15 15 0 0 1 256 708 Z " fill-rule="nonzero" fill="#f68c95" stroke="none" fill-opacity="0" />
    <path d="M 255.5 708  A 15.5 15.5 0 0 1 271 692.5 L 319 692.5  A 15.5 15.5 0 0 1 334.5 708 A 15.5 15.5 0 0 1 319 723.5 L 271 723.5  A 15.5 15.5 0 0 1 255.5 708 Z " stroke-width="1" stroke="#d7d7d7" fill="none" stroke-opacity="0.9882352941176471" />
  </g>
</svg>