<?xml version="1.0" encoding="utf-8"?>
<svg version="1.1" xmlns:xlink="http://www.w3.org/1999/xlink" width="75px" height="75px" xmlns="http://www.w3.org/2000/svg">
  <g transform="matrix(1 0 0 1 -1646 -361 )">
    <path d="M 1683.5 361  C 1704.5 361  1721 377.5  1721 398.5  C 1721 419.5  1704.5 436  1683.5 436  C 1662.5 436  1646 419.5  1646 398.5  C 1646 377.5  1662.5 361  1683.5 361  Z " fill-rule="nonzero" fill="#ffffff" stroke="none" />
    <path d="M 1683.5 361.5  C 1704.22 361.5  1720.5 377.78  1720.5 398.5  C 1720.5 419.22  1704.22 435.5  1683.5 435.5  C 1662.78 435.5  1646.5 419.22  1646.5 398.5  C 1646.5 377.78  1662.78 361.5  1683.5 361.5  Z " stroke-width="1" stroke="#797979" fill="none" />
  </g>
</svg>