<?xml version="1.0" encoding="utf-8"?>
<svg version="1.1" xmlns:xlink="http://www.w3.org/1999/xlink" width="135px" height="154px" xmlns="http://www.w3.org/2000/svg">
  <g transform="matrix(1 0 0 1 -1660 -527 )">
    <path d="M 1660 527  L 1795 527  L 1795 681  L 1660 681  L 1660 527  " fill-rule="nonzero" fill="#cccccc" stroke="none" />
    <path d="M 1669 536  L 1786 536  L 1786 672  L 1669 672  L 1669 536  " fill-rule="nonzero" fill="#ffffff" stroke="none" />
    <path d="M 1740.325 570.35  C 1734.655 570.35  1730.2 565.895  1730.2 560.225  C 1730.2 554.5550000000001  1734.655 550.1  1740.325 550.1  C 1745.9950000000001 550.1  1750.45 554.5550000000001  1750.45 560.225  C 1750.45 565.895  1745.9950000000001 570.35  1740.325 570.35  " fill-rule="nonzero" fill="#cccccc" stroke="none" />
    <path d="M 1673 669  L 1673 598.05  L 1700.5 565.8  L 1739 591.6  L 1761 585.15  L 1783 591.6  L 1783 669  L 1673 669  " fill-rule="nonzero" fill="#169bd5" stroke="none" />
  </g>
</svg>