<?xml version="1.0" encoding="utf-8"?>
<svg version="1.1" xmlns:xlink="http://www.w3.org/1999/xlink" width="71px" height="86px" xmlns="http://www.w3.org/2000/svg">
  <g transform="matrix(1 0 0 1 -1360 -741 )">
    <path d="M 1360 741  L 1431 741  L 1431 827  L 1360 827  L 1360 741  " fill-rule="nonzero" fill="#cccccc" stroke="none" />
    <path d="M 1365 746  L 1426 746  L 1426 822  L 1365 822  L 1365 746  " fill-rule="nonzero" fill="#ffffff" stroke="none" />
    <path d="M 1402.2450000000001 764.55  C 1399.2630000000001 764.55  1396.92 762.2069999999999  1396.92 759.2249999999999  C 1396.92 756.2429999999999  1399.2630000000001 753.9  1402.2450000000001 753.9  C 1405.227 753.9  1407.5700000000002 756.2429999999999  1407.5700000000002 759.2249999999999  C 1407.5700000000002 762.2069999999999  1405.227 764.55  1402.2450000000001 764.55  " fill-rule="nonzero" fill="#cccccc" stroke="none" />
    <path d="M 1367 820  L 1367 780.4  L 1381.25 762.4  L 1401.2 776.8  L 1412.6 773.2  L 1424 776.8  L 1424 820  L 1367 820  " fill-rule="nonzero" fill="#169bd5" stroke="none" />
  </g>
</svg>