<?xml version="1.0" encoding="utf-8"?>
<svg version="1.1" xmlns:xlink="http://www.w3.org/1999/xlink" width="375px" height="256px" xmlns="http://www.w3.org/2000/svg">
  <g transform="matrix(1 0 0 1 -1374 -20 )">
    <path d="M 1374 20  L 1749 20  L 1749 276  L 1374 276  L 1374 20  " fill-rule="nonzero" fill="#cccccc" stroke="none" />
    <path d="M 1392 38  L 1731 38  L 1731 258  L 1392 258  L 1392 38  " fill-rule="nonzero" fill="#ffffff" stroke="none" />
    <path d="M 1588.2 96.8  C 1577.448 96.8  1569 88.352  1569 77.6  C 1569 66.848  1577.448 58.4  1588.2 58.4  C 1598.952 58.4  1607.4 66.848  1607.4 77.6  C 1607.4 88.352  1598.952 96.8  1588.2 96.8  " fill-rule="nonzero" fill="#cccccc" stroke="none" />
    <path d="M 1399 252  L 1399 138.14999999999998  L 1480.5 86.39999999999998  L 1594.6 167.21280000000002  L 1659.8 117.44999999999999  L 1725 167.21280000000002  L 1725 252  L 1399 252  " fill-rule="nonzero" fill="#169bd5" stroke="none" />
  </g>
</svg>