<?xml version="1.0" encoding="utf-8"?>
<svg version="1.1" xmlns:xlink="http://www.w3.org/1999/xlink" width="161px" height="184px" xmlns="http://www.w3.org/2000/svg">
  <g transform="matrix(1 0 0 1 -1481 -497 )">
    <path d="M 1481 497  L 1642 497  L 1642 681  L 1481 681  L 1481 497  " fill-rule="nonzero" fill="#cccccc" stroke="none" />
    <path d="M 1492 508  L 1631 508  L 1631 670  L 1492 670  L 1492 508  " fill-rule="nonzero" fill="#ffffff" stroke="none" />
    <path d="M 1576.795 548.75  C 1570.0330000000001 548.75  1564.72 543.437  1564.72 536.675  C 1564.72 529.913  1570.0330000000001 524.6  1576.795 524.6  C 1583.557 524.6  1588.8700000000001 529.913  1588.8700000000001 536.675  C 1588.8700000000001 543.437  1583.557 548.75  1576.795 548.75  " fill-rule="nonzero" fill="#cccccc" stroke="none" />
    <path d="M 1496 666  L 1496 581.3  L 1528.75 542.8  L 1574.6 573.6  L 1600.8 565.9  L 1627 573.6  L 1627 666  L 1496 666  " fill-rule="nonzero" fill="#169bd5" stroke="none" />
  </g>
</svg>