<?xml version="1.0" encoding="utf-8"?>
<svg version="1.1" xmlns:xlink="http://www.w3.org/1999/xlink" width="300px" height="170px" xmlns="http://www.w3.org/2000/svg">
  <g transform="matrix(1 0 0 1 -1412 -958 )">
    <path d="M 1412 958  L 1712 958  L 1712 1128  L 1412 1128  L 1412 958  " fill-rule="nonzero" fill="#cccccc" stroke="none" />
    <path d="M 1424 970  L 1700 970  L 1700 1116  L 1424 1116  L 1424 970  " fill-rule="nonzero" fill="#ffffff" stroke="none" />
    <path d="M 1580.75 1009  C 1573.61 1009  1568 1003.39  1568 996.25  C 1568 989.11  1573.61 983.5  1580.75 983.5  C 1587.89 983.5  1593.5 989.11  1593.5 996.25  C 1593.5 1003.39  1587.89 1009  1580.75 1009  " fill-rule="nonzero" fill="#cccccc" stroke="none" />
    <path d="M 1429 1112  L 1429 1036.65  L 1495.75 1002.4  L 1589.2 1065.42  L 1642.6 1022.95  L 1696 1065.42  L 1696 1112  L 1429 1112  " fill-rule="nonzero" fill="#169bd5" stroke="none" />
  </g>
</svg>