<?xml version="1.0" encoding="utf-8"?>
<svg version="1.1" xmlns:xlink="http://www.w3.org/1999/xlink" width="64px" height="64px" xmlns="http://www.w3.org/2000/svg">
  <g transform="matrix(1 0 0 1 -1823 -444 )">
    <path d="M 1855 444  C 1872.92 444  1887 458.08  1887 476  C 1887 493.92  1872.92 508  1855 508  C 1837.08 508  1823 493.92  1823 476  C 1823 458.08  1837.08 444  1855 444  Z " fill-rule="nonzero" fill="#ffffff" stroke="none" />
    <path d="M 1855 444.5  C 1872.64 444.5  1886.5 458.36  1886.5 476  C 1886.5 493.64  1872.64 507.5  1855 507.5  C 1837.36 507.5  1823.5 493.64  1823.5 476  C 1823.5 458.36  1837.36 444.5  1855 444.5  Z " stroke-width="1" stroke="#797979" fill="none" />
  </g>
</svg>