<?xml version="1.0" encoding="utf-8"?>
<svg version="1.1" xmlns:xlink="http://www.w3.org/1999/xlink" width="15px" height="18px" xmlns="http://www.w3.org/2000/svg">
  <g transform="matrix(1 0 0 1 -196 -244 )">
    <path d="M 203.5 244  C 207.7 244  211 247.96  211 253  C 211 258.04  207.7 262  203.5 262  C 199.3 262  196 258.04  196 253  C 196 247.96  199.3 244  203.5 244  Z " fill-rule="nonzero" fill="#ffffff" stroke="none" />
    <path d="M 203.5 244.5  C 207.42 244.5  210.5 248.24  210.5 253  C 210.5 257.76  207.42 261.5  203.5 261.5  C 199.58 261.5  196.5 257.76  196.5 253  C 196.5 248.24  199.58 244.5  203.5 244.5  Z " stroke-width="1" stroke="#797979" fill="none" />
  </g>
</svg>