<?xml version="1.0" encoding="utf-8"?>
<svg version="1.1" xmlns:xlink="http://www.w3.org/1999/xlink" width="333px" height="159px" xmlns="http://www.w3.org/2000/svg">
  <g transform="matrix(1 0 0 1 -21 -74 )">
    <path d="M 21 74  L 354 74  L 354 233  L 21 233  L 21 74  " fill-rule="nonzero" fill="#cccccc" stroke="none" />
    <path d="M 32 85  L 343 85  L 343 222  L 32 222  L 32 85  " fill-rule="nonzero" fill="#ffffff" stroke="none" />
    <path d="M 206.08499999999998 121.69999999999999  C 199.40699999999998 121.69999999999999  194.16 116.45299999999999  194.16 109.77499999999999  C 194.16 103.097  199.40699999999998 97.85  206.08499999999998 97.85  C 212.76299999999998 97.85  218.01 103.097  218.01 109.77499999999999  C 218.01 116.45299999999999  212.76299999999998 121.69999999999999  206.08499999999998 121.69999999999999  " fill-rule="nonzero" fill="#cccccc" stroke="none" />
    <path d="M 36 218  L 36 147.05  L 111.75 114.8  L 217.79999999999998 181.04324324324324  L 278.4 134.14999999999998  L 339 181.04324324324324  L 339 218  L 36 218  " fill-rule="nonzero" fill="#169bd5" stroke="none" />
  </g>
</svg>