<?xml version="1.0" encoding="utf-8"?>
<svg version="1.1" xmlns:xlink="http://www.w3.org/1999/xlink" width="15px" height="18px" xmlns="http://www.w3.org/2000/svg">
  <g transform="matrix(1 0 0 1 -165 -244 )">
    <path d="M 172.5 244  C 176.7 244  180 247.96  180 253  C 180 258.04  176.7 262  172.5 262  C 168.3 262  165 258.04  165 253  C 165 247.96  168.3 244  172.5 244  Z " fill-rule="nonzero" fill="#d7d7d7" stroke="none" />
    <path d="M 172.5 244.5  C 176.42 244.5  179.5 248.24  179.5 253  C 179.5 257.76  176.42 261.5  172.5 261.5  C 168.58 261.5  165.5 257.76  165.5 253  C 165.5 248.24  168.58 244.5  172.5 244.5  Z " stroke-width="1" stroke="#797979" fill="none" />
  </g>
</svg>