<?xml version="1.0" encoding="utf-8"?>
<svg version="1.1" xmlns:xlink="http://www.w3.org/1999/xlink" width="1190px" height="181px" xmlns="http://www.w3.org/2000/svg">
  <defs>
    <filter x="15px" y="26px" width="1190px" height="181px" filterUnits="userSpaceOnUse" id="filter42">
      <feOffset dx="0" dy="0" in="SourceAlpha" result="shadowOffsetInner" />
      <feGaussianBlur stdDeviation="2.5" in="shadowOffsetInner" result="shadowGaussian" />
      <feComposite in2="shadowGaussian" operator="atop" in="SourceAlpha" result="shadowComposite" />
      <feColorMatrix type="matrix" values="0 0 0 0 0.8941176470588235  0 0 0 0 0.8941176470588235  0 0 0 0 0.8941176470588235  0 0 0 1 0  " in="shadowComposite" />
    </filter>
    <g id="widget43">
      <path d="M 21 43  A 11 11 0 0 1 32 32 L 1188 32  A 11 11 0 0 1 1199 43 L 1199 190  A 11 11 0 0 1 1188 201 L 32 201  A 11 11 0 0 1 21 190 L 21 43  Z " fill-rule="nonzero" fill="#ffffff" stroke="none" />
      <path d="M 20.5 43  A 11.5 11.5 0 0 1 32 31.5 L 1188 31.5  A 11.5 11.5 0 0 1 1199.5 43 L 1199.5 190  A 11.5 11.5 0 0 1 1188 201.5 L 32 201.5  A 11.5 11.5 0 0 1 20.5 190 L 20.5 43  Z " stroke-width="1" stroke="#f2f2f2" fill="none" stroke-opacity="0.9882352941176471" />
    </g>
  </defs>
  <g transform="matrix(1 0 0 1 -15 -26 )">
    <use xlink:href="#widget43" filter="url(#filter42)" />
    <use xlink:href="#widget43" />
  </g>
</svg>