<?xml version="1.0" encoding="utf-8"?>
<svg version="1.1" xmlns:xlink="http://www.w3.org/1999/xlink" width="1190px" height="780px" xmlns="http://www.w3.org/2000/svg">
  <defs>
    <filter x="15px" y="203px" width="1190px" height="780px" filterUnits="userSpaceOnUse" id="filter173">
      <feOffset dx="0" dy="0" in="SourceAlpha" result="shadowOffsetInner" />
      <feGaussianBlur stdDeviation="2.5" in="shadowOffsetInner" result="shadowGaussian" />
      <feComposite in2="shadowGaussian" operator="atop" in="SourceAlpha" result="shadowComposite" />
      <feColorMatrix type="matrix" values="0 0 0 0 0.8941176470588235  0 0 0 0 0.8941176470588235  0 0 0 0 0.8941176470588235  0 0 0 1 0  " in="shadowComposite" />
    </filter>
    <g id="widget174">
      <path d="M 21 220  A 11 11 0 0 1 32 209 L 1188 209  A 11 11 0 0 1 1199 220 L 1199 966  A 11 11 0 0 1 1188 977 L 32 977  A 11 11 0 0 1 21 966 L 21 220  Z " fill-rule="nonzero" fill="#ffffff" stroke="none" />
      <path d="M 20.5 220  A 11.5 11.5 0 0 1 32 208.5 L 1188 208.5  A 11.5 11.5 0 0 1 1199.5 220 L 1199.5 966  A 11.5 11.5 0 0 1 1188 977.5 L 32 977.5  A 11.5 11.5 0 0 1 20.5 966 L 20.5 220  Z " stroke-width="1" stroke="#f2f2f2" fill="none" stroke-opacity="0.9882352941176471" />
    </g>
  </defs>
  <g transform="matrix(1 0 0 1 -15 -203 )">
    <use xlink:href="#widget174" filter="url(#filter173)" />
    <use xlink:href="#widget174" />
  </g>
</svg>