<?xml version="1.0" encoding="utf-8"?>
<svg version="1.1" xmlns:xlink="http://www.w3.org/1999/xlink" width="5px" height="9px" xmlns="http://www.w3.org/2000/svg">
  <g transform="matrix(1 0 0 1 -156 -62 )">
    <path d="M 0.1603665521191715 4.292585170340658  C 0.10396056787817542 4.352705410821613  0.07575757575762054 4.42184368737469  0.07575757575762054 4.5  C 0.07575757575762054 4.57815631262531  0.10396056787817542 4.647294589178387  0.1603665521191715 4.707414829659342  L 4.10314485056756 8.909819639278624  C 4.159550834808556 8.969939879759579  4.224417716685821 9  4.297745496199127 9  C 4.371073275712433 9  4.435940157589698 8.969939879759579  4.492346141830694 8.909819639278624  L 4.915391023638449 8.458917835671286  C 4.971797007879445 8.398797595190445  5 8.329659318637255  5 8.251503006012058  C 5 8.173346693386804  4.971797007879445 8.104208416833728  4.915391023638449 8.044088176352716  L 1.5902582526293827 4.5  L 4.915391023638449 0.9559118236472841  C 4.971797007879445 0.8957915831662717  5 0.8266533066131956  5 0.748496993987942  C 5 0.6703406813627453  4.971797007879445 0.6012024048095554  4.915391023638449 0.5410821643287136  L 4.492346141830694 0.09018036072137647  C 4.435940157589698 0.03006012024042093  4.371073275712433 0  4.297745496199127 0  C 4.224417716685821 0  4.159550834808556 0.03006012024042093  4.10314485056756 0.09018036072137647  L 0.1603665521191715 4.292585170340658  Z " fill-rule="nonzero" fill="#333333" stroke="none" transform="matrix(1 0 0 1 156 62 )" />
  </g>
</svg>