<?xml version="1.0" encoding="utf-8"?>
<svg version="1.1" xmlns:xlink="http://www.w3.org/1999/xlink" width="5px" height="9px" xmlns="http://www.w3.org/2000/svg">
  <g transform="matrix(1 0 0 1 -298 -62 )">
    <path d="M 4.8396334478808285 4.292585170340658  C 4.896039432121825 4.352705410821613  4.9242424242423795 4.42184368737469  4.9242424242423795 4.5  C 4.9242424242423795 4.57815631262531  4.896039432121825 4.647294589178387  4.8396334478808285 4.707414829659342  L 0.8968551494324402 8.909819639278624  C 0.8404491651914441 8.969939879759579  0.7755822833141792 9  0.702254503800873 9  C 0.6289267242875667 9  0.5640598424103018 8.969939879759579  0.5076538581693057 8.909819639278624  L 0.08460897636155096 8.458917835671286  C 0.02820299212055488 8.398797595190445  0 8.329659318637255  0 8.251503006012058  C 0 8.173346693386804  0.02820299212055488 8.104208416833728  0.08460897636155096 8.044088176352716  L 3.4097417473706173 4.5  L 0.08460897636155096 0.9559118236472841  C 0.02820299212055488 0.8957915831662717  0 0.8266533066131956  0 0.748496993987942  C 0 0.6703406813627453  0.02820299212055488 0.6012024048095554  0.08460897636155096 0.5410821643287136  L 0.5076538581693057 0.09018036072137647  C 0.5640598424103018 0.03006012024042093  0.6289267242875667 0  0.702254503800873 0  C 0.7755822833141792 0  0.8404491651914441 0.03006012024042093  0.8968551494324402 0.09018036072137647  L 4.8396334478808285 4.292585170340658  Z " fill-rule="nonzero" fill="#333333" stroke="none" transform="matrix(1 0 0 1 298 62 )" />
  </g>
</svg>