<?xml version="1.0" encoding="utf-8"?>
<svg version="1.1" xmlns:xlink="http://www.w3.org/1999/xlink" width="16px" height="18px" xmlns="http://www.w3.org/2000/svg">
  <g>
    <path d="M 1.2307692307692832 13.354037267080741  L 1.2307692307692832 16.14906832298138  L 4 16.14906832298138  L 4 13.354037267080741  L 1.2307692307692832 13.354037267080741  Z M 4.615384615384528 13.354037267080741  L 4.615384615384528 16.14906832298138  L 7.692307692307736 16.14906832298138  L 7.692307692307736 13.354037267080741  L 4.615384615384528 13.354037267080741  Z M 1.2307692307692832 9.627329192546568  L 1.2307692307692832 12.732919254658384  L 4 12.732919254658384  L 4 9.627329192546568  L 1.2307692307692832 9.627329192546568  Z M 4.615384615384528 9.627329192546568  L 4.615384615384528 12.732919254658384  L 7.692307692307736 12.732919254658384  L 7.692307692307736 9.627329192546568  L 4.615384615384528 9.627329192546568  Z M 1.2307692307692832 6.211180124223603  L 1.2307692307692832 9.00621118012424  L 4 9.00621118012424  L 4 6.211180124223603  L 1.2307692307692832 6.211180124223603  Z M 8.307692307692264 13.354037267080741  L 8.307692307692264 16.14906832298138  L 11.384615384615472 16.14906832298138  L 11.384615384615472 13.354037267080741  L 8.307692307692264 13.354037267080741  Z M 4.615384615384528 6.211180124223603  L 4.615384615384528 9.00621118012424  L 7.692307692307736 9.00621118012424  L 7.692307692307736 6.211180124223603  L 4.615384615384528 6.211180124223603  Z M 12 13.354037267080741  L 12 16.14906832298138  L 14.769230769230717 16.14906832298138  L 14.769230769230717 13.354037267080741  L 12 13.354037267080741  Z M 8.307692307692264 9.627329192546568  L 8.307692307692264 12.732919254658384  L 11.384615384615472 12.732919254658384  L 11.384615384615472 9.627329192546568  L 8.307692307692264 9.627329192546568  Z M 4.831730769230717 4.566187888198755  C 4.892628205128176 4.5047230848861375  4.923076923076906 4.431935817805368  4.923076923076906 4.34782608695653  L 4.923076923076906 1.5527950310558936  C 4.923076923076906 1.468685300207028  4.892628205128176 1.3958980331262865  4.831730769230717 1.3344332298136692  C 4.7708333333332575 1.2729684265010235  4.698717948718013 1.2422360248447148  4.615384615384528 1.2422360248447148  L 4 1.2422360248447148  C 3.9166666666667425 1.2422360248447148  3.8445512820512704 1.2729684265010235  3.783653846153811 1.3344332298136692  C 3.7227564102564656 1.3958980331262865  3.692307692307736 1.468685300207028  3.692307692307736 1.5527950310558936  L 3.692307692307736 4.34782608695653  C 3.692307692307736 4.431935817805368  3.7227564102564656 4.5047230848861375  3.783653846153811 4.566187888198755  C 3.8445512820512704 4.6276526915114005  3.9166666666667425 4.658385093167709  4 4.658385093167709  L 4.615384615384528 4.658385093167709  C 4.698717948718013 4.658385093167709  4.7708333333332575 4.6276526915114005  4.831730769230717 4.566187888198755  Z M 12 9.627329192546568  L 12 12.732919254658384  L 14.769230769230717 12.732919254658384  L 14.769230769230717 9.627329192546568  L 12 9.627329192546568  Z M 8.307692307692264 6.211180124223603  L 8.307692307692264 9.00621118012424  L 11.384615384615472 9.00621118012424  L 11.384615384615472 6.211180124223603  L 8.307692307692264 6.211180124223603  Z M 12 6.211180124223603  L 12 9.00621118012424  L 14.769230769230717 9.00621118012424  L 14.769230769230717 6.211180124223603  L 12 6.211180124223603  Z M 12.216346153846189 4.566187888198755  C 12.277243589743534 4.5047230848861375  12.307692307692264 4.431935817805368  12.307692307692264 4.34782608695653  L 12.307692307692264 1.5527950310558936  C 12.307692307692264 1.468685300207028  12.277243589743534 1.3958980331262865  12.216346153846189 1.3344332298136692  C 12.15544871794873 1.2729684265010235  12.083333333333258 1.2422360248447148  12 1.2422360248447148  L 11.384615384615472 1.2422360248447148  C 11.301282051281987 1.2422360248447148  11.229166666666742 1.2729684265010235  11.168269230769283 1.3344332298136692  C 11.107371794871824 1.3958980331262865  11.076923076923094 1.468685300207028  11.076923076923094 1.5527950310558936  L 11.076923076923094 4.34782608695653  C 11.076923076923094 4.431935817805368  11.107371794871824 4.5047230848861375  11.168269230769283 4.566187888198755  C 11.229166666666742 4.6276526915114005  11.301282051281987 4.658385093167709  11.384615384615472 4.658385093167709  L 12 4.658385093167709  C 12.083333333333258 4.658385093167709  12.15544871794873 4.6276526915114005  12.216346153846189 4.566187888198755  Z M 15.634615384615472 2.8532608695652186  C 15.878205128205195 3.0991200828157446  16 3.390269151138739  16 3.726708074534173  L 16 16.14906832298138  C 16 16.485507246376784  15.878205128205195 16.776656314699807  15.634615384615472 17.022515527950333  C 15.391025641025635 17.26837474120083  15.102564102564088 17.391304347826093  14.769230769230717 17.391304347826093  L 1.2307692307692832 17.391304347826093  C 0.897435897435912 17.391304347826093  0.6089743589743648 17.26837474120083  0.36538461538452793 17.022515527950333  C 0.12179487179480475 16.776656314699807  0 16.485507246376784  0 16.14906832298138  L 0 3.726708074534173  C 0 3.390269151138739  0.12179487179480475 3.0991200828157446  0.36538461538452793 2.8532608695652186  C 0.6089743589743648 2.607401656314721  0.897435897435912 2.484472049689458  1.2307692307692832 2.484472049689458  L 2.461538461538453 2.484472049689458  L 2.461538461538453 1.5527950310558936  C 2.461538461538453 1.1257763975155228  2.6121794871794464 0.7602225672877978  2.913461538461547 0.45613354037266163  C 3.2147435897435344 0.15204451345755388  3.5769230769230944 0  4 0  L 4.615384615384528 0  C 5.038461538461547 0  5.400641025640994 0.15204451345755388  5.701923076923094 0.45613354037266163  C 6.003205128205195 0.7602225672877978  6.153846153846189 1.1257763975155228  6.153846153846189 1.5527950310558936  L 6.153846153846189 2.484472049689458  L 9.846153846153811 2.484472049689458  L 9.846153846153811 1.5527950310558936  C 9.846153846153811 1.1257763975155228  9.996794871794918 0.7602225672877978  10.298076923076906 0.45613354037266163  C 10.599358974359006 0.15204451345755388  10.961538461538453 0  11.384615384615472 0  L 12 0  C 12.423076923076906 0  12.785256410256466 0.15204451345755388  13.086538461538453 0.45613354037266163  C 13.387820512820554 0.7602225672877978  13.538461538461547 1.1257763975155228  13.538461538461547 1.5527950310558936  L 13.538461538461547 2.484472049689458  L 14.769230769230717 2.484472049689458  C 15.102564102564088 2.484472049689458  15.391025641025635 2.607401656314721  15.634615384615472 2.8532608695652186  Z " fill-rule="nonzero" fill="#cccccc" stroke="none" />
  </g>
</svg>