<?xml version="1.0" encoding="utf-8"?>
<svg version="1.1" xmlns:xlink="http://www.w3.org/1999/xlink" width="16px" height="16px" xmlns="http://www.w3.org/2000/svg">
  <g>
    <path d="M 12.468749999999986 9.135416666666657  C 12.600694444444397 9.003472222222207  12.666666666666641 8.847222222222227  12.666666666666634 8.666666666666652  L 12.666666666666632 7.333333333333342  C 12.666666666666632 7.152777777777757  12.600694444444432 6.996527777777764  12.468749999999977 6.864583333333323  C 12.336805555555546 6.732638888888893  12.18055555555553 6.666666666666648  11.999999999999979 6.66666666666665  L 9.333333333333304 6.666666666666642  L 9.333333333333327 3.9999999999999982  C 9.333333333333318 3.819444444444454  9.267361111111086 3.663194444444431  9.135416666666663 3.5312499999999907  C 9.003472222222214 3.3993055555555416  8.847222222222197 3.3333333333333335  8.666666666666647 3.3333333333333357  L 7.333333333333297 3.333333333333343  C 7.152777777777773 3.3333333333333517  6.996527777777738 3.399305555555541  6.864583333333298 3.5312499999999805  C 6.732638888888885 3.663194444444467  6.666666666666643 3.8194444444444464  6.666666666666654 3.9999999999999876  L 6.666666666666644 6.666666666666651  L 3.9999999999999867 6.66666666666666  C 3.819444444444419 6.666666666666642  3.6631944444444278 6.732638888888858  3.5312500000000053 6.864583333333352  C 3.399305555555557 6.996527777777764  3.333333333333332 7.152777777777764  3.3333333333333437 7.333333333333342  L 3.333333333333325 8.666666666666632  C 3.333333333333325 8.847222222222218  3.399305555555567 9.003472222222236  3.531250000000008 9.135416666666657  C 3.66319444444444 9.26736111111109  3.8194444444444455 9.33333333333334  3.9999999999999956 9.33333333333334  L 6.666666666666654 9.33333333333333  L 6.6666666666666465 11.999999999999993  C 6.666666666666657 12.180555555555536  6.73263888888888 12.336805555555534  6.86458333333332 12.468749999999995  C 6.99652777777775 12.600694444444425  7.152777777777761 12.66666666666664  7.333333333333327 12.666666666666655  L 8.666666666666652 12.666666666666638  C 8.847222222222213 12.666666666666627  9.003472222222202 12.600694444444413  9.135416666666641 12.468749999999973  C 9.26736111111109 12.336805555555525  9.333333333333295 12.180555555555506  9.333333333333306 11.999999999999984  L 9.33333333333333 9.333333333333341  L 11.999999999999988 9.33333333333333  C 12.18055555555552 9.333333333333313  12.336805555555511 9.267361111111097  12.468749999999986 9.135416666666657  Z M 14.927083333333272 3.9843749999999813  C 15.642361111111075 5.2100694444444535  15.99999999999995 6.548611111111111  15.999999999999961 8.000000000000004  C 15.999999999999961 9.451388888888872  15.642361111111052 10.789930555555513  14.927083333333282 12.015624999999964  C 14.211805555555541 13.241319444444434  13.241319444444406 14.211805555555538  12.015624999999991 14.927083333333341  C 10.789930555555518 15.642361111111086  9.451388888888848 15.999999999999966  7.9999999999999725 15.999999999999972  C 6.548611111111112 15.999999999999975  5.210069444444436 15.642361111111075  3.9843750000000293 14.927083333333321  C 2.758680555555573 14.211805555555538  1.7881944444444562 13.241319444444457  1.0729166666667105 12.015625000000002  C 0.3576388888889106 10.789930555555529  0 9.451388888888864  0 7.999999999999986  C 0 6.548611111111102  0.35763888888889817 5.210069444444438  1.072916666666671 3.9843750000000075  C 1.7881944444444244 2.7586805555555256  2.7586805555555403 1.7881944444444438  3.9843749999999853 1.0729166666666514  C 5.210069444444437 0.3576388888888875  6.5486111111111 0  7.999999999999973 0  C 9.451388888888864 0  10.789930555555529 0.3576388888888875  12.015624999999954 1.0729166666666616  C 13.241319444444382 1.788194444444433  14.211805555555518 2.7586805555555367  14.927083333333272 3.9843749999999813  Z " fill-rule="nonzero" fill="#cccccc" stroke="none" />
  </g>
</svg>