<?xml version="1.0" encoding="utf-8"?>
<svg version="1.1" xmlns:xlink="http://www.w3.org/1999/xlink" width="127px" height="100px" xmlns="http://www.w3.org/2000/svg">
  <g transform="matrix(1 0 0 1 -909 -380 )">
    <path d="M 909 380  L 1036 380  L 1036 480  L 909 480  L 909 380  " fill-rule="nonzero" fill="#cccccc" stroke="none" />
    <path d="M 916 387  L 1029 387  L 1029 473  L 916 473  L 916 387  " fill-rule="nonzero" fill="#ffffff" stroke="none" />
    <path d="M 982.54 410  C 978.3399999999999 410  975.04 406.7  975.04 402.5  C 975.04 398.3  978.3399999999999 395  982.54 395  C 986.74 395  990.04 398.3  990.04 402.5  C 990.04 406.7  986.74 410  982.54 410  " fill-rule="nonzero" fill="#cccccc" stroke="none" />
    <path d="M 919 471  L 919 426.45  L 946 406.2  L 983.8 432.73228346456693  L 1005.4 418.35  L 1027 432.73228346456693  L 1027 471  L 919 471  " fill-rule="nonzero" fill="#169bd5" stroke="none" />
  </g>
</svg>