<?xml version="1.0" encoding="utf-8"?>
<svg version="1.1" xmlns:xlink="http://www.w3.org/1999/xlink" width="34px" height="37px" xmlns="http://www.w3.org/2000/svg">
  <g transform="matrix(1 0 0 1 -917 -665 )">
    <path d="M 917 665  L 951 665  L 951 702  L 917 702  L 917 665  " fill-rule="nonzero" fill="#cccccc" stroke="none" />
    <path d="M 919 667  L 949 667  L 949 700  L 919 700  L 919 667  " fill-rule="nonzero" fill="#ffffff" stroke="none" />
    <path d="M 937.23 675.65  C 935.802 675.65  934.68 674.5279999999999  934.68 673.0999999999999  C 934.68 671.6719999999999  935.802 670.55  937.23 670.55  C 938.658 670.55  939.78 671.6719999999999  939.78 673.0999999999999  C 939.78 674.5279999999999  938.658 675.65  937.23 675.65  " fill-rule="nonzero" fill="#cccccc" stroke="none" />
    <path d="M 920 699  L 920 681.95  L 927 674.2  L 936.8 680.4  L 942.4 678.85  L 948 680.4  L 948 699  L 920 699  " fill-rule="nonzero" fill="#169bd5" stroke="none" />
  </g>
</svg>