<?xml version="1.0" encoding="utf-8"?>
<svg version="1.1" xmlns:xlink="http://www.w3.org/1999/xlink" width="1190px" height="920px" xmlns="http://www.w3.org/2000/svg">
  <defs>
    <filter x="15px" y="204px" width="1190px" height="920px" filterUnits="userSpaceOnUse" id="filter89">
      <feOffset dx="0" dy="0" in="SourceAlpha" result="shadowOffsetInner" />
      <feGaussianBlur stdDeviation="2.5" in="shadowOffsetInner" result="shadowGaussian" />
      <feComposite in2="shadowGaussian" operator="atop" in="SourceAlpha" result="shadowComposite" />
      <feColorMatrix type="matrix" values="0 0 0 0 0.8941176470588235  0 0 0 0 0.8941176470588235  0 0 0 0 0.8941176470588235  0 0 0 1 0  " in="shadowComposite" />
    </filter>
    <g id="widget90">
      <path d="M 21 221  A 11 11 0 0 1 32 210 L 1188 210  A 11 11 0 0 1 1199 221 L 1199 1107  A 11 11 0 0 1 1188 1118 L 32 1118  A 11 11 0 0 1 21 1107 L 21 221  Z " fill-rule="nonzero" fill="#ffffff" stroke="none" />
      <path d="M 20.5 221  A 11.5 11.5 0 0 1 32 209.5 L 1188 209.5  A 11.5 11.5 0 0 1 1199.5 221 L 1199.5 1107  A 11.5 11.5 0 0 1 1188 1118.5 L 32 1118.5  A 11.5 11.5 0 0 1 20.5 1107 L 20.5 221  Z " stroke-width="1" stroke="#f2f2f2" fill="none" stroke-opacity="0.9882352941176471" />
    </g>
  </defs>
  <g transform="matrix(1 0 0 1 -15 -204 )">
    <use xlink:href="#widget90" filter="url(#filter89)" />
    <use xlink:href="#widget90" />
  </g>
</svg>