<?xml version="1.0" encoding="utf-8"?>
<svg version="1.1" xmlns:xlink="http://www.w3.org/1999/xlink" width="125px" height="140px" xmlns="http://www.w3.org/2000/svg">
  <g transform="matrix(1 0 0 1 -71 -495 )">
    <path d="M 71 495  L 196 495  L 196 635  L 71 635  L 71 495  " fill-rule="nonzero" fill="#cccccc" stroke="none" />
    <path d="M 80 504  L 187 504  L 187 626  L 80 626  L 80 504  " fill-rule="nonzero" fill="#ffffff" stroke="none" />
    <path d="M 145.375 534.75  C 140.125 534.75  136 530.625  136 525.375  C 136 520.125  140.125 516  145.375 516  C 150.625 516  154.75 520.125  154.75 525.375  C 154.75 530.625  150.625 534.75  145.375 534.75  " fill-rule="nonzero" fill="#cccccc" stroke="none" />
    <path d="M 83 623  L 83 559.2  L 108.25 530.2  L 143.6 553.4  L 163.8 547.6  L 184 553.4  L 184 623  L 83 623  " fill-rule="nonzero" fill="#169bd5" stroke="none" />
  </g>
</svg>