<?xml version="1.0" encoding="utf-8"?>
<svg version="1.1" xmlns:xlink="http://www.w3.org/1999/xlink" width="15px" height="14px" xmlns="http://www.w3.org/2000/svg">
  <g transform="matrix(1 0 0 1 -51 -219 )">
    <path d="M 0 13.26301052631579  L 0 1.4735294736842106  C 0.0034857142857142825 1.066578947368421  0.32328571428571423 0.7366873684210526  0.7177714285714286 1  L 13.574928571428572 1  C 13.969428571428573 0.7366873684210526  14.289214285714284 1.066578947368421  14.289214285714284 1.4735294736842106  L 14.289214285714284 5.526161052631579  C 13.302999999999999 5.526161052631579  12.5035 6.350915789473683  12.5035 7.368273684210526  C 12.5035 8.385631578947368  13.302999999999999 9.210378947368422  14.289214285714284 9.210378947368422  L 14.289214285714284 13.26301052631579  C 14.289214285714284 13.669968421052632  13.969428571428573 13.999852631578948  13.574928571428572 14  L 0.7177714285714286 14  C 0.32328571428571423 13.999852631578948  0.0034857142857142825 13.669968421052632  0 13.26301052631579  Z M 1.432057142857143 12.526168421052631  L 4.350171428571428 12.526168421052631  C 4.497250000000001 12.096884210526316  4.894121428571428 11.789326315789475  5.360628571428571 11.789326315789475  C 5.827142857142857 11.789326315789475  6.224 12.096884210526316  6.371071428571428 12.526168421052631  L 12.860642857142857 12.526168421052631  L 12.860642857142857 10.339368421052631  C 11.802285714285713 9.79683157894737  11.074928571428572 8.670126315789473  11.074928571428572 7.368273684210526  C 11.074928571428572 6.066347368421053  11.802285714285713 4.939715789473685  12.860642857142857 4.397142105263158  L 12.860642857142857 2.2103715789473686  L 6.371071428571428 2.2103715789473686  C 6.224 2.639648421052631  5.827142857142857 2.947213684210526  5.360628571428571 2.947213684210526  C 4.894121428571428 2.947213684210526  4.497250000000001 2.639648421052631  4.350171428571428 2.2103715789473686  L 1.432057142857143 2.2103715789473686  L 1.432057142857143 12.526168421052631  Z M 6.432071428571428 5.526161052631579  C 6.432071428571428 6.136568421052632  5.952357142857143 6.631431578947369  5.360628571428571 6.631431578947369  C 4.7689 6.631431578947369  4.2892 6.136568421052632  4.2892 5.526161052631579  C 4.2892 4.91573894736842  4.7689 4.420897894736842  5.360628571428571 4.420897894736842  C 5.952357142857143 4.420897894736842  6.432071428571428 4.91573894736842  6.432071428571428 5.526161052631579  Z M 6.432071428571428 9.210378947368422  C 6.432071428571428 9.82077894736842  5.952357142857143 10.315642105263157  5.360628571428571 10.315642105263157  C 4.7689 10.315642105263157  4.2892 9.82077894736842  4.2892 9.210378947368422  C 4.2892 8.59997894736842  4.7689 8.105115789473684  5.360628571428571 8.105115789473684  C 5.952357142857143 8.105115789473684  6.432071428571428 8.59997894736842  6.432071428571428 9.210378947368422  Z " fill-rule="nonzero" fill="#333333" stroke="none" transform="matrix(1 0 0 1 51 219 )" />
  </g>
</svg>