<?xml version="1.0" encoding="utf-8"?>
<svg version="1.1" xmlns:xlink="http://www.w3.org/1999/xlink" width="19px" height="19px" xmlns="http://www.w3.org/2000/svg">
  <g transform="matrix(1 0 0 1 -118 -219 )">
    <path d="M 2.714285714285817 13.571428571428546  C 2.2145995120579425 13.571428571428546  1.809523809523878 13.166352868894542  2 12.666666666666666  L 2 1.8095238095238182  L 0 1.8095238095238182  L 0 0  L 2.714285714285817 0  C 3.213971916513692 0  3.619047619047516 0.40507570253406455  3.619047619047516 0.904761904761879  L 3.619047619047516 11.761904761904788  L 14.872476190476213 11.761904761904788  L 16.682000000000095 4.523809523809515  L 5.428571428571394 4.523809523809515  L 5.428571428571394 3  L 17.84190476190472 3  C 18.3415816755301 2.714298849900849  18.746642882089418 3.119370704937021  18.746642882089418 3.619047618734969  C 18.746642882089418 3.6931674994587933  18.737534940565183 3.7670065291232153  18.719523809523857 3.8389047619047574  L 16.457619047619133 12.886523809523787  C 16.35677510857043 13.289080484590071  15.994995634391898 13.571417661861416  15.579999999999991 13.571428571428546  L 2.714285714285817 13.571428571428546  Z M 3.619047619047516 19  C 2.6196752145920073 19  1.809523809523878 18.18984859493193  1.809523809523878 17.190476190476183  C 1.809523809523878 16.19110378602049  2.6196752145920073 15.380952380952364  3.619047619047516 15.380952380952364  C 4.6184200235032655 15.380952380952364  5.428571428571394 16.19110378602049  5.428571428571394 17.190476190476183  C 5.428571428571394 18.18984859493193  4.6184200235032655 19  3.619047619047516 19  Z M 14.476190476190546 19  C 13.476818071734796 19  12.666666666666666 18.18984859493193  12.666666666666666 17.190476190476183  C 12.666666666666666 16.19110378602049  13.476818071734796 15.380952380952364  14.476190476190546 15.380952380952364  C 15.475562880646294 15.380952380952364  16.285714285714185 16.19110378602049  16.285714285714185 17.190476190476183  C 16.285714285714185 18.18984859493193  15.475562880646294 19  14.476190476190546 19  Z " fill-rule="nonzero" fill="#666ee8" stroke="none" fill-opacity="0.8980392156862745" transform="matrix(1 0 0 1 118 219 )" />
  </g>
</svg>