<?xml version="1.0" encoding="utf-8"?>
<svg version="1.1" xmlns:xlink="http://www.w3.org/1999/xlink" width="16px" height="16px" xmlns="http://www.w3.org/2000/svg">
  <g transform="matrix(1 0 0 1 -320 -251 )">
    <path d="M 328 251  C 332.48 251  336 254.52  336 259  C 336 263.48  332.48 267  328 267  C 323.52 267  320 263.48  320 259  C 320 254.52  323.52 251  328 251  Z " fill-rule="nonzero" fill="#ffffff" stroke="none" />
    <path d="M 328 251.5  C 332.2 251.5  335.5 254.8  335.5 259  C 335.5 263.2  332.2 266.5  328 266.5  C 323.8 266.5  320.5 263.2  320.5 259  C 320.5 254.8  323.8 251.5  328 251.5  Z " stroke-width="1" stroke="#cccccc" fill="none" />
  </g>
</svg>