<?xml version="1.0" encoding="utf-8"?>
<svg version="1.1" xmlns:xlink="http://www.w3.org/1999/xlink" width="16px" height="16px" xmlns="http://www.w3.org/2000/svg">
  <g transform="matrix(1 0 0 1 -320 -251 )">
    <path d="M 328 255  C 330.24 255  332 256.76  332 259  C 332 261.24  330.24 263  328 263  C 325.76 263  324 261.24  324 259  C 324 256.76  325.76 255  328 255  Z " fill-rule="nonzero" fill="#ffffff" stroke="none" />
    <path d="M 328 253.5  C 331.08 253.5  333.5 255.92  333.5 259  C 333.5 262.08  331.08 264.5  328 264.5  C 324.92 264.5  322.5 262.08  322.5 259  C 322.5 255.92  324.92 253.5  328 253.5  Z " stroke-width="5" stroke="#f68c95" fill="none" />
  </g>
</svg>