<?xml version="1.0" encoding="utf-8"?>
<svg version="1.1" xmlns:xlink="http://www.w3.org/1999/xlink" width="335px" height="120px" xmlns="http://www.w3.org/2000/svg">
  <g transform="matrix(1 0 0 1 -409 -256 )">
    <path d="M 410 268  A 11 11 0 0 1 421 257 L 732 257  A 11 11 0 0 1 743 268 L 743 364  A 11 11 0 0 1 732 375 L 421 375  A 11 11 0 0 1 410 364 L 410 268  Z " fill-rule="nonzero" fill="#ffffff" stroke="none" />
    <path d="M 409.5 268  A 11.5 11.5 0 0 1 421 256.5 L 732 256.5  A 11.5 11.5 0 0 1 743.5 268 L 743.5 364  A 11.5 11.5 0 0 1 732 375.5 L 421 375.5  A 11.5 11.5 0 0 1 409.5 364 L 409.5 268  Z " stroke-width="1" stroke="#f2f2f2" fill="none" stroke-opacity="0.9882352941176471" />
  </g>
</svg>