<?xml version="1.0" encoding="utf-8"?>
<svg version="1.1" xmlns:xlink="http://www.w3.org/1999/xlink" width="1190px" height="230px" xmlns="http://www.w3.org/2000/svg">
  <defs>
    <filter x="15px" y="693px" width="1190px" height="230px" filterUnits="userSpaceOnUse" id="filter145">
      <feOffset dx="0" dy="0" in="SourceAlpha" result="shadowOffsetInner" />
      <feGaussianBlur stdDeviation="2.5" in="shadowOffsetInner" result="shadowGaussian" />
      <feComposite in2="shadowGaussian" operator="atop" in="SourceAlpha" result="shadowComposite" />
      <feColorMatrix type="matrix" values="0 0 0 0 0.8941176470588235  0 0 0 0 0.8941176470588235  0 0 0 0 0.8941176470588235  0 0 0 1 0  " in="shadowComposite" />
    </filter>
    <g id="widget146">
      <path d="M 21 710  A 11 11 0 0 1 32 699 L 1188 699  A 11 11 0 0 1 1199 710 L 1199 906  A 11 11 0 0 1 1188 917 L 32 917  A 11 11 0 0 1 21 906 L 21 710  Z " fill-rule="nonzero" fill="#ffffff" stroke="none" />
      <path d="M 20.5 710  A 11.5 11.5 0 0 1 32 698.5 L 1188 698.5  A 11.5 11.5 0 0 1 1199.5 710 L 1199.5 906  A 11.5 11.5 0 0 1 1188 917.5 L 32 917.5  A 11.5 11.5 0 0 1 20.5 906 L 20.5 710  Z " stroke-width="1" stroke="#f2f2f2" fill="none" stroke-opacity="0.9882352941176471" />
    </g>
  </defs>
  <g transform="matrix(1 0 0 1 -15 -693 )">
    <use xlink:href="#widget146" filter="url(#filter145)" />
    <use xlink:href="#widget146" />
  </g>
</svg>