<?xml version="1.0" encoding="utf-8"?>
<svg version="1.1" xmlns:xlink="http://www.w3.org/1999/xlink" width="1190px" height="192px" xmlns="http://www.w3.org/2000/svg">
  <defs>
    <filter x="15px" y="933px" width="1190px" height="192px" filterUnits="userSpaceOnUse" id="filter268">
      <feOffset dx="0" dy="0" in="SourceAlpha" result="shadowOffsetInner" />
      <feGaussianBlur stdDeviation="2.5" in="shadowOffsetInner" result="shadowGaussian" />
      <feComposite in2="shadowGaussian" operator="atop" in="SourceAlpha" result="shadowComposite" />
      <feColorMatrix type="matrix" values="0 0 0 0 0.8941176470588235  0 0 0 0 0.8941176470588235  0 0 0 0 0.8941176470588235  0 0 0 1 0  " in="shadowComposite" />
    </filter>
    <g id="widget269">
      <path d="M 21 950  A 11 11 0 0 1 32 939 L 1188 939  A 11 11 0 0 1 1199 950 L 1199 1108  A 11 11 0 0 1 1188 1119 L 32 1119  A 11 11 0 0 1 21 1108 L 21 950  Z " fill-rule="nonzero" fill="#ffffff" stroke="none" />
      <path d="M 20.5 950  A 11.5 11.5 0 0 1 32 938.5 L 1188 938.5  A 11.5 11.5 0 0 1 1199.5 950 L 1199.5 1108  A 11.5 11.5 0 0 1 1188 1119.5 L 32 1119.5  A 11.5 11.5 0 0 1 20.5 1108 L 20.5 950  Z " stroke-width="1" stroke="#f2f2f2" fill="none" stroke-opacity="0.9882352941176471" />
    </g>
  </defs>
  <g transform="matrix(1 0 0 1 -15 -933 )">
    <use xlink:href="#widget269" filter="url(#filter268)" />
    <use xlink:href="#widget269" />
  </g>
</svg>