<?xml version="1.0" encoding="utf-8"?>
<svg version="1.1" xmlns:xlink="http://www.w3.org/1999/xlink" width="20px" height="20px" xmlns="http://www.w3.org/2000/svg">
  <g transform="matrix(1 0 0 1 -203 -627 )">
    <path d="M 213 627  C 218.6 627  223 631.4  223 637  C 223 642.6  218.6 647  213 647  C 207.4 647  203 642.6  203 637  C 203 631.4  207.4 627  213 627  Z " fill-rule="nonzero" fill="#ffffff" stroke="none" />
    <path d="M 213 627.5  C 218.32 627.5  222.5 631.68  222.5 637  C 222.5 642.32  218.32 646.5  213 646.5  C 207.68 646.5  203.5 642.32  203.5 637  C 203.5 631.68  207.68 627.5  213 627.5  Z " stroke-width="1" stroke="#797979" fill="none" />
  </g>
</svg>