<?xml version="1.0" encoding="utf-8"?>
<svg version="1.1" xmlns:xlink="http://www.w3.org/1999/xlink" width="357px" height="137px" xmlns="http://www.w3.org/2000/svg">
  <g transform="matrix(1 0 0 1 -9 -66 )">
    <path d="M 9 66  L 366 66  L 366 203  L 9 203  L 9 66  " fill-rule="nonzero" fill="#cccccc" stroke="none" />
    <path d="M 19 76  L 356 76  L 356 193  L 19 193  L 19 76  " fill-rule="nonzero" fill="#ffffff" stroke="none" />
    <path d="M 204.91500000000002 107.1  C 199.16100000000003 107.1  194.64000000000001 102.579  194.64000000000001 96.82499999999999  C 194.64000000000001 91.071  199.16100000000003 86.55  204.91500000000002 86.55  C 210.669 86.55  215.19000000000003 91.071  215.19000000000003 96.82499999999999  C 215.19000000000003 102.579  210.669 107.1  204.91500000000002 107.1  " fill-rule="nonzero" fill="#cccccc" stroke="none" />
    <path d="M 23 190  L 23 129.5  L 105.5 102  L 221 164.67226890756302  L 287 118.5  L 353 164.67226890756302  L 353 190  L 23 190  " fill-rule="nonzero" fill="#169bd5" stroke="none" />
  </g>
</svg>