<?xml version="1.0" encoding="utf-8"?>
<svg version="1.1" xmlns:xlink="http://www.w3.org/1999/xlink" width="39px" height="38px" xmlns="http://www.w3.org/2000/svg">
  <g transform="matrix(1 0 0 1 -300 -255 )">
    <path d="M 300 255  L 339 255  L 339 293  L 300 293  L 300 255  " fill-rule="nonzero" fill="#cccccc" stroke="none" />
    <path d="M 303 258  L 336 258  L 336 290  L 303 290  L 303 258  " fill-rule="nonzero" fill="#ffffff" stroke="none" />
    <path d="M 323.13 266.4  C 321.534 266.4  320.28 265.14599999999996  320.28 263.54999999999995  C 320.28 261.95399999999995  321.534 260.7  323.13 260.7  C 324.726 260.7  325.97999999999996 261.95399999999995  325.97999999999996 263.54999999999995  C 325.97999999999996 265.14599999999996  324.726 266.4  323.13 266.4  " fill-rule="nonzero" fill="#cccccc" stroke="none" />
    <path d="M 304 289  L 304 272.5  L 311.75 265  L 322.6 271.46153846153845  L 328.8 269.5  L 335 271.46153846153845  L 335 289  L 304 289  " fill-rule="nonzero" fill="#169bd5" stroke="none" />
  </g>
</svg>