<?xml version="1.0" encoding="utf-8"?>
<svg version="1.1" xmlns:xlink="http://www.w3.org/1999/xlink" width="129px" height="112px" xmlns="http://www.w3.org/2000/svg">
  <g transform="matrix(1 0 0 1 -642 -372 )">
    <path d="M 642 372  L 771 372  L 771 484  L 642 484  L 642 372  " fill-rule="nonzero" fill="#cccccc" stroke="none" />
    <path d="M 650 380  L 763 380  L 763 476  L 650 476  L 650 380  " fill-rule="nonzero" fill="#ffffff" stroke="none" />
    <path d="M 717.48 405.6  C 712.7760000000001 405.6  709.08 401.90400000000005  709.08 397.20000000000005  C 709.08 392.49600000000004  712.7760000000001 388.8  717.48 388.8  C 722.184 388.8  725.88 392.49600000000004  725.88 397.20000000000005  C 725.88 401.90400000000005  722.184 405.6  717.48 405.6  " fill-rule="nonzero" fill="#cccccc" stroke="none" />
    <path d="M 653 473  L 653 423.5  L 679.75 401  L 717.2 426.1162790697674  L 738.6 414.5  L 760 426.1162790697674  L 760 473  L 653 473  " fill-rule="nonzero" fill="#169bd5" stroke="none" />
  </g>
</svg>