<?xml version="1.0" encoding="utf-8"?>
<svg version="1.1" xmlns:xlink="http://www.w3.org/1999/xlink" width="32px" height="31px" xmlns="http://www.w3.org/2000/svg">
  <g transform="matrix(1 0 0 1 -128 -262 )">
    <path d="M 128 262  L 160 262  L 160 293  L 128 293  L 128 262  " fill-rule="nonzero" fill="#cccccc" stroke="none" />
    <path d="M 130 264  L 158 264  L 158 291  L 130 291  L 130 264  " fill-rule="nonzero" fill="#ffffff" stroke="none" />
    <path d="M 146.96499999999997 271.29999999999995  C 145.66299999999998 271.29999999999995  144.64 270.277  144.64 268.97499999999997  C 144.64 267.67299999999994  145.66299999999998 266.65  146.96499999999997 266.65  C 148.267 266.65  149.29 267.67299999999994  149.29 268.97499999999997  C 149.29 270.277  148.267 271.29999999999995  146.96499999999997 271.29999999999995  " fill-rule="nonzero" fill="#cccccc" stroke="none" />
    <path d="M 131 290  L 131 276.25  L 137.5 270  L 146.6 275.46875  L 151.8 273.75  L 157 275.46875  L 157 290  L 131 290  " fill-rule="nonzero" fill="#169bd5" stroke="none" />
  </g>
</svg>