<?xml version="1.0" encoding="utf-8"?>
<svg version="1.1" xmlns:xlink="http://www.w3.org/1999/xlink" width="17px" height="19px" xmlns="http://www.w3.org/2000/svg">
  <g transform="matrix(1 0 0 1 -42 -348 )">
    <path d="M 8.947368530574014 11.444909090909093  L 8.947368530574012 13.249909090909089  C 8.372635307787139 13.053773259228592  7.767491415791827 12.953555909338213  7.15789477281491 12.953555909338213  C 4.192997735100573 12.953555909338213  1.789473793197585 15.273534932942283  1.789473793197585 18.135374091156393  L 0 18.135499999999997  C 0 18.134914634681767  0 18.134329269344583  0 18.133743904007442  C 0 14.317958359721962  3.2046985892039834 11.224652994916532  7.157894639489768 11.224652994916532  C 7.761584146597138 11.224652994916532  8.362848683782182 11.298369021933135  8.947368530574014 11.444045454545453  Z M 12.526315850318896 5.181818181818182  C 12.526315850318896 8.044772727272727  10.123947461940144 10.363636363636363  7.157894870701572 10.363636363636363  C 4.191842279463 10.363636363636363  1.7894738910842463 8.044772727272727  1.7894738910842463 5.181818181818182  C 1.7894738910842463 2.318863636363637  4.191842279463 0  7.157894870701572 0  C 10.123947461940144 0  12.526315850318896 2.3188636363636363  12.526315850318896 5.181818181818182  Z M 3.578947550956688 5.181818181818182  C 3.578947550956688 7.090454545454547  5.180526476542522 8.636363636363637  7.157894870701572 8.636363636363637  C 9.13526326486062 8.636363636363637  10.736842190446456 7.090454545454547  10.736842190446456 5.181818181818182  C 10.736842190446456 3.2731818181818175  9.13526326486062 1.7272727272727273  7.157894870701572 1.7272727272727273  C 5.180526476542522 1.7272727272727273  3.578947550956688 3.273181818181818  3.578947550956688 5.181818181818182  Z M 12.341105326522097 16.334818181818182  L 15.504000020346641 13.281863636363639  L 16.770052634706392 14.503045454545456  L 12.341105326522097 18.778045454545456  L 9.177315895867622 15.724227272727274  L 10.443368510227375 14.503045454545454  L 12.340210589692166 16.334818181818182  Z " fill-rule="nonzero" fill="#333333" stroke="none" transform="matrix(1 0 0 1 42 348 )" />
  </g>
</svg>