<?xml version="1.0" encoding="utf-8"?>
<svg version="1.1" xmlns:xlink="http://www.w3.org/1999/xlink" width="21px" height="19px" xmlns="http://www.w3.org/2000/svg">
  <g transform="matrix(1 0 0 1 -38 -579 )">
    <path d="M 18.136363636363626 18.05000000000001  C 18.136363636363626 18.574670512339253  17.708999079383943 19  17.181818181818187 19  L 3.818181818181813 19  C 3.291000920616056 19  2.863636363636374 18.574670512339253  2.863636363636374 18.05000000000001  L 2.863636363636374 9.5  L 0 9.5  L 9.857590909090902 0.5814000000000021  C 10.221767693751303 0.2516138095236897  10.778232306248697 0.2516138095236897  11.142409090909098 0.5814000000000021  L 21 9.5  L 18.136363636363626 9.5  L 18.136363636363626 18.05000000000001  Z M 11.454545454545439 11.400000000000006  L 11.454545454545439 17.099999999999994  L 16.22727272727272 17.099999999999994  L 16.22727272727272 7.749150000000014  L 10.5 2.567849999999993  L 4.7727272727272805 7.749150000000014  L 4.7727272727272805 17.099999999999994  L 9.545454545454533 17.099999999999994  L 9.545454545454533 11.400000000000006  L 11.454545454545439 11.400000000000006  Z " fill-rule="nonzero" fill="#333333" stroke="none" transform="matrix(1 0 0 1 38 579 )" />
  </g>
</svg>