<?xml version="1.0" encoding="utf-8"?>
<svg version="1.1" xmlns:xlink="http://www.w3.org/1999/xlink" width="19px" height="19px" xmlns="http://www.w3.org/2000/svg">
  <g transform="matrix(1 0 0 1 -39 -484 )">
    <path d="M 14.25 0.9500000000000001  L 14.25 3.8000000000000003  L 19 3.8000000000000003  L 19 5.7  L 17 5.7  L 17 18.05  C 17.1 18.574670512339253  16.674670512339254 19  16.15 19  L 2.85 19  C 2.3253294876607464 19  1.9000000000000001 18.574670512339253  2 18.05  L 2 5.7  L 0 5.7  L 0 3.8000000000000003  L 4.75 3.8000000000000003  L 4.75 0.9500000000000001  C 4.75 0.42532948766074646  5.175329487660747 0  5.7 0  L 13.299999999999999 0  C 13.824670512339253 0  14.25 0.42532948766074646  14.25 0.9500000000000001  Z M 15 17  L 15 6  L 4 6  L 4 17  L 15 17  Z M 6.6499999999999995 14.25  L 6.6499999999999995 8.55  L 8.55 8.55  L 8.55 14.25  L 6.6499999999999995 14.25  Z M 10.450000000000001 14.25  L 10.450000000000001 8.55  L 12.35 8.55  L 12.35 14.25  L 10.450000000000001 14.25  Z M 12.35 1.9000000000000001  L 6.6499999999999995 1.9000000000000001  L 6.6499999999999995 3.8000000000000003  L 12.35 3.8000000000000003  L 12.35 1.9000000000000001  Z " fill-rule="nonzero" fill="#333333" stroke="none" transform="matrix(1 0 0 1 39 484 )" />
  </g>
</svg>