<?xml version="1.0" encoding="utf-8"?>
<svg version="1.1" xmlns:xlink="http://www.w3.org/1999/xlink" width="80px" height="78px" xmlns="http://www.w3.org/2000/svg">
  <g transform="matrix(1 0 0 1 -148 -67 )">
    <path d="M 188 67  C 210.4 67  228 84.16  228 106  C 228 127.84  210.4 145  188 145  C 165.6 145  148 127.84  148 106  C 148 84.16  165.6 67  188 67  Z " fill-rule="nonzero" fill="#ffffff" stroke="none" />
    <path d="M 188 67.5  C 210.12 67.5  227.5 84.44  227.5 106  C 227.5 127.56  210.12 144.5  188 144.5  C 165.88 144.5  148.5 127.56  148.5 106  C 148.5 84.44  165.88 67.5  188 67.5  Z " stroke-width="1" stroke="#797979" fill="none" />
  </g>
</svg>