<?xml version="1.0" encoding="utf-8"?>
<svg version="1.1" xmlns:xlink="http://www.w3.org/1999/xlink" width="19px" height="19px" xmlns="http://www.w3.org/2000/svg">
  <g transform="matrix(1 0 0 1 -39 -536 )">
    <path d="M 4.749999999999999 13.299999999999999  C 4.749999999999999 10.676647438303732  6.876647438303732 8.549999999999999  9.5 8.549999999999999  C 12.123352561696269 8.549999999999999  14.25 10.676647438303732  14.25 13.299999999999999  L 14.25 19  L 12.35 19  L 12.35 13.299999999999999  C 12.350084066696496 11.790870270149506  11.17373044927516 10.543285608613774  9.667200000000001 10.454749999999999  L 9.5 10.450000000000001  C 7.990870270149503 10.449915933303501  6.7432856086137765 11.626269550724837  6.654749999999999 13.132800000000001  L 6.6499999999999995 13.299999999999999  L 6.6499999999999995 19  L 4.75 19  L 4.749999999999999 13.299999999999999  Z M 0 14.725  C 0 12.888653206812613  1.4886532068126117 11.4  3.3249999999999997 11.4  C 3.59005 11.4  3.8474999999999997 11.43135  4.0945 11.4893  C 3.932072487459652 11.972853760370814  3.8358816482735705 12.476177918902643  3.8085500000000003 12.985549999999998  L 3.8000000000000003 13.299999999999999  L 3.8000000000000003 13.381699999999999  C 3.690800622844736 13.34262533482451  3.5772181376768986 13.317101180854213  3.4618 13.3057  L 3.3249999999999997 13.299999999999999  C 2.5910091843014675 13.300035232102195  1.9771131175426493 13.857599241830897  1.9066499999999997 14.5882  L 1.9000000000000001 14.725  L 1.9000000000000001 19  L 0 19  L 0 14.725  Z M 14.90645 11.4912  C 15.1525 11.43135  15.40995 11.4  15.674999999999999 11.4  C 17.511346793187386 11.4  19 12.888653206812613  19 14.725  L 19 19  L 17.1 19  L 17.1 14.725  C 17.099964767897806 13.991009184301468  16.542400758169098 13.377113117542654  15.811799999999998 13.306650000000001  L 15.674999999999999 13.299999999999999  C 15.50875 13.299999999999999  15.34915 13.3285  15.200000000000001 13.38075  L 15.200000000000001 13.299999999999999  C 15.200000000000001 12.6673  15.0974 12.059299999999999  14.90645 11.4912  Z M 3.3249999999999993 5.699999999999998  C 4.636676280848133 5.699999999999998  5.699999999999998 6.763323719151865  5.699999999999998 8.075  C 5.699999999999998 9.386676280848132  4.636676280848133 10.45  3.3249999999999993 10.45  C 2.0133237191518654 10.45  0.9500000000000001 9.386676280848132  0.9500000000000001 8.075  C 0.9500000000000001 6.763323719151865  2.0133237191518654 5.699999999999998  3.3249999999999993 5.699999999999998  Z M 15.674999999999997 5.699999999999998  C 16.986676280848133 5.699999999999998  18.049999999999997 6.763323719151865  18.049999999999997 8.075  C 18.049999999999997 9.386676280848132  16.986676280848133 10.45  15.674999999999997 10.45  C 14.363323719151865 10.45  13.299999999999999 9.386676280848132  13.299999999999999 8.075  C 13.299999999999999 6.763323719151865  14.363323719151865 5.699999999999998  15.674999999999997 5.699999999999998  Z M 3.3249999999999997 7.6000000000000005  C 3.062664743830373 7.6000000000000005  2.85 7.812664743830373  2.85 8.075  C 2.85 8.337335256169627  3.062664743830373 8.55  3.3249999999999997 8.55  C 3.587335256169627 8.55  3.8000000000000003 8.337335256169627  3.8000000000000003 8.075  C 3.8000000000000003 7.812664743830373  3.587335256169627 7.6000000000000005  3.3249999999999997 7.6000000000000005  Z M 15.674999999999999 7.6000000000000005  C 15.412664743830371 7.6000000000000005  15.200000000000001 7.812664743830373  15.200000000000001 8.075  C 15.200000000000001 8.337335256169627  15.412664743830371 8.55  15.674999999999999 8.55  C 15.937335256169629 8.55  16.15 8.337335256169627  16.15 8.075  C 16.15 7.812664743830373  15.937335256169629 7.6000000000000005  15.674999999999999 7.6000000000000005  Z M 9.5 0  C 11.598682049357015 0  13.299999999999999 1.7013179506429847  13.299999999999999 3.8000000000000003  C 13.299999999999999 5.8986820493570145  11.598682049357015 7.6000000000000005  9.5 7.6000000000000005  C 7.401317950642986 7.6000000000000005  5.7 5.8986820493570145  5.7 3.8000000000000003  C 5.7 1.7013179506429847  7.401317950642986 0  9.5 0  Z M 9.5 1.9000000000000001  C 8.450658975321494 1.9000000000000001  7.6000000000000005 2.750658975321493  7.6000000000000005 3.8000000000000003  C 7.6000000000000005 4.849341024678507  8.450658975321494 5.7  9.5 5.7  C 10.549341024678508 5.7  11.4 4.849341024678507  11.4 3.8000000000000003  C 11.4 2.750658975321493  10.549341024678508 1.9000000000000001  9.5 1.9000000000000001  Z " fill-rule="nonzero" fill="#333333" stroke="none" transform="matrix(1 0 0 1 39 536 )" />
  </g>
</svg>