<?xml version="1.0" encoding="utf-8"?>
<svg version="1.1" xmlns:xlink="http://www.w3.org/1999/xlink" width="17px" height="19px" xmlns="http://www.w3.org/2000/svg">
  <g transform="matrix(1 0 0 1 -42 -297 )">
    <path d="M 15.111111111111127 6.465277840398855  L 15.111111111111127 7.38888894669298  L 16.055555555555564 7.38888894669298  C 16.577157819284643 7.38888894669298  17 7.802403724206471  17 8.312500052987104  L 17 17.548611115928082  C 17 18.058707444708716  16.577157819284643 18.472222222222207  16.055555555555564 18.472222222222207  L 0.9444444444444368 18.472222222222207  C 0.4228421807153576 18.472222222222207  0 18.058707444708716  0 17.548611115928082  L 0 8.312500052987104  C 0 7.802403724206471  0.4228421807153576 7.38888894669298  0.9444444444444368 7.38888894669298  L 1.8888888888888735 7.38888894669298  L 1.8888888888888735 6.465277840398855  C 1.8888888888888735 2.89460344259464  4.848784153896446 0  8.5 0  C 12.151215846103554 0  15.111111111111127 2.89460344259464  15.111111111111127 6.465277744058739  Z M 15.111111111111127 9  L 1.8888888888888735 9  L 1.8888888888888735 16.625000009634025  L 15.111111111111127 16.625000009634025  L 15.111111111111127 9  Z M 7.555555555555563 14.777777797045776  L 7.555555555555563 11.083333371869411  L 9.444444444444438 11.083333371869411  L 9.444444444444438 14.777777797045776  L 7.555555555555563 14.777777797045776  Z M 3.777777777777747 7.38888894669298  L 13.222222222222253 7.38888894669298  L 13.222222222222253 6.465277840398855  C 13.222222222222253 3.9147961964959563  11.108011318645396 1.847222308928366  8.5 1.847222308928366  C 5.891988681354604 1.847222308928366  3.777777777777747 3.9147961964959563  3.777777777777747 6.465277840398855  L 3.777777777777747 7.38888894669298  Z " fill-rule="nonzero" fill="#333333" stroke="none" transform="matrix(1 0 0 1 42 297 )" />
  </g>
</svg>