<?xml version="1.0" encoding="utf-8"?>
<svg version="1.1" xmlns:xlink="http://www.w3.org/1999/xlink" width="19px" height="19px" xmlns="http://www.w3.org/2000/svg">
  <g transform="matrix(1 0 0 1 -40 -432 )">
    <path d="M 4.5125 0.47500000000000003  C 6.742349677441829 0.4749999999999996  8.55 2.2826503225581716  8.55 4.5125  L 8.55 8.55  L 4.5125 8.55  C 2.2826503225581716 8.55  0.4749999999999996 6.74234967744183  0.4749999999999996 4.512500000000001  C 0.4749999999999996 2.2826503225581725  2.2826503225581716 0.4750000000000004  4.5125 0.4750000000000004  Z M 4.5125 6.6499999999999995  L 6.6499999999999995 6.6499999999999995  L 6.6499999999999995 4.5125  C 6.6499999999999995 3.3319913472366793  5.693008652763321 2.375  4.5125 2.375  C 3.3319913472366793 2.375  2.375 3.3319913472366793  2.375 4.5125  C 2.375 5.693008652763321  3.3319913472366793 6.6499999999999995  4.5125 6.6499999999999995  Z M 4.5125 10.450000000000001  L 8.55 10.450000000000001  L 8.55 14.487499999999999  C 8.55 16.717349677441828  6.74234967744183 18.525  4.512500000000001 18.525  C 2.2826503225581725 18.525  0.4750000000000004 16.717349677441828  0.4750000000000004 14.487499999999999  C 0.4750000000000004 12.257650322558172  2.2826503225581725 10.450000000000001  4.512500000000001 10.450000000000001  Z M 6.6499999999999995 12.35  L 4.5125 12.349999999999998  C 3.3319913472366793 12.349999999999998  2.375 13.306991347236677  2.375 14.487499999999999  C 2.375 15.66800865276332  3.3319913472366793 16.625  4.5125 16.625  C 5.693008652763321 16.625  6.6499999999999995 15.66800865276332  6.6499999999999995 14.487499999999999  L 6.6499999999999995 12.35  Z M 10.450000000000001 4.5125  C 10.450000000000001 2.2826503225581716  12.257650322558172 0.47500000000000003  14.487499999999999 0.47500000000000003  C 16.717349677441828 0.4750000000000004  18.525 2.2826503225581725  18.525 4.512500000000001  C 18.525 6.74234967744183  16.717349677441828 8.55  14.487499999999999 8.55  L 10.450000000000001 8.55  L 10.450000000000001 4.5125  Z M 12.35 6.6499999999999995  L 14.487499999999999 6.6499999999999995  C 15.66800865276332 6.6499999999999995  16.625 5.693008652763321  16.625 4.5125  C 16.625 3.3319913472366793  15.66800865276332 2.375  14.487499999999999 2.375  C 13.306991347236677 2.375  12.349999999999998 3.3319913472366793  12.349999999999998 4.5125  L 12.35 6.6499999999999995  Z M 10.450000000000001 14.487499999999999  L 10.450000000000001 10.450000000000001  L 14.487499999999999 10.450000000000001  C 16.717349677441828 10.450000000000001  18.525 12.257650322558172  18.525 14.487499999999999  C 18.525 16.717349677441828  16.717349677441828 18.525  14.487499999999999 18.525  C 12.257650322558172 18.525  10.450000000000001 16.717349677441828  10.450000000000001 14.487499999999999  Z M 14.487499999999999 12.35  L 12.35 12.35  L 12.349999999999998 14.487499999999999  C 12.349999999999998 15.66800865276332  13.306991347236677 16.625  14.487499999999999 16.625  C 15.66800865276332 16.625  16.625 15.66800865276332  16.625 14.487499999999999  C 16.625 13.306991347236677  15.66800865276332 12.349999999999998  14.487499999999999 12.349999999999998  Z " fill-rule="nonzero" fill="#333333" stroke="none" transform="matrix(1 0 0 1 40 432 )" />
  </g>
</svg>