<?xml version="1.0" encoding="utf-8"?>
<svg version="1.1" xmlns:xlink="http://www.w3.org/1999/xlink" width="20px" height="20px" xmlns="http://www.w3.org/2000/svg">
  <g transform="matrix(1 0 0 1 -203 -250 )">
    <path d="M 213 250  C 218.6 250  223 254.4  223 260  C 223 265.6  218.6 270  213 270  C 207.4 270  203 265.6  203 260  C 203 254.4  207.4 250  213 250  Z " fill-rule="nonzero" fill="#ffffff" stroke="none" />
    <path d="M 213 250.5  C 218.32 250.5  222.5 254.68  222.5 260  C 222.5 265.32  218.32 269.5  213 269.5  C 207.68 269.5  203.5 265.32  203.5 260  C 203.5 254.68  207.68 250.5  213 250.5  Z " stroke-width="1" stroke="#797979" fill="none" />
  </g>
</svg>