<?xml version="1.0" encoding="utf-8"?>
<svg version="1.1" xmlns:xlink="http://www.w3.org/1999/xlink" width="357px" height="86px" xmlns="http://www.w3.org/2000/svg">
  <g transform="matrix(1 0 0 1 -9 -66 )">
    <path d="M 9 66  L 366 66  L 366 152  L 9 152  L 9 66  " fill-rule="nonzero" fill="#cccccc" stroke="none" />
    <path d="M 15 72  L 360 72  L 360 146  L 15 146  L 15 72  " fill-rule="nonzero" fill="#ffffff" stroke="none" />
    <path d="M 201.09000000000003 91.80000000000001  C 197.478 91.80000000000001  194.64000000000001 88.96200000000002  194.64000000000001 85.35000000000001  C 194.64000000000001 81.738  197.478 78.9  201.09000000000003 78.9  C 204.70200000000003 78.9  207.54000000000002 81.738  207.54000000000002 85.35000000000001  C 207.54000000000002 88.96200000000002  204.70200000000003 91.80000000000001  201.09000000000003 91.80000000000001  " fill-rule="nonzero" fill="#cccccc" stroke="none" />
    <path d="M 17 144  L 17 105.5  L 102.25 88  L 221.6 133.88235294117646  L 289.8 98.5  L 358 133.88235294117646  L 358 144  L 17 144  " fill-rule="nonzero" fill="#169bd5" stroke="none" />
  </g>
</svg>