<?xml version="1.0" encoding="utf-8"?>
<svg version="1.1" xmlns:xlink="http://www.w3.org/1999/xlink" width="132px" height="139px" xmlns="http://www.w3.org/2000/svg">
  <g transform="matrix(1 0 0 1 -17 -72 )">
    <path d="M 17 72  L 149 72  L 149 211  L 17 211  L 17 72  " fill-rule="nonzero" fill="#cccccc" stroke="none" />
    <path d="M 26 81  L 140 81  L 140 202  L 26 202  L 26 81  " fill-rule="nonzero" fill="#ffffff" stroke="none" />
    <path d="M 95.53999999999999 112.64999999999999  C 89.996 112.64999999999999  85.64 108.294  85.64 102.75  C 85.64 97.20599999999999  89.996 92.85  95.53999999999999 92.85  C 101.084 92.85  105.44 97.20599999999999  105.44 102.75  C 105.44 108.294  101.084 112.64999999999999  95.53999999999999 112.64999999999999  " fill-rule="nonzero" fill="#cccccc" stroke="none" />
    <path d="M 30 199  L 30 136.3  L 56.75 107.8  L 94.2 130.60000000000002  L 115.60000000000001 124.89999999999999  L 137 130.60000000000002  L 137 199  L 30 199  " fill-rule="nonzero" fill="#169bd5" stroke="none" />
  </g>
</svg>