<?xml version="1.0" encoding="utf-8"?>
<svg version="1.1" xmlns:xlink="http://www.w3.org/1999/xlink" width="357px" height="157px" xmlns="http://www.w3.org/2000/svg">
  <g transform="matrix(1 0 0 1 -9 -66 )">
    <path d="M 9 66  L 366 66  L 366 223  L 9 223  L 9 66  " fill-rule="nonzero" fill="#cccccc" stroke="none" />
    <path d="M 20 77  L 355 77  L 355 212  L 20 212  L 20 77  " fill-rule="nonzero" fill="#ffffff" stroke="none" />
    <path d="M 206.41500000000002 113.1  C 199.82100000000003 113.1  194.64000000000001 107.919  194.64000000000001 101.32499999999999  C 194.64000000000001 94.731  199.82100000000003 89.55  206.41500000000002 89.55  C 213.00900000000001 89.55  218.19000000000003 94.731  218.19000000000003 101.32499999999999  C 218.19000000000003 107.919  213.00900000000001 113.1  206.41500000000002 113.1  " fill-rule="nonzero" fill="#cccccc" stroke="none" />
    <path d="M 24 208  L 24 138.14999999999998  L 105.75 106.39999999999999  L 220.2 174.4890756302521  L 285.6 125.45  L 351 174.4890756302521  L 351 208  L 24 208  " fill-rule="nonzero" fill="#169bd5" stroke="none" />
  </g>
</svg>