<?xml version="1.0" encoding="utf-8"?>
<svg version="1.1" xmlns:xlink="http://www.w3.org/1999/xlink" width="65px" height="50px" xmlns="http://www.w3.org/2000/svg">
  <g transform="matrix(1 0 0 1 -8 -64 )">
    <path d="M 8 64  L 73 64  L 73 114  L 8 114  L 8 64  " fill-rule="nonzero" fill="#cccccc" stroke="none" />
    <path d="M 12 68  L 69 68  L 69 110  L 12 110  L 12 68  " fill-rule="nonzero" fill="#ffffff" stroke="none" />
    <path d="M 45.550000000000004 79  C 43.45 79  41.800000000000004 77.35  41.800000000000004 75.25  C 41.800000000000004 73.15  43.45 71.5  45.550000000000004 71.5  C 47.650000000000006 71.5  49.300000000000004 73.15  49.300000000000004 75.25  C 49.300000000000004 77.35  47.650000000000006 79  45.550000000000004 79  " fill-rule="nonzero" fill="#cccccc" stroke="none" />
    <path d="M 14 109  L 14 87.55  L 27.5 77.8  L 46.4 91  L 57.2 83.65  L 68 91  L 68 109  L 14 109  " fill-rule="nonzero" fill="#169bd5" stroke="none" />
  </g>
</svg>