<?xml version="1.0" encoding="utf-8"?>
<svg version="1.1" xmlns:xlink="http://www.w3.org/1999/xlink" width="61px" height="40px" xmlns="http://www.w3.org/2000/svg">
  <g transform="matrix(1 0 0 1 -86 -74 )">
    <path d="M 86 74  L 147 74  L 147 114  L 86 114  L 86 74  " fill-rule="nonzero" fill="#cccccc" stroke="none" />
    <path d="M 89 77  L 144 77  L 144 111  L 89 111  L 89 77  " fill-rule="nonzero" fill="#ffffff" stroke="none" />
    <path d="M 120.72 86  C 119.03999999999999 86  117.72 84.68  117.72 83  C 117.72 81.32  119.03999999999999 80  120.72 80  C 122.4 80  123.72 81.32  123.72 83  C 123.72 84.68  122.4 86  120.72 86  " fill-rule="nonzero" fill="#cccccc" stroke="none" />
    <path d="M 90 110  L 90 92.4  L 103.25 84.4  L 121.8 97.40983606557377  L 132.4 89.2  L 143 97.40983606557377  L 143 110  L 90 110  " fill-rule="nonzero" fill="#169bd5" stroke="none" />
  </g>
</svg>