<?xml version="1.0" encoding="utf-8"?>
<svg version="1.1" xmlns:xlink="http://www.w3.org/1999/xlink" width="61px" height="40px" xmlns="http://www.w3.org/2000/svg">
  <g transform="matrix(1 0 0 1 -159 -74 )">
    <path d="M 159 74  L 220 74  L 220 114  L 159 114  L 159 74  " fill-rule="nonzero" fill="#cccccc" stroke="none" />
    <path d="M 162 77  L 217 77  L 217 111  L 162 111  L 162 77  " fill-rule="nonzero" fill="#ffffff" stroke="none" />
    <path d="M 193.72 86  C 192.04 86  190.72 84.68  190.72 83  C 190.72 81.32  192.04 80  193.72 80  C 195.4 80  196.72 81.32  196.72 83  C 196.72 84.68  195.4 86  193.72 86  " fill-rule="nonzero" fill="#cccccc" stroke="none" />
    <path d="M 163 110  L 163 92.4  L 176.25 84.4  L 194.8 97.40983606557377  L 205.4 89.2  L 216 97.40983606557377  L 216 110  L 163 110  " fill-rule="nonzero" fill="#169bd5" stroke="none" />
  </g>
</svg>