<?xml version="1.0" encoding="utf-8"?>
<svg version="1.1" xmlns:xlink="http://www.w3.org/1999/xlink" width="61px" height="40px" xmlns="http://www.w3.org/2000/svg">
  <g transform="matrix(1 0 0 1 -232 -74 )">
    <path d="M 232 74  L 293 74  L 293 114  L 232 114  L 232 74  " fill-rule="nonzero" fill="#cccccc" stroke="none" />
    <path d="M 235 77  L 290 77  L 290 111  L 235 111  L 235 77  " fill-rule="nonzero" fill="#ffffff" stroke="none" />
    <path d="M 266.72 86  C 265.04 86  263.72 84.68  263.72 83  C 263.72 81.32  265.04 80  266.72 80  C 268.40000000000003 80  269.72 81.32  269.72 83  C 269.72 84.68  268.40000000000003 86  266.72 86  " fill-rule="nonzero" fill="#cccccc" stroke="none" />
    <path d="M 236 110  L 236 92.4  L 249.25 84.4  L 267.8 97.40983606557377  L 278.4 89.2  L 289 97.40983606557377  L 289 110  L 236 110  " fill-rule="nonzero" fill="#169bd5" stroke="none" />
  </g>
</svg>