<?xml version="1.0" encoding="utf-8"?>
<svg version="1.1" xmlns:xlink="http://www.w3.org/1999/xlink" width="348px" height="233px" xmlns="http://www.w3.org/2000/svg">
  <g transform="matrix(1 0 0 1 -14 -155 )">
    <path d="M 14 155  L 362 155  L 362 388  L 14 388  L 14 155  " fill-rule="nonzero" fill="#cccccc" stroke="none" />
    <path d="M 30 171  L 346 171  L 346 372  L 30 372  L 30 171  " fill-rule="nonzero" fill="#ffffff" stroke="none" />
    <path d="M 212.435 224.89999999999998  C 202.649 224.89999999999998  194.96 217.21099999999998  194.96 207.42499999999998  C 194.96 197.63899999999998  202.649 189.95  212.435 189.95  C 222.221 189.95  229.91 197.63899999999998  229.91 207.42499999999998  C 229.91 217.21099999999998  222.221 224.89999999999998  212.435 224.89999999999998  " fill-rule="nonzero" fill="#cccccc" stroke="none" />
    <path d="M 36 366  L 36 262.05  L 112 214.79999999999998  L 218.4 290.0741379310345  L 279.20000000000005 243.14999999999998  L 340 290.0741379310345  L 340 366  L 36 366  " fill-rule="nonzero" fill="#169bd5" stroke="none" />
  </g>
</svg>