<?xml version="1.0" encoding="utf-8"?>
<svg version="1.1" xmlns:xlink="http://www.w3.org/1999/xlink" width="1190px" height="156px" xmlns="http://www.w3.org/2000/svg">
  <defs>
    <filter x="25px" y="60px" width="1190px" height="156px" filterUnits="userSpaceOnUse" id="filter119">
      <feOffset dx="0" dy="0" in="SourceAlpha" result="shadowOffsetInner" />
      <feGaussianBlur stdDeviation="2.5" in="shadowOffsetInner" result="shadowGaussian" />
      <feComposite in2="shadowGaussian" operator="atop" in="SourceAlpha" result="shadowComposite" />
      <feColorMatrix type="matrix" values="0 0 0 0 0.8941176470588235  0 0 0 0 0.8941176470588235  0 0 0 0 0.8941176470588235  0 0 0 1 0  " in="shadowComposite" />
    </filter>
    <g id="widget120">
      <path d="M 31 77  A 11 11 0 0 1 42 66 L 1198 66  A 11 11 0 0 1 1209 77 L 1209 199  A 11 11 0 0 1 1198 210 L 42 210  A 11 11 0 0 1 31 199 L 31 77  Z " fill-rule="nonzero" fill="#ffffff" stroke="none" />
      <path d="M 30.5 77  A 11.5 11.5 0 0 1 42 65.5 L 1198 65.5  A 11.5 11.5 0 0 1 1209.5 77 L 1209.5 199  A 11.5 11.5 0 0 1 1198 210.5 L 42 210.5  A 11.5 11.5 0 0 1 30.5 199 L 30.5 77  Z " stroke-width="1" stroke="#f2f2f2" fill="none" stroke-opacity="0.9882352941176471" />
    </g>
  </defs>
  <g transform="matrix(1 0 0 1 -25 -60 )">
    <use xlink:href="#widget120" filter="url(#filter119)" />
    <use xlink:href="#widget120" />
  </g>
</svg>