<?xml version="1.0" encoding="utf-8"?>
<svg version="1.1" xmlns:xlink="http://www.w3.org/1999/xlink" width="1190px" height="155px" xmlns="http://www.w3.org/2000/svg">
  <defs>
    <filter x="15px" y="1428px" width="1190px" height="155px" filterUnits="userSpaceOnUse" id="filter44">
      <feOffset dx="0" dy="0" in="SourceAlpha" result="shadowOffsetInner" />
      <feGaussianBlur stdDeviation="2.5" in="shadowOffsetInner" result="shadowGaussian" />
      <feComposite in2="shadowGaussian" operator="atop" in="SourceAlpha" result="shadowComposite" />
      <feColorMatrix type="matrix" values="0 0 0 0 0.8941176470588235  0 0 0 0 0.8941176470588235  0 0 0 0 0.8941176470588235  0 0 0 1 0  " in="shadowComposite" />
    </filter>
    <g id="widget45">
      <path d="M 21 1445  A 11 11 0 0 1 32 1434 L 1188 1434  A 11 11 0 0 1 1199 1445 L 1199 1566  A 11 11 0 0 1 1188 1577 L 32 1577  A 11 11 0 0 1 21 1566 L 21 1445  Z " fill-rule="nonzero" fill="#ffffff" stroke="none" />
      <path d="M 20.5 1445  A 11.5 11.5 0 0 1 32 1433.5 L 1188 1433.5  A 11.5 11.5 0 0 1 1199.5 1445 L 1199.5 1566  A 11.5 11.5 0 0 1 1188 1577.5 L 32 1577.5  A 11.5 11.5 0 0 1 20.5 1566 L 20.5 1445  Z " stroke-width="1" stroke="#f2f2f2" fill="none" stroke-opacity="0.9882352941176471" />
    </g>
  </defs>
  <g transform="matrix(1 0 0 1 -15 -1428 )">
    <use xlink:href="#widget45" filter="url(#filter44)" />
    <use xlink:href="#widget45" />
  </g>
</svg>