<?xml version="1.0" encoding="utf-8"?>
<svg version="1.1" xmlns:xlink="http://www.w3.org/1999/xlink" width="16px" height="16px" xmlns="http://www.w3.org/2000/svg">
  <g transform="matrix(1 0 0 1 -155 -1498 )">
    <path d="M 163 1502  C 165.24 1502  167 1503.76  167 1506  C 167 1508.24  165.24 1510  163 1510  C 160.76 1510  159 1508.24  159 1506  C 159 1503.76  160.76 1502  163 1502  Z " fill-rule="nonzero" fill="#ffffff" stroke="none" />
    <path d="M 163 1500.5  C 166.08 1500.5  168.5 1502.92  168.5 1506  C 168.5 1509.08  166.08 1511.5  163 1511.5  C 159.92 1511.5  157.5 1509.08  157.5 1506  C 157.5 1502.92  159.92 1500.5  163 1500.5  Z " stroke-width="5" stroke="#2561ef" fill="none" />
  </g>
</svg>