<?xml version="1.0" encoding="utf-8"?>
<svg version="1.1" xmlns:xlink="http://www.w3.org/1999/xlink" width="1190px" height="341px" xmlns="http://www.w3.org/2000/svg">
  <defs>
    <filter x="15px" y="1079px" width="1190px" height="341px" filterUnits="userSpaceOnUse" id="filter46">
      <feOffset dx="0" dy="0" in="SourceAlpha" result="shadowOffsetInner" />
      <feGaussianBlur stdDeviation="2.5" in="shadowOffsetInner" result="shadowGaussian" />
      <feComposite in2="shadowGaussian" operator="atop" in="SourceAlpha" result="shadowComposite" />
      <feColorMatrix type="matrix" values="0 0 0 0 0.8941176470588235  0 0 0 0 0.8941176470588235  0 0 0 0 0.8941176470588235  0 0 0 1 0  " in="shadowComposite" />
    </filter>
    <g id="widget47">
      <path d="M 21 1096  A 11 11 0 0 1 32 1085 L 1188 1085  A 11 11 0 0 1 1199 1096 L 1199 1403  A 11 11 0 0 1 1188 1414 L 32 1414  A 11 11 0 0 1 21 1403 L 21 1096  Z " fill-rule="nonzero" fill="#ffffff" stroke="none" />
      <path d="M 20.5 1096  A 11.5 11.5 0 0 1 32 1084.5 L 1188 1084.5  A 11.5 11.5 0 0 1 1199.5 1096 L 1199.5 1403  A 11.5 11.5 0 0 1 1188 1414.5 L 32 1414.5  A 11.5 11.5 0 0 1 20.5 1403 L 20.5 1096  Z " stroke-width="1" stroke="#f2f2f2" fill="none" stroke-opacity="0.9882352941176471" />
    </g>
  </defs>
  <g transform="matrix(1 0 0 1 -15 -1079 )">
    <use xlink:href="#widget47" filter="url(#filter46)" />
    <use xlink:href="#widget47" />
  </g>
</svg>