<?xml version="1.0" encoding="utf-8"?>
<svg version="1.1" xmlns:xlink="http://www.w3.org/1999/xlink" width="1190px" height="601px" xmlns="http://www.w3.org/2000/svg">
  <defs>
    <filter x="15px" y="58px" width="1190px" height="601px" filterUnits="userSpaceOnUse" id="filter50">
      <feOffset dx="0" dy="0" in="SourceAlpha" result="shadowOffsetInner" />
      <feGaussianBlur stdDeviation="2.5" in="shadowOffsetInner" result="shadowGaussian" />
      <feComposite in2="shadowGaussian" operator="atop" in="SourceAlpha" result="shadowComposite" />
      <feColorMatrix type="matrix" values="0 0 0 0 0.8941176470588235  0 0 0 0 0.8941176470588235  0 0 0 0 0.8941176470588235  0 0 0 1 0  " in="shadowComposite" />
    </filter>
    <g id="widget51">
      <path d="M 21 75  A 11 11 0 0 1 32 64 L 1188 64  A 11 11 0 0 1 1199 75 L 1199 642  A 11 11 0 0 1 1188 653 L 32 653  A 11 11 0 0 1 21 642 L 21 75  Z " fill-rule="nonzero" fill="#ffffff" stroke="none" />
      <path d="M 20.5 75  A 11.5 11.5 0 0 1 32 63.5 L 1188 63.5  A 11.5 11.5 0 0 1 1199.5 75 L 1199.5 642  A 11.5 11.5 0 0 1 1188 653.5 L 32 653.5  A 11.5 11.5 0 0 1 20.5 642 L 20.5 75  Z " stroke-width="1" stroke="#f2f2f2" fill="none" stroke-opacity="0.9882352941176471" />
    </g>
  </defs>
  <g transform="matrix(1 0 0 1 -15 -58 )">
    <use xlink:href="#widget51" filter="url(#filter50)" />
    <use xlink:href="#widget51" />
  </g>
</svg>