<?xml version="1.0" encoding="utf-8"?>
<svg version="1.1" xmlns:xlink="http://www.w3.org/1999/xlink" width="346px" height="202px" xmlns="http://www.w3.org/2000/svg">
  <g transform="matrix(1 0 0 1 -14 -73 )">
    <path d="M 14 73  L 360 73  L 360 275  L 14 275  L 14 73  " fill-rule="nonzero" fill="#cccccc" stroke="none" />
    <path d="M 28 87  L 346 87  L 346 261  L 28 261  L 28 87  " fill-rule="nonzero" fill="#ffffff" stroke="none" />
    <path d="M 209.07000000000002 133.6  C 200.586 133.6  193.92000000000002 126.934  193.92000000000002 118.44999999999999  C 193.92000000000002 109.966  200.586 103.3  209.07000000000002 103.3  C 217.55400000000003 103.3  224.22000000000003 109.966  224.22000000000003 118.44999999999999  C 224.22000000000003 126.934  217.55400000000003 133.6  209.07000000000002 133.6  " fill-rule="nonzero" fill="#cccccc" stroke="none" />
    <path d="M 33 256  L 33 165.8  L 110 124.79999999999998  L 217.79999999999998 198.5526011560694  L 279.4 149.39999999999998  L 341 198.5526011560694  L 341 256  L 33 256  " fill-rule="nonzero" fill="#169bd5" stroke="none" />
  </g>
</svg>