<?xml version="1.0" encoding="utf-8"?>
<svg version="1.1" xmlns:xlink="http://www.w3.org/1999/xlink" width="32px" height="32px" xmlns="http://www.w3.org/2000/svg">
  <g transform="matrix(1 0 0 1 -904 -454 )">
    <path d="M 920 454  C 928.96 454  936 461.04  936 470  C 936 478.96  928.96 486  920 486  C 911.04 486  904 478.96  904 470  C 904 461.04  911.04 454  920 454  Z " fill-rule="nonzero" fill="#ffffff" stroke="none" />
    <path d="M 920 454.5  C 928.68 454.5  935.5 461.32  935.5 470  C 935.5 478.68  928.68 485.5  920 485.5  C 911.32 485.5  904.5 478.68  904.5 470  C 904.5 461.32  911.32 454.5  920 454.5  Z " stroke-width="1" stroke="#797979" fill="none" />
  </g>
</svg>