<?xml version="1.0" encoding="utf-8"?>
<svg version="1.1" xmlns:xlink="http://www.w3.org/1999/xlink" width="1190px" height="216px" xmlns="http://www.w3.org/2000/svg">
  <defs>
    <filter x="25px" y="61px" width="1190px" height="216px" filterUnits="userSpaceOnUse" id="filter351">
      <feOffset dx="0" dy="0" in="SourceAlpha" result="shadowOffsetInner" />
      <feGaussianBlur stdDeviation="2.5" in="shadowOffsetInner" result="shadowGaussian" />
      <feComposite in2="shadowGaussian" operator="atop" in="SourceAlpha" result="shadowComposite" />
      <feColorMatrix type="matrix" values="0 0 0 0 0.8941176470588235  0 0 0 0 0.8941176470588235  0 0 0 0 0.8941176470588235  0 0 0 1 0  " in="shadowComposite" />
    </filter>
    <g id="widget352">
      <path d="M 31 78  A 11 11 0 0 1 42 67 L 1198 67  A 11 11 0 0 1 1209 78 L 1209 260  A 11 11 0 0 1 1198 271 L 42 271  A 11 11 0 0 1 31 260 L 31 78  Z " fill-rule="nonzero" fill="#ffffff" stroke="none" />
      <path d="M 30.5 78  A 11.5 11.5 0 0 1 42 66.5 L 1198 66.5  A 11.5 11.5 0 0 1 1209.5 78 L 1209.5 260  A 11.5 11.5 0 0 1 1198 271.5 L 42 271.5  A 11.5 11.5 0 0 1 30.5 260 L 30.5 78  Z " stroke-width="1" stroke="#f2f2f2" fill="none" stroke-opacity="0.9882352941176471" />
    </g>
  </defs>
  <g transform="matrix(1 0 0 1 -25 -61 )">
    <use xlink:href="#widget352" filter="url(#filter351)" />
    <use xlink:href="#widget352" />
  </g>
</svg>