<?xml version="1.0" encoding="utf-8"?>
<svg version="1.1" xmlns:xlink="http://www.w3.org/1999/xlink" width="335px" height="148px" xmlns="http://www.w3.org/2000/svg">
  <g transform="matrix(1 0 0 1 -20 -152 )">
    <path d="M 21 164  A 11 11 0 0 1 32 153 L 343 153  A 11 11 0 0 1 354 164 L 354 288  A 11 11 0 0 1 343 299 L 32 299  A 11 11 0 0 1 21 288 L 21 164  Z " fill-rule="nonzero" fill="#ffffff" stroke="none" />
    <path d="M 20.5 164  A 11.5 11.5 0 0 1 32 152.5 L 343 152.5  A 11.5 11.5 0 0 1 354.5 164 L 354.5 288  A 11.5 11.5 0 0 1 343 299.5 L 32 299.5  A 11.5 11.5 0 0 1 20.5 288 L 20.5 164  Z " stroke-width="1" stroke="#f2f2f2" fill="none" stroke-opacity="0.9882352941176471" />
  </g>
</svg>