<?xml version="1.0" encoding="utf-8"?>
<svg version="1.1" xmlns:xlink="http://www.w3.org/1999/xlink" width="335px" height="193px" xmlns="http://www.w3.org/2000/svg">
  <g transform="matrix(1 0 0 1 -20 -322 )">
    <path d="M 21 334  A 11 11 0 0 1 32 323 L 343 323  A 11 11 0 0 1 354 334 L 354 503  A 11 11 0 0 1 343 514 L 32 514  A 11 11 0 0 1 21 503 L 21 334  Z " fill-rule="nonzero" fill="#ffffff" stroke="none" />
    <path d="M 20.5 334  A 11.5 11.5 0 0 1 32 322.5 L 343 322.5  A 11.5 11.5 0 0 1 354.5 334 L 354.5 503  A 11.5 11.5 0 0 1 343 514.5 L 32 514.5  A 11.5 11.5 0 0 1 20.5 503 L 20.5 334  Z " stroke-width="1" stroke="#f2f2f2" fill="none" stroke-opacity="0.9882352941176471" />
  </g>
</svg>