<?xml version="1.0" encoding="utf-8"?>
<svg version="1.1" xmlns:xlink="http://www.w3.org/1999/xlink" width="80px" height="32px" xmlns="http://www.w3.org/2000/svg">
  <g transform="matrix(1 0 0 1 -255 -463 )">
    <path d="M 256 479  A 15 15 0 0 1 271 464 L 319 464  A 15 15 0 0 1 334 479 A 15 15 0 0 1 319 494 L 271 494  A 15 15 0 0 1 256 479 Z " fill-rule="nonzero" fill="#f68c95" stroke="none" fill-opacity="0" />
    <path d="M 255.5 479  A 15.5 15.5 0 0 1 271 463.5 L 319 463.5  A 15.5 15.5 0 0 1 334.5 479 A 15.5 15.5 0 0 1 319 494.5 L 271 494.5  A 15.5 15.5 0 0 1 255.5 479 Z " stroke-width="1" stroke="#f2f2f2" fill="none" stroke-opacity="0.9882352941176471" />
  </g>
</svg>