<?xml version="1.0" encoding="utf-8"?>
<svg version="1.1" xmlns:xlink="http://www.w3.org/1999/xlink" width="6px" height="10px" xmlns="http://www.w3.org/2000/svg">
  <g transform="matrix(1 0 0 1 -346 -90 )">
    <path d="M 5.776562171260236 4.699053278971708  C 5.843888070692174 4.764866350105781  5.8775510204080454 4.840551381909961  5.8775510204080454 4.926108374384246  C 5.8775510204080454 5.011665366858532  5.843888070692174 5.087350398662712  5.776562171260236 5.15316346979669  L 1.0704818009677572 9.753497142067337  C 1.0031559015358198 9.81931021320141  0.9257311171891649 9.852216748768399  0.8382074479276946 9.852216748768399  C 0.7506837786660299 9.852216748768399  0.6732589943193749 9.81931021320141  0.6059330948874861 9.753497142067337  L 0.10098884914790622 9.25989910856193  C 0.03366294971596874 9.194086037427857  0 9.118401005623676  0 9.032844013149486  C 0 8.947287020675105  0.03366294971596874 8.871601988870927  0.10098884914790622 8.805788917736947  L 4.069850620660596 4.926108374384246  L 0.10098884914790622 1.046427831031546  C 0.03366294971596874 0.9806147598974728  0 0.9049297280932933  0 0.8193727356190077  C 0 0.7338157431448167  0.03366294971596874 0.6581307113406372  0.10098884914790622 0.5923176402064693  L 0.6059330948874861 0.09871960670115718  C 0.6732589943193749 0.03290653556698923  0.7506837786660299 0  0.8382074479276946 0  C 0.9257311171891649 0  1.0031559015358198 0.03290653556698923  1.0704818009677572 0.09871960670115718  L 5.776562171260236 4.699053278971708  Z " fill-rule="nonzero" fill="#d7d7d7" stroke="none" transform="matrix(1 0 0 1 346 90 )" />
  </g>
</svg>