<?xml version="1.0" encoding="utf-8"?>
<svg version="1.1" xmlns:xlink="http://www.w3.org/1999/xlink" width="9px" height="6px" xmlns="http://www.w3.org/2000/svg">
  <g transform="matrix(1 0 0 1 -564 -186 )">
    <path d="M 8.1787109375 0.18472222222222  C 8.281792534722285 0.3078703703703638  8.333333333333371 0.45370370370369817  8.333333333333371 0.6222222222222229  C 8.333333333333371 0.790740740740739  8.281792534722285 0.936574074074069  8.1787109375 1.0597222222222173  L 4.5328776041667425 5.415277777777785  C 4.429796006944457 5.53842592592593  4.307725694444457 5.600000000000005  4.1666666666667425 5.600000000000005  C 4.025607638888914 5.600000000000005  3.903537326388914 5.53842592592593  3.8004557291666288 5.415277777777785  L 0.15462239583337123 1.0597222222222173  C 0.05154079861114269 0.936574074074069  0 0.790740740740739  0 0.6222222222222229  C 0 0.45370370370369817  0.05154079861114269 0.3078703703703638  0.15462239583337123 0.18472222222222  C 0.2577039930555429 0.061574074074076175  0.3797743055555429 0  0.5208333333333712 0  L 7.8125 0  C 7.9535590277777715 0  8.075629340277771 0.061574074074076175  8.1787109375 0.18472222222222  Z " fill-rule="nonzero" fill="#cccccc" stroke="none" transform="matrix(1 0 0 1 564 186 )" />
  </g>
</svg>