<?xml version="1.0" encoding="utf-8"?>
<svg version="1.1" xmlns:xlink="http://www.w3.org/1999/xlink" width="19px" height="15px" xmlns="http://www.w3.org/2000/svg">
  <g transform="matrix(1 0 0 1 -131 -1206 )">
    <path d="M 19 5.25  C 19 6.0104999999999995  18.640900079016692 6.704999999999999  18.050000209038867 7.234500000000001  L 18.050000209038867 14.25  C 18.050000209038867 14.664213562373094  17.62467081496801 15  17.100000418077734 15  L 1.9000037626996098 15  C 1.3753333658093345 15  0.950003971738477 14.664213562373094  0.950003971738477 14.25  L 0.950003971738477 7.2345000000000015  C 0.3366043530435167 6.686970221050912  -0.0013711104136232444 5.980957110719463  0 5.25  L 0 0.75  C 0 0.3357864376269051  0.4253335748482018 0  0.950003971738477 0  L 18.050000209038867 0  C 18.574670605929143 0  19 0.3357864376269051  19 0.75  L 19 5.25  Z M 16.1500006271166 13.5  L 16.1500006271166 8.155500000000002  C 14.764757326643613 8.436453930141196  13.296932478174003 8.08069946095526  12.35000146327207 7.234499999999999  C 11.62934307946237 7.880983820199344  10.590832132478742 8.251021749574361  9.50000209038867 8.249999999999998  C 8.409172048298599 8.251021749574361  7.370661101314974 7.880983820199344  6.650002717505272 7.234499999999999  C 5.7051764168980945 8.083273728193161  4.235334353342857 8.439517106721905  2.8500035536607427 8.155500000000002  L 2.8500035536607427 13.5  L 16.1500006271166 13.5  Z M 11.400001672310939 5.25  C 11.400001672310939 4.835786437626905  11.825331066381796 4.5  12.35000146327207 4.5  C 12.874671860162346 4.5  13.300001254233203 4.835786437626905  13.300001254233203 5.25  C 13.300001254233203 6.07842712474619  14.15066004237492 6.75  15.20000083615547 6.75  C 16.24934162993602 6.75  17.100000418077734 6.07842712474619  17.100000418077734 5.25  L 17.100000418077734 1.5  L 1.9000037626996098 1.5  L 1.9000037626996098 5.25  C 1.9000037626996098 6.07842712474619  2.7506625508413256 6.75  3.8000033446218757 6.75  C 4.849344138402426 6.75  5.7000029265441405 6.07842712474619  5.7000029265441405 5.25  C 5.7000029265441405 4.835786437626905  6.125332320614999 4.5  6.6500027175052745 4.5  C 7.174673114395549 4.5  7.600002508466407 4.835786437626905  7.600002508466407 5.25  C 7.600002508466407 6.07842712474619  8.450661296608121 6.75  9.500002090388671 6.75  C 10.549342884169223 6.75  11.400001672310939 6.07842712474619  11.400001672310939 5.25  Z " fill-rule="nonzero" fill="#555555" stroke="none" transform="matrix(1 0 0 1 131 1206 )" />
  </g>
</svg>