<?xml version="1.0" encoding="utf-8"?>
<svg version="1.1" xmlns:xlink="http://www.w3.org/1999/xlink" width="12px" height="16px" xmlns="http://www.w3.org/2000/svg">
  <g transform="matrix(1 0 0 1 -49 -59 )">
    <path d="M 6.779052537995824 15.354633289415915  C 6.7104130505341 15.424169228517059  6.629129446961031 15.458937198067645  6.535201727276558 15.458937198067645  L 4.671097752000321 15.458937198067645  C 4.577170032315905 15.458937198067645  4.495886428742779 15.425999121651301  4.427246941281055 15.360122968818644  C 4.358607453819332 15.294246815985957  4.32428771008847 15.21007173181087  4.32428771008847 15.107597716293355  L 4.32428771008847 11.48440931049629  L 1.2029973328817505 11.48440931049629  C 1.1090696131973345 11.48440931049629  1.027786009624208 11.451471234079918  0.9591465221624844 11.38559508124726  C 0.8905070347007609 11.319718928414574  0.8561872909698991 11.235543844239487  0.8561872909698991 11.133069828722  L 0.8561872909698991 10.002195871761103  C 0.8561872909698991 9.907041428780559  0.8905070347007609 9.824696237739715  0.9591465221624844 9.755160298638543  C 1.027786009624208 9.6856243595374  1.1090696131973345 9.650856389986814  1.2029973328817505 9.650856389986814  L 4.32428771008847 9.650856389986814  L 4.32428771008847 8.717610891523918  L 1.2029973328817505 8.717610891523918  C 1.1090696131973345 8.717610891523918  1.027786009624208 8.684672815107604  0.9591465221624844 8.618796662274917  C 0.8905070347007609 8.55292050944226  0.8561872909698991 8.468745425267173  0.8561872909698991 8.366271409749686  L 0.8561872909698991 7.224418093983303  C 0.8561872909698991 7.129263651002788  0.8905070347007609 7.046918459961944  0.9591465221624844 6.9773825208608  C 1.027786009624208 6.907846581759628  1.1090696131973345 6.873078612209071  1.2029973328817505 6.873078612209071  L 3.522289488167303 6.873078612209071  L 0.04335125523897432 0.5270092226614054  C -0.01445041841299144 0.40989606206997564  -0.01445041841299144 0.2927829014785459  0.04335125523897432 0.1756697408871446  C 0.11560334730393151 0.058556580295714866  0.21675627619492843 0  0.3468100419118514 0  L 2.4493459210024753 0  C 2.586624895925979 0  2.691390429420153 0.06587615283268633  2.76364252148511 0.19762845849803057  L 5.09377249058042 4.863855950812479  C 5.231051465503867 5.1419997072170815  5.433357323285804 5.599472990777343  5.700690063926174 6.236275801493207  C 5.772942155991132 6.060606060606062  5.883126596390241 5.811740594349288  6.031243385123389 5.489679402722885  C 6.179360173856594 5.167618211096482  6.278706800445946 4.944371248719079  6.329283264891387 4.819938515590678  L 8.399305702552795 0.20860781730345934  C 8.45710737620476 0.06953593910114364  8.561872909698991 0  8.71360230303543 0  L 10.783624740696837 0  C 10.906453297207293 0  11.003993621494999 0.058556580295714866  11.076245713559956 0.1756697408871446  C 11.141272596418446 0.2781437564046314  11.14488520102168 0.3915971307275754  11.087083527369714 0.5160298638559482  L 7.694847804919391 6.873078612209071  L 10.024977774014644 6.873078612209071  C 10.118905493699117 6.873078612209071  10.200189097272187 6.907846581759628  10.26882858473391 6.9773825208608  C 10.337468072195634 7.046918459961944  10.371787815926496 7.129263651002788  10.371787815926496 7.224418093983303  L 10.371787815926496 8.366271409749686  C 10.371787815926496 8.468745425267173  10.337468072195634 8.55292050944226  10.26882858473391 8.618796662274917  C 10.200189097272187 8.684672815107604  10.118905493699117 8.717610891523918  10.024977774014644 8.717610891523918  L 6.882011769188409 8.717610891523918  L 6.882011769188409 9.650856389986814  L 10.024977774014644 9.650856389986814  C 10.118905493699117 9.650856389986814  10.200189097272187 9.6856243595374  10.26882858473391 9.755160298638543  C 10.337468072195634 9.824696237739715  10.371787815926496 9.907041428780559  10.371787815926496 10.002195871761103  L 10.371787815926496 11.133069828722  C 10.371787815926496 11.235543844239487  10.337468072195634 11.319718928414574  10.26882858473391 11.38559508124726  C 10.200189097272187 11.451471234079918  10.118905493699117 11.48440931049629  10.024977774014644 11.48440931049629  L 6.882011769188409 11.48440931049629  L 6.882011769188409 15.107597716293355  C 6.882011769188409 15.2027521592739  6.847692025457604 15.285097350314743  6.779052537995824 15.354633289415915  Z " fill-rule="nonzero" fill="#c9c9c9" stroke="none" transform="matrix(1 0 0 1 49 59 )" />
  </g>
</svg>