<?xml version="1.0" encoding="utf-8"?>
<svg version="1.1" xmlns:xlink="http://www.w3.org/1999/xlink" width="16px" height="16px" xmlns="http://www.w3.org/2000/svg">
  <g transform="matrix(1 0 0 1 -58 -287 )">
    <path d="M 3.8 0.4  C 5.677768149424698 0.39999999999999963  7.2 1.9222318505753022  7.2 3.8  L 7.2 7.2  L 3.8 7.2  C 1.9222318505753022 7.2  0.39999999999999963 5.677768149424699  0.39999999999999963 3.8000000000000007  C 0.39999999999999963 1.922231850575303  1.9222318505753022 0.40000000000000036  3.8 0.40000000000000036  Z M 3.8 5.6  L 5.6 5.6  L 5.6 3.8  C 5.6 2.805887450304572  4.794112549695428 2  3.8 2  C 2.805887450304572 2  2 2.805887450304572  2 3.8  C 2 4.794112549695428  2.805887450304572 5.6  3.8 5.6  Z M 3.8 8.8  L 7.2 8.8  L 7.2 12.2  C 7.2 14.077768149424696  5.677768149424699 15.6  3.8000000000000007 15.6  C 1.922231850575303 15.6  0.40000000000000036 14.077768149424696  0.40000000000000036 12.2  C 0.40000000000000036 10.322231850575303  1.922231850575303 8.8  3.8000000000000007 8.8  Z M 5.6 10.4  L 3.8 10.399999999999999  C 2.805887450304572 10.399999999999999  2 11.20588745030457  2 12.2  C 2 13.194112549695427  2.805887450304572 14  3.8 14  C 4.794112549695428 14  5.6 13.194112549695427  5.6 12.2  L 5.6 10.4  Z M 8.8 3.8  C 8.8 1.9222318505753022  10.322231850575303 0.4  12.2 0.4  C 14.077768149424696 0.40000000000000036  15.6 1.922231850575303  15.6 3.8000000000000007  C 15.6 5.677768149424699  14.077768149424696 7.2  12.2 7.2  L 8.8 7.2  L 8.8 3.8  Z M 10.4 5.6  L 12.2 5.6  C 13.194112549695427 5.6  14 4.794112549695428  14 3.8  C 14 2.805887450304572  13.194112549695427 2  12.2 2  C 11.20588745030457 2  10.399999999999999 2.805887450304572  10.399999999999999 3.8  L 10.4 5.6  Z M 8.8 12.2  L 8.8 8.8  L 12.2 8.8  C 14.077768149424696 8.8  15.6 10.322231850575303  15.6 12.2  C 15.6 14.077768149424696  14.077768149424696 15.6  12.2 15.6  C 10.322231850575303 15.6  8.8 14.077768149424696  8.8 12.2  Z M 12.2 10.4  L 10.4 10.4  L 10.399999999999999 12.2  C 10.399999999999999 13.194112549695427  11.20588745030457 14  12.2 14  C 13.194112549695427 14  14 13.194112549695427  14 12.2  C 14 11.20588745030457  13.194112549695427 10.399999999999999  12.2 10.399999999999999  Z " fill-rule="nonzero" fill="#333333" stroke="none" transform="matrix(1 0 0 1 58 287 )" />
  </g>
</svg>