<?xml version="1.0" encoding="utf-8"?>
<svg version="1.1" xmlns:xlink="http://www.w3.org/1999/xlink" width="16px" height="14px" xmlns="http://www.w3.org/2000/svg">
  <g transform="matrix(1 0 0 1 -139 -287 )">
    <path d="M 0 0.7777777777777777  C 0 0.3482229723538275  0.35817220013536544 0  0.8 0  L 15.2 0  C 15.641827799864634 0  16 0.3482229723538275  16 0.7777777777777777  L 16 13.222222222222221  C 16 13.651777027646173  15.641827799864634 14  15.2 14  L 0.8 14  C 0.35817220013536544 14  0 13.651777027646173  0 13.222222222222221  L 0 0.7777777777777777  Z M 14.4 1.5555555555555554  L 1.6 1.5555555555555554  L 1.6 12.444444444444443  L 14.4 12.444444444444443  L 14.4 1.5555555555555554  Z M 4 10.88888888888889  L 4 7.777777777777779  L 5.6 7.777777777777779  L 5.6 10.88888888888889  L 4 10.88888888888889  Z M 7.2 10.88888888888889  L 7.2 3.1111111111111107  L 8.8 3.1111111111111107  L 8.8 10.88888888888889  L 7.2 10.88888888888889  Z M 10.4 10.88888888888889  L 10.4 5.444444444444445  L 12 5.444444444444445  L 12 10.88888888888889  L 10.4 10.88888888888889  Z " fill-rule="nonzero" fill="#333333" stroke="none" transform="matrix(1 0 0 1 139 287 )" />
  </g>
</svg>