<?xml version="1.0" encoding="utf-8"?>
<svg version="1.1" xmlns:xlink="http://www.w3.org/1999/xlink" width="16px" height="16px" xmlns="http://www.w3.org/2000/svg">
  <g transform="matrix(1 0 0 1 -221 -287 )">
    <path d="M 3.999999999999999 11.2  C 3.999999999999999 8.990861000676826  5.790861000676827 7.199999999999998  8 7.199999999999998  C 10.209138999323173 7.199999999999998  12 8.990861000676826  12 11.2  L 12 16  L 10.4 16  L 10.4 11.2  C 10.400070793007576 9.929153911704848  9.40945722044224 8.878556301990546  8.1408 8.803999999999998  L 8 8.8  C 6.729153911704844 8.799929206992422  5.6785563019905485 9.790542779557757  5.603999999999999 11.0592  L 5.6 11.2  L 5.6 16  L 4 16  L 3.999999999999999 11.2  Z M 0 12.4  C 0 10.853602700473779  1.2536027004737782 9.6  2.8 9.6  C 3.0232 9.6  3.2399999999999998 9.6264  3.4480000000000004 9.6752  C 3.311218936808128 10.082403166628055  3.230216124861954 10.506255089602226  3.2072000000000003 10.935199999999998  L 3.2 11.2  L 3.2 11.268799999999999  C 3.1080426297639883 11.235895018799587  3.012394221201599 11.214400994403547  2.9152 11.2048  L 2.8 11.2  C 2.1819024709907096 11.20002966913869  1.6649373621411783 11.669557256278651  1.6055999999999997 12.2848  L 1.6 12.4  L 1.6 16  L 0 16  L 0 12.4  Z M 12.5528 9.6768  C 12.76 9.6264  12.9768 9.6  13.2 9.6  C 14.746397299526219 9.6  16 10.853602700473779  16 12.4  L 16 16  L 14.4 16  L 14.4 12.4  C 14.399970330861311 11.78190247099071  13.930442743721347 11.264937362141183  13.315199999999999 11.2056  L 13.2 11.2  C 13.059999999999999 11.2  12.9256 11.224  12.8 11.268  L 12.8 11.2  C 12.8 10.6672  12.7136 10.155199999999999  12.5528 9.6768  Z M 2.7999999999999994 4.799999999999999  C 3.904569499661586 4.799999999999999  4.799999999999999 5.6954305003384125  4.799999999999999 6.799999999999999  C 4.799999999999999 7.904569499661585  3.904569499661586 8.799999999999999  2.7999999999999994 8.799999999999999  C 1.695430500338413 8.799999999999999  0.8 7.904569499661585  0.8 6.799999999999999  C 0.8 5.6954305003384125  1.695430500338413 4.799999999999999  2.7999999999999994 4.799999999999999  Z M 13.199999999999998 4.799999999999999  C 14.304569499661586 4.799999999999999  15.199999999999998 5.6954305003384125  15.199999999999998 6.799999999999999  C 15.199999999999998 7.904569499661585  14.304569499661586 8.799999999999999  13.199999999999998 8.799999999999999  C 12.095430500338413 8.799999999999999  11.2 7.904569499661585  11.2 6.799999999999999  C 11.2 5.6954305003384125  12.095430500338413 4.799999999999999  13.199999999999998 4.799999999999999  Z M 2.8 6.4  C 2.579086100067683 6.4  2.4 6.579086100067682  2.4 6.8  C 2.4 7.020913899932317  2.579086100067683 7.2  2.8 7.2  C 3.0209138999323173 7.2  3.2 7.020913899932317  3.2 6.8  C 3.2 6.579086100067682  3.0209138999323173 6.4  2.8 6.4  Z M 13.2 6.4  C 12.979086100067681 6.4  12.8 6.579086100067682  12.8 6.8  C 12.8 7.020913899932317  12.979086100067681 7.2  13.2 7.2  C 13.42091389993232 7.2  13.6 7.020913899932317  13.6 6.8  C 13.6 6.579086100067682  13.42091389993232 6.4  13.2 6.4  Z M 8 0  C 9.767311199458538 0  11.2 1.4326888005414609  11.2 3.2  C 11.2 4.967311199458538  9.767311199458538 6.4  8 6.4  C 6.232688800541462 6.4  4.8 4.967311199458538  4.8 3.2  C 4.8 1.4326888005414609  6.232688800541462 0  8 0  Z M 8 1.6  C 7.116344400270731 1.6  6.4 2.3163444002707307  6.4 3.2  C 6.4 4.083655599729269  7.116344400270731 4.8  8 4.8  C 8.88365559972927 4.8  9.6 4.083655599729269  9.6 3.2  C 9.6 2.3163444002707307  8.88365559972927 1.6  8 1.6  Z " fill-rule="nonzero" fill="#333333" stroke="none" transform="matrix(1 0 0 1 221 287 )" />
  </g>
</svg>