<?xml version="1.0" encoding="utf-8"?>
<svg version="1.1" xmlns:xlink="http://www.w3.org/1999/xlink" width="16px" height="16px" xmlns="http://www.w3.org/2000/svg">
  <g transform="matrix(1 0 0 1 -304 -286 )">
    <path d="M 12.952380952380953 9.904761904761905  L 3.394285714285714 9.904761904761905  L 0 12.571428571428571  L 0 0.7619047619047619  C 0 0.3411163810813004  0.3411163810813002 0  0.7619047619047619 0  L 12.19047619047619 0  C 12.611264571299651 0  12.952380952380953 0.3411163810813004  12.952380952380953 0.7619047619047619  L 12.952380952380953 9.904761904761905  Z M 1.5238095238095237 9.436190476190475  L 2.867047619047619 8.380952380952381  L 11.428571428571429 8.380952380952381  L 11.428571428571429 1.5238095238095237  L 1.5238095238095237 1.5238095238095237  L 1.5238095238095237 9.436190476190475  Z M 5.333333333333333 12.19047619047619  L 5.333333333333333 11.428571428571429  L 13.132952380952382 11.428571428571429  L 14.476190476190476 12.483809523809525  L 14.476190476190476 4.571428571428571  L 15.238095238095237 4.571428571428571  C 15.658883618918699 4.571428571428571  16 4.912544952509871  16 5.333333333333333  L 16 15.619047619047619  L 12.605714285714287 12.952380952380953  L 6.095238095238095 12.952380952380953  C 5.674449714414633 12.952380952380953  5.333333333333333 12.611264571299651  5.333333333333333 12.19047619047619  Z " fill-rule="nonzero" fill="#333333" stroke="none" transform="matrix(1 0 0 1 304 286 )" />
  </g>
</svg>