<?xml version="1.0" encoding="utf-8"?>
<svg version="1.1" xmlns:xlink="http://www.w3.org/1999/xlink" width="61px" height="40px" xmlns="http://www.w3.org/2000/svg">
  <g transform="matrix(1 0 0 1 -86 -99 )">
    <path d="M 86 99  L 147 99  L 147 139  L 86 139  L 86 99  " fill-rule="nonzero" fill="#cccccc" stroke="none" />
    <path d="M 89 102  L 144 102  L 144 136  L 89 136  L 89 102  " fill-rule="nonzero" fill="#ffffff" stroke="none" />
    <path d="M 120.72 111  C 119.03999999999999 111  117.72 109.68  117.72 108  C 117.72 106.32  119.03999999999999 105  120.72 105  C 122.4 105  123.72 106.32  123.72 108  C 123.72 109.68  122.4 111  120.72 111  " fill-rule="nonzero" fill="#cccccc" stroke="none" />
    <path d="M 90 135  L 90 117.4  L 103.25 109.4  L 121.8 122.40983606557377  L 132.4 114.2  L 143 122.40983606557377  L 143 135  L 90 135  " fill-rule="nonzero" fill="#169bd5" stroke="none" />
  </g>
</svg>