<?xml version="1.0" encoding="utf-8"?>
<svg version="1.1" xmlns:xlink="http://www.w3.org/1999/xlink" width="348px" height="233px" xmlns="http://www.w3.org/2000/svg">
  <g transform="matrix(1 0 0 1 -14 -180 )">
    <path d="M 14 180  L 362 180  L 362 413  L 14 413  L 14 180  " fill-rule="nonzero" fill="#cccccc" stroke="none" />
    <path d="M 30 196  L 346 196  L 346 397  L 30 397  L 30 196  " fill-rule="nonzero" fill="#ffffff" stroke="none" />
    <path d="M 212.435 249.89999999999998  C 202.649 249.89999999999998  194.96 242.21099999999998  194.96 232.42499999999998  C 194.96 222.63899999999998  202.649 214.95  212.435 214.95  C 222.221 214.95  229.91 222.63899999999998  229.91 232.42499999999998  C 229.91 242.21099999999998  222.221 249.89999999999998  212.435 249.89999999999998  " fill-rule="nonzero" fill="#cccccc" stroke="none" />
    <path d="M 36 391  L 36 287.05  L 112 239.79999999999998  L 218.4 315.0741379310345  L 279.20000000000005 268.15  L 340 315.0741379310345  L 340 391  L 36 391  " fill-rule="nonzero" fill="#169bd5" stroke="none" />
  </g>
</svg>