<?xml version="1.0" encoding="utf-8"?>
<svg version="1.1" xmlns:xlink="http://www.w3.org/1999/xlink" width="65px" height="50px" xmlns="http://www.w3.org/2000/svg">
  <g transform="matrix(1 0 0 1 -8 -89 )">
    <path d="M 8 89  L 73 89  L 73 139  L 8 139  L 8 89  " fill-rule="nonzero" fill="#cccccc" stroke="none" />
    <path d="M 12 93  L 69 93  L 69 135  L 12 135  L 12 93  " fill-rule="nonzero" fill="#ffffff" stroke="none" />
    <path d="M 45.550000000000004 104  C 43.45 104  41.800000000000004 102.35  41.800000000000004 100.25  C 41.800000000000004 98.15  43.45 96.5  45.550000000000004 96.5  C 47.650000000000006 96.5  49.300000000000004 98.15  49.300000000000004 100.25  C 49.300000000000004 102.35  47.650000000000006 104  45.550000000000004 104  " fill-rule="nonzero" fill="#cccccc" stroke="none" />
    <path d="M 14 134  L 14 112.55  L 27.5 102.8  L 46.4 116  L 57.2 108.65  L 68 116  L 68 134  L 14 134  " fill-rule="nonzero" fill="#169bd5" stroke="none" />
  </g>
</svg>