<?xml version="1.0" encoding="utf-8"?>
<svg version="1.1" xmlns:xlink="http://www.w3.org/1999/xlink" width="61px" height="40px" xmlns="http://www.w3.org/2000/svg">
  <g transform="matrix(1 0 0 1 -159 -99 )">
    <path d="M 159 99  L 220 99  L 220 139  L 159 139  L 159 99  " fill-rule="nonzero" fill="#cccccc" stroke="none" />
    <path d="M 162 102  L 217 102  L 217 136  L 162 136  L 162 102  " fill-rule="nonzero" fill="#ffffff" stroke="none" />
    <path d="M 193.72 111  C 192.04 111  190.72 109.68  190.72 108  C 190.72 106.32  192.04 105  193.72 105  C 195.4 105  196.72 106.32  196.72 108  C 196.72 109.68  195.4 111  193.72 111  " fill-rule="nonzero" fill="#cccccc" stroke="none" />
    <path d="M 163 135  L 163 117.4  L 176.25 109.4  L 194.8 122.40983606557377  L 205.4 114.2  L 216 122.40983606557377  L 216 135  L 163 135  " fill-rule="nonzero" fill="#169bd5" stroke="none" />
  </g>
</svg>