<?xml version="1.0" encoding="utf-8"?>
<svg version="1.1" xmlns:xlink="http://www.w3.org/1999/xlink" width="61px" height="40px" xmlns="http://www.w3.org/2000/svg">
  <g transform="matrix(1 0 0 1 -232 -99 )">
    <path d="M 232 99  L 293 99  L 293 139  L 232 139  L 232 99  " fill-rule="nonzero" fill="#cccccc" stroke="none" />
    <path d="M 235 102  L 290 102  L 290 136  L 235 136  L 235 102  " fill-rule="nonzero" fill="#ffffff" stroke="none" />
    <path d="M 266.72 111  C 265.04 111  263.72 109.68  263.72 108  C 263.72 106.32  265.04 105  266.72 105  C 268.40000000000003 105  269.72 106.32  269.72 108  C 269.72 109.68  268.40000000000003 111  266.72 111  " fill-rule="nonzero" fill="#cccccc" stroke="none" />
    <path d="M 236 135  L 236 117.4  L 249.25 109.4  L 267.8 122.40983606557377  L 278.4 114.2  L 289 122.40983606557377  L 289 135  L 236 135  " fill-rule="nonzero" fill="#169bd5" stroke="none" />
  </g>
</svg>