<?xml version="1.0" encoding="utf-8"?>
<svg version="1.1" xmlns:xlink="http://www.w3.org/1999/xlink" width="13px" height="13px" viewBox="21 1002  13 13" xmlns="http://www.w3.org/2000/svg">
  <path d="M 27.5 1002  C 31.14 1002  34 1004.86  34 1008.5  C 34 1012.14  31.14 1015  27.5 1015  C 23.86 1015  21 1012.14  21 1008.5  C 21 1004.86  23.86 1002  27.5 1002  Z " fill-rule="nonzero" fill="#ffffff" stroke="none" />
  <path d="M 27.5 1002.5  C 30.86 1002.5  33.5 1005.14  33.5 1008.5  C 33.5 1011.86  30.86 1014.5  27.5 1014.5  C 24.14 1014.5  21.5 1011.86  21.5 1008.5  C 21.5 1005.14  24.14 1002.5  27.5 1002.5  Z " stroke-width="1" stroke="#797979" fill="none" />
  <path d="M 27.5 1011.75  C 25.68 1011.75  24.25 1010.32  24.25 1008.5  C 24.25 1006.68  25.68 1005.25  27.5 1005.25  C 29.32 1005.25  30.75 1006.68  30.75 1008.5  C 30.75 1010.32  29.32 1011.75  27.5 1011.75  " fill-rule="nonzero" fill="#797979" stroke="none" />
</svg>