<?xml version="1.0" encoding="utf-8"?>
<svg version="1.1" xmlns:xlink="http://www.w3.org/1999/xlink" width="13px" height="13px" viewBox="21 1027  13 13" xmlns="http://www.w3.org/2000/svg">
  <path d="M 27.5 1027  C 31.14 1027  34 1029.86  34 1033.5  C 34 1037.14  31.14 1040  27.5 1040  C 23.86 1040  21 1037.14  21 1033.5  C 21 1029.86  23.86 1027  27.5 1027  Z " fill-rule="nonzero" fill="#f0f0f0" stroke="none" />
  <path d="M 27.5 1027.5  C 30.86 1027.5  33.5 1030.14  33.5 1033.5  C 33.5 1036.86  30.86 1039.5  27.5 1039.5  C 24.14 1039.5  21.5 1036.86  21.5 1033.5  C 21.5 1030.14  24.14 1027.5  27.5 1027.5  Z " stroke-width="1" stroke="#797979" fill="none" />
  <path d="M 27.5 1036.75  C 25.68 1036.75  24.25 1035.32  24.25 1033.5  C 24.25 1031.68  25.68 1030.25  27.5 1030.25  C 29.32 1030.25  30.75 1031.68  30.75 1033.5  C 30.75 1035.32  29.32 1036.75  27.5 1036.75  " fill-rule="nonzero" fill="#797979" stroke="none" />
</svg>