<?xml version="1.0" encoding="utf-8"?>
<svg version="1.1" xmlns:xlink="http://www.w3.org/1999/xlink" width="357px" height="85px" xmlns="http://www.w3.org/2000/svg">
  <g transform="matrix(1 0 0 1 -8 -46 )">
    <path d="M 8 46  L 365 46  L 365 131  L 8 131  L 8 46  " fill-rule="nonzero" fill="#cccccc" stroke="none" />
    <path d="M 14 52  L 359 52  L 359 125  L 14 125  L 14 52  " fill-rule="nonzero" fill="#ffffff" stroke="none" />
    <path d="M 200.01500000000001 71.5  C 196.44500000000002 71.5  193.64000000000001 68.695  193.64000000000001 65.125  C 193.64000000000001 61.555  196.44500000000002 58.75  200.01500000000001 58.75  C 203.585 58.75  206.39000000000001 61.555  206.39000000000001 65.125  C 206.39000000000001 68.695  203.585 71.5  200.01500000000001 71.5  " fill-rule="nonzero" fill="#cccccc" stroke="none" />
    <path d="M 16 123  L 16 85.05  L 101.25 67.8  L 220.6 113.14285714285714  L 288.8 78.15  L 357 113.14285714285714  L 357 123  L 16 123  " fill-rule="nonzero" fill="#169bd5" stroke="none" />
  </g>
</svg>