<?xml version="1.0" encoding="utf-8"?>
<svg version="1.1" xmlns:xlink="http://www.w3.org/1999/xlink" width="66px" height="62px" xmlns="http://www.w3.org/2000/svg">
  <g transform="matrix(1 0 0 1 -761 -322 )">
    <path d="M 761 322  L 827 322  L 827 384  L 761 384  L 761 322  " fill-rule="nonzero" fill="#cccccc" stroke="none" />
    <path d="M 765 326  L 823 326  L 823 380  L 765 380  L 765 326  " fill-rule="nonzero" fill="#ffffff" stroke="none" />
    <path d="M 799.97 340.6  C 797.366 340.6  795.32 338.55400000000003  795.32 335.95000000000005  C 795.32 333.346  797.366 331.3  799.97 331.3  C 802.5740000000001 331.3  804.62 333.346  804.62 335.95000000000005  C 804.62 338.55400000000003  802.5740000000001 340.6  799.97 340.6  " fill-rule="nonzero" fill="#cccccc" stroke="none" />
    <path d="M 767 379  L 767 350.95  L 780.75 338.2  L 800 350.25454545454545  L 811 345.85  L 822 350.25454545454545  L 822 379  L 767 379  " fill-rule="nonzero" fill="#169bd5" stroke="none" />
  </g>
</svg>